<svg version="1.1" id="Слой_1" xmlns="http://www.w3.org/2000/svg" x="0" y="0" viewBox="0 0 133 64.5" xml:space="preserve"><style>.st0{fill:none}</style><path class="st0" d="M26.1 58.7c0 3.3-2.6 5.7-6.1 5.7s-6-2.4-6-5.7 2.6-5.7 6-5.7 6.1 2.4 6.1 5.7zm-8.8.1c0 1.7 1.3 3 2.8 3 1.5 0 2.7-1.2 2.7-3 0-1.7-1.2-2.9-2.7-2.9-1.5-.1-2.8 1.1-2.8 2.9zm16.2-5.7c3.6 0 6 2.2 6 5.6 0 3.4-2.4 5.6-6.1 5.6h-4.8V53.1h4.9zm-1.6 8.6h1.7c1.5 0 2.6-1.2 2.6-3s-1.1-3-2.7-3H32v6zM42 64.3V53.1h3.3v11.2H42zm9.8-8.6v2.2h5v2.6h-5v3.9h-3.3V53.1h8.7v2.6h-5.4zm7.8 8.6V53.1h3.3v11.2h-3.3zm21.5-1.7l-.7 1.8H77l4.8-11.2h3.4l4.6 11.2h-3.5l-.7-1.8h-4.5zm2.3-6.1L82 60.1h2.7l-1.3-3.6zm13-.7v8.5h-3.3v-8.5h-3.2v-2.7h9.8v2.7h-3.3zm5.5 8.5V53.1h3.3v11.2h-3.3zm18-5.6c0 3.3-2.6 5.7-6.1 5.7s-6.1-2.4-6.1-5.7 2.6-5.7 6.1-5.7 6.1 2.4 6.1 5.7zm-8.8.1c0 1.7 1.3 3 2.8 3s2.7-1.2 2.7-3c0-1.7-1.2-2.9-2.7-2.9-1.5-.1-2.8 1.1-2.8 2.9zm19.1 5.5l-4.7-6.2v6.2h-3.1V53.1h2.9l4.7 6.2v-6.2h3v11.2h-2.8zM9.1 59.5c-.3 1.2-1.4 2.1-2.6 2.1-1.5 0-2.8-1.2-2.8-3 0-1.7 1.2-2.9 2.8-2.9.8 0 1.6.4 2 1l2.8-1.7c-1.1-1.2-2.8-2-4.9-2-3.5 0-6.1 2.4-6.1 5.7 0 3.3 2.6 5.7 6.1 5.7 3.2 0 5.6-2 6-4.9H9.1zm64.3 0c-.3 1.2-1.4 2.1-2.6 2.1-1.5 0-2.8-1.2-2.8-3 0-1.7 1.2-2.9 2.8-2.9.8 0 1.6.4 2 1l2.8-1.7c-1.1-1.4-2.8-2.2-4.9-2.2-3.5 0-6.1 2.4-6.1 5.7 0 3.3 2.6 5.7 6.1 5.7 3.2 0 5.6-2 6-4.9l-3.3.2zM43.3 20.3c.1-1.4-.5-2.6-1.5-3.5-1-.9-1.1-2.7-.5-3.7.7-1.2 2-1.9 3.4-1.6 1.3.3 2.1 1.1 2.4 2.4.3 1 .8 1.9 1.8 2.5 1.2.8 2.5.9 3.7.4 2.4-1 5.1.3 5.7 2.8.6 2.3-.8 4.4-2.8 5-2.2.7-4.9-.7-5.3-3.1-.2-.8-.4-1.6-.8-2.2-.8-1.1-1.9-1.7-3.3-1.7-.5 0-.8.3-.9.7-.6 1.6-.6 3.2.3 4.6.2.3.5.6.8.9 1.6 1.6.9 4.4-1.2 5.1-1.8.7-3.6-.4-4.1-1.9-.4-1.1-.3-2.3.6-3.2.6-.7 1.2-1.4 1.4-2.2.2-.5.2-.9.3-1.3zm11 15.3c-.8 0-1.6-.4-2.3-.6-1.9-.5-3.9.6-4.6 2.4-.3.8-.5 1.6-1.1 2.2-1.2 1.1-3.1 1.1-4.3 0-1.7-1.4-1.5-4.1.7-5.2.7-.3 1.4-.4 2.1-.2 2.6.7 4.7-.5 5.3-3.1.2-.6.3-1.3.6-1.9.9-1.6 2.4-2.3 4.3-2 1.6.2 2.8 1.2 3.3 3 .7 2.5-1.1 4.7-3.4 5.2-.1.1-.3.1-.6.2zM63.8 0c1.4.1 2.4.7 2.9 2 .5 1.2.3 2.4-.6 3.4-.7.7-1.2 1.5-1.4 2.6-.2 1.5.4 2.7 1.4 3.7.3.3.5.5.8.7.3.3.3.5-.1.7-.6.4-1.1.8-1.7 1.2-1.2.8-1.6 2-1.9 3.2-.1.5-.2.9-.4 1.4-.1.3-.2.3-.5.2-1.9-.7-3.1-2.7-2.7-4.7.2-1.1.8-1.9 1.7-2.7 1.2-1 1.8-2.3 1.5-4-.2-.9-.7-1.6-1.2-2.2C59.9 3.8 60.5 1 63 .1c.1-.1.5-.1.8-.1zM55 7.6c1.8 0 3.1 1.4 3.1 3.2 0 1.7-1.5 3.1-3.2 3.1-1.7 0-3.2-1.5-3.2-3.2.1-1.8 1.7-3.2 3.3-3.1zm0 36.7c-1.6.1-3.2-1.3-3.2-3.1 0-1.7 1.4-3.2 3.2-3.2 1.8.1 3.1 1.5 3.1 3.3 0 1.5-1.4 3.2-3.1 3zm9.9-6.7c-1.4.7-2.8 1.3-4.2 1.9-1.9-1.8-1.5-5.3 1.3-6.6.6 1.9 2 3.2 2.9 4.7zm7.7-30c1.2-.1 2.5.9 2.9 1.9.2.4.2.5-.3.6-1.4.3-2.8.5-4.2.8-.4.1-.8.3-1.2.4-.3.1-.4.1-.4-.3-.2-1.8 1.4-3.5 3.2-3.4zM60.1 28c-1.1-2-.5-4.5 1.5-5.6-.5 1.9-1 3.7-1.5 5.6z"/><path class="st0" d="M81.3 28.6c-1 3.5-4.2 6-8 6-4.5 0-8.3-3.7-8.3-8.3 0-4.5 3.7-8.2 8.3-8.2 1.6 0 3 .4 4.3 1.2l7.8-7.8c-3.3-2.7-7.4-4.3-12-4.3-10.5 0-19.1 8.5-19.1 19.1s8.4 19.3 19 19.3c9.8 0 17.9-7.4 19-16.9l-11-.1z"/></svg>