<svg version="1.1" id="animationlogo" xmlns="http://www.w3.org/2000/svg" xmlns:xlink="http://www.w3.org/1999/xlink" x="0px"
	 y="0px" viewBox="0 0 133.7 130" style="enable-background:new 0 0 133.7 130;" xml:space="preserve">
<style type="text/css">
	#animationlogo .st0{fill:#326DE6;}
	#animationlogo .st1{fill:#FFFFFF;}
	#animationlogo .st2{fill:#C4C8CF;}
	#animationlogo .st3{fill:#CBD0D8;}
	#animationlogo .st4{fill:#D0D0D0;}
</style>
<g id="bootcamp-logo-with-hat">
	<path class="st0" d="M89.3,56.8c-0.5-1.8-1.9-3.2-3.5-4l-33.4-16c-0.9-0.4-1.9-0.5-2.7-0.5c-0.9,0-1.9,0-2.7,0.2L13.6,52.6
		c-1.6,0.8-2.8,2.2-3.3,4l-8.2,36c-0.3,1.9,0.1,3.7,1.2,5.3l23.1,28.6c1.3,1.3,3.2,2.2,5,2.3h36.8c2,0.2,3.8-0.7,5-2.3l23.1-28.6
		c1.1-1.5,1.5-3.4,1.3-5.3L89.3,56.8z"/>
	<path class="st1" d="M84.2,90.8c-0.1,0-0.2,0-0.2-0.1c0-0.1-0.2-0.1-0.4-0.1c-0.4-0.1-0.9-0.1-1.3-0.1c-0.2,0-0.4,0-0.7-0.1h-0.1
		c-1.2-0.1-2.5-0.3-3.7-0.7c-0.3-0.1-0.7-0.4-0.8-0.8c0.1,0,0,0,0,0l-0.9-0.2c0.4-3.2,0.2-6.5-0.4-9.6c-0.8-3.2-2.1-6.2-3.8-9
		l0.7-0.7v-0.1c0-0.3,0.1-0.8,0.3-1c1-0.9,2-1.5,3.1-2.2c0.2-0.1,0.4-0.2,0.7-0.3c0.4-0.2,0.8-0.4,1.2-0.7c0.1-0.1,0.2-0.1,0.3-0.2
		c0.1-0.1,0-0.1,0-0.2c1-0.8,1.2-2.1,0.4-3.1c-0.3-0.4-1-0.8-1.5-0.8c-0.5,0-1.1,0.2-1.5,0.5l-0.1,0.1c-0.1,0.1-0.2,0.2-0.3,0.2
		c-0.3,0.3-0.7,0.7-0.9,1c-0.1,0.2-0.3,0.3-0.4,0.4C73,64.1,72,64.9,71,65.6c-0.2,0.1-0.4,0.2-0.7,0.2c-0.1,0-0.3,0-0.4-0.1h-0.1
		l-0.9,0.5c-0.9-0.9-1.9-1.8-2.7-2.6c-4-3.2-9.1-5.1-14.2-5.7L51.9,57v0.1c-0.3-0.2-0.4-0.5-0.5-0.9c0-1.2,0-2.4,0.2-3.7v-0.1
		c0-0.2,0.1-0.4,0.1-0.7c0.1-0.4,0.1-0.9,0.2-1.3v-0.7c0.1-1.1-0.8-2.2-1.9-2.3c-0.7-0.1-1.3,0.2-1.9,0.8c-0.4,0.4-0.7,1-0.7,1.5
		v0.5c0,0.4,0.1,0.9,0.2,1.3c0.1,0.2,0.1,0.4,0.1,0.7v0.1c0.2,1.2,0.2,2.4,0.2,3.7c-0.1,0.3-0.2,0.7-0.5,0.9v0.2l-0.1,0.9
		c-1.2,0.1-2.4,0.3-3.7,0.5c-5.1,1.1-9.9,3.8-13.5,7.7l-0.7-0.4h-0.1c-0.1,0-0.2,0.1-0.4,0.1c-0.2,0-0.4-0.1-0.7-0.2
		c-1-0.8-2-1.6-2.7-2.5c-0.1-0.2-0.3-0.3-0.4-0.4c-0.3-0.3-0.5-0.7-0.9-1c-0.1-0.1-0.2-0.1-0.3-0.2c-0.1-0.1-0.1-0.1-0.1-0.1
		c-0.4-0.3-1-0.5-1.5-0.5c-0.7,0-1.2,0.2-1.5,0.8c-0.7,1-0.4,2.3,0.4,3.1c0.1,0,0.1,0.1,0.1,0.1s0.2,0.2,0.3,0.2
		c0.3,0.2,0.8,0.4,1.2,0.7c0.2,0.1,0.4,0.2,0.7,0.3c1.1,0.7,2.2,1.3,3.1,2.2c0.2,0.2,0.4,0.7,0.3,1v-0.1l0.7,0.7
		c-0.1,0.2-0.2,0.3-0.3,0.5c-3.4,5.4-4.8,11.7-3.8,17.9l-0.9,0.2c0,0.1-0.1,0.1-0.1,0.1c-0.1,0.3-0.4,0.5-0.8,0.8
		c-1.2,0.3-2.4,0.5-3.7,0.7c-0.2,0-0.4,0-0.7,0.1c-0.4,0-0.9,0.1-1.3,0.1c-0.1,0-0.2,0.1-0.4,0.1c-0.1,0-0.1,0-0.2,0.1
		c-1.2,0.2-2,1.3-1.8,2.5c0.2,1,1.2,1.6,2.2,1.5c0.2,0,0.3,0,0.5-0.1c0.1,0,0.1,0,0.1-0.1c0-0.1,0.3,0,0.4,0
		c0.4-0.1,0.9-0.3,1.2-0.4c0.2-0.1,0.4-0.2,0.7-0.2h0.1c1.2-0.4,2.3-0.8,3.6-1h0.1c0.3,0,0.7,0.1,0.9,0.3c0.1,0,0.1,0.1,0.1,0.1
		l1-0.1c1.6,5,4.7,9.5,9,12.8c1,0.8,1.9,1.4,3,2l-0.5,0.8c0,0.1,0.1,0.1,0.1,0.1c0.2,0.3,0.2,0.8,0.1,1.1c-0.4,1.1-1.1,2.2-1.8,3.2
		v0.1c-0.1,0.2-0.2,0.3-0.4,0.5c-0.2,0.2-0.4,0.7-0.8,1.1c-0.1,0.1-0.1,0.2-0.2,0.3c0,0,0,0.1-0.1,0.1c-0.5,1.1-0.1,2.4,0.9,3
		c0.2,0.1,0.5,0.2,0.8,0.2c0.9,0,1.6-0.5,2.1-1.3c0,0,0-0.1,0.1-0.1c0-0.1,0.1-0.2,0.2-0.3c0.1-0.4,0.3-0.8,0.4-1.2l0.2-0.7
		c0.3-1.2,0.9-2.3,1.4-3.4c0.2-0.3,0.5-0.5,0.9-0.7c0.1,0,0.1,0,0.1-0.1l0.4-0.9c3.1,1.2,6.2,1.8,9.5,1.8c2,0,3.9-0.2,5.9-0.8
		c1.2-0.2,2.4-0.7,3.5-1l0.4,0.8c0.1,0,0.1,0,0.1,0.1c0.3,0.1,0.7,0.3,0.9,0.7c0.5,1.1,1.1,2.2,1.4,3.4v0.1l0.2,0.7
		c0.1,0.4,0.2,0.9,0.4,1.2c0.1,0.1,0.1,0.2,0.2,0.3c0,0,0,0.1,0.1,0.1c0.4,0.8,1.2,1.3,2.1,1.3c0.3,0,0.5-0.1,0.9-0.2
		c0.4-0.2,0.9-0.7,1-1.2c0.1-0.5,0.1-1.1-0.1-1.6c0-0.1-0.1-0.1-0.1-0.1c0-0.1-0.1-0.2-0.2-0.3c-0.2-0.4-0.4-0.8-0.8-1.1
		c-0.1-0.2-0.2-0.3-0.4-0.5V113c-0.8-1-1.3-2.1-1.8-3.2c-0.1-0.3-0.1-0.8,0.1-1.1c0-0.1,0.1-0.1,0.1-0.1l-0.3-0.9
		c5.6-3.4,9.9-8.6,11.8-14.9l0.9,0.1c0.1,0,0.1-0.1,0.1-0.1c0.2-0.2,0.5-0.3,0.9-0.3h0.1c1.2,0.2,2.4,0.5,3.5,1H81
		c0.2,0.1,0.4,0.2,0.7,0.2c0.4,0.2,0.8,0.4,1.2,0.5c0.1,0,0.2,0.1,0.4,0.1c0.1,0,0.1,0,0.2,0.1c0.2,0.1,0.3,0.1,0.5,0.1
		c1,0,1.9-0.7,2.2-1.5C86.1,91.9,85.2,91,84.2,90.8z M52.6,87.4l-3,1.4l-3-1.4l-0.8-3.2l2.1-2.6h3.3l2.1,2.6L52.6,87.4z M70.5,80.3
		c0.5,2.3,0.7,4.6,0.4,6.9l-10.4-3C59.5,84,59,83,59.2,82c0.1-0.3,0.2-0.5,0.4-0.8l8.2-7.4C69,75.8,69.9,78,70.5,80.3z M64.5,69.7
		l-9,6.3c-0.8,0.4-1.9,0.3-2.4-0.4c-0.2-0.2-0.3-0.4-0.3-0.8l-0.7-11.1C57,64.4,61.3,66.5,64.5,69.7z M44.7,64.2l2.2-0.4l-0.5,10.9
		c0,1-0.9,1.8-1.9,1.8c-0.3,0-0.5-0.1-0.9-0.2l-9.1-6.5C37.4,67,40.9,65,44.7,64.2z M31.4,73.8l8.1,7.2c0.8,0.7,0.9,1.8,0.2,2.5
		c-0.2,0.3-0.4,0.4-0.9,0.5l-10.6,3.1C27.9,82.6,29,77.8,31.4,73.8z M29.5,92.3l10.8-1.9c0.9,0,1.8,0.5,1.9,1.4
		c0.1,0.3,0.1,0.8-0.1,1.1L38,103C34.1,100.5,31.1,96.7,29.5,92.3z M54.4,105.9c-1.5,0.3-3.1,0.5-4.7,0.5c-2.3,0-4.7-0.4-6.9-1.1
		l5.4-9.7c0.5-0.7,1.4-0.9,2.2-0.4c0.3,0.2,0.5,0.4,0.9,0.8l5.3,9.5C55.8,105.5,55.1,105.6,54.4,105.9z M67.7,96.3
		c-1.6,2.6-3.9,4.9-6.6,6.6l-4.3-10.3c-0.2-0.9,0.2-1.8,1-2.1c0.3-0.1,0.7-0.2,1-0.2l10.9,1.9C69.3,93.7,68.6,95.1,67.7,96.3z"/>
</g>
<g id="hat">
	<path class="st2" d="M2.8,19l-1,2.4l7.2-4.1L2.8,19z"/>
	<path class="st3" d="M9.1,17.3l-7.2,4.1l5.1-1.3L9.1,17.3z"/>
	<path class="st3" d="M14.1,18.2l0.7-2.5l-7.9,4.4L14.1,18.2z"/>
	<path class="st3" d="M22.4,16l-2.3-1.8l-6,3.9L22.4,16z"/>
	<path class="st3" d="M26.7,12.4l-6.6,1.9l2.3,1.8L26.7,12.4z"/>
	<path class="st3" d="M29.3,14.4l-2.6-1.9L22.4,16L29.3,14.4z"/>
	<path class="st2" d="M31.3,11.2l-4.7,1.2l2.6,1.9L31.3,11.2z"/>
	<path class="st3" d="M41.9,8.1l-10.6,3.1l-2.1,3.1L41.9,8.1z"/>
	<path class="st3" d="M38.7,11.9l3.2-3.8l-12.6,6.3L38.7,11.9z"/>
	<path class="st3" d="M52.2,5.5L41.9,8.1l-3.2,3.8L52.2,5.5z"/>
	<path class="st2" d="M98.1,29.1L94.9,23l-11-4.4L98.1,29.1z"/>
	<path class="st2" d="M94.9,23l-8.2-6.1l-2.8,1.7L94.9,23z"/>
	<path class="st3" d="M52.1,8.4l0-2.9l-13.4,6.4L52.1,8.4z"/>
	<path class="st2" d="M83.9,18.6l2.8-1.7l-10.2-5.1L83.9,18.6z"/>
	<path class="st2" d="M83.9,18.6l-7.4-6.9l-2.5-0.2L83.9,18.6z"/>
	<path class="st2" d="M77.1,9.6L66.1,1.7l10.3,10.1L77.1,9.6z"/>
	<path class="st3" d="M60.5,3.1l-8.4,2.4l13-0.6L60.5,3.1z"/>
	<path class="st2" d="M76.5,11.8L65.2,4.9l8.8,6.6L76.5,11.8z"/>
	<path class="st3" d="M66.1,1.7l-5.6,1.4l4.6,1.9L66.1,1.7z"/>
	<path class="st2" d="M76.5,11.8L66.1,1.7l-1,3.2L76.5,11.8z"/>
	<path class="st3" d="M65.2,4.9l-13,0.6l0,2.9L65.2,4.9z"/>
	<path class="st3" d="M14.8,15.7l-5.7,1.6l-2.2,2.8L14.8,15.7z"/>
	<path class="st2" d="M131.7,53.8l0.5-2.9l-6.6-4.2L131.7,53.8z"/>
	<path class="st2" d="M125.4,49.1l6.3,4.6l-6.1-7.1L125.4,49.1z"/>
	<path class="st2" d="M132.2,50.9l-11.1-8.1l4.4,3.9L132.2,50.9z"/>
	<path class="st2" d="M120.7,45.6l4.7,3.6l0.2-2.4L120.7,45.6z"/>
	<path class="st2" d="M125.5,46.7l-4.4-3.9l-0.4,2.7L125.5,46.7z"/>
	<path class="st2" d="M120.7,45.6l0.4-2.7l-6.1-1.3L120.7,45.6z"/>
	<path class="st2" d="M121.1,42.8l-10.9-8.2l4.7,6.9L121.1,42.8z"/>
	<path class="st2" d="M115,41.6l-4.7-6.9l-3.9,0.5L115,41.6z"/>
	<path class="st2" d="M106.4,35.1l3.9-0.5l-3.7-2.8l-0.6,2.1L106.4,35.1z"/>
	<path class="st2" d="M104.9,30.6L104.9,30.6l-0.1-0.1l-3.9-2.7l-2.8,1.3L104.9,30.6z"/>
	<path class="st2" d="M104.8,31.1l0.1-0.5l-6.8-1.5l6.1,4.5L104.8,31.1z"/>
	<path class="st2" d="M106.4,35.1l-0.4-1.3l0,0l-0.2,0.9L106.4,35.1z"/>
	<path class="st2" d="M100.9,27.8L94.9,23l3.3,6.1L100.9,27.8z"/>
	<path class="st3" d="M20.1,14.3l-5.3,1.4l-0.7,2.5L20.1,14.3z"/>
	<path class="st2" d="M86.6,16.9l-9.6-7.3l-0.6,2.2L86.6,16.9z"/>
	<path class="st0" d="M14.7,28.8l6.1,3.3l1.9-1.3L14.7,28.8z"/>
	<path class="st0" d="M20.7,32.1l5.3,3.2l-3.3-4.4L20.7,32.1z"/>
	<path class="st0" d="M29.8,37.3l1.3-3.9L26,35.2L29.8,37.3z"/>
	<path class="st0" d="M26,35.2l5.1-1.7l0.1-0.2l-8.5-2.5L26,35.2z"/>
	<path class="st0" d="M22.7,30.8l8.5,2.5l0-0.1l-6.7-5.7L22.7,30.8z"/>
	<path class="st0" d="M31.2,33.2l0.7-2l-7.3-3.7L31.2,33.2z"/>
	<path class="st0" d="M17.3,25.1l-2.6,3.7l8,2L17.3,25.1z"/>
	<path class="st0" d="M22.7,30.8l1.9-3.3l-7.3-2.4L22.7,30.8z"/>
	<path class="st0" d="M1.8,21.4l12.8,7.4l2.6-3.7L1.8,21.4z"/>
	<path class="st0" d="M6.9,20.1l-5.1,1.3l15.5,3.8L6.9,20.1z"/>
	<path class="st0" d="M24.6,27.5l7.3,3.7l0.7-2.2l-2.2-2.1L24.6,27.5z"/>
	<path class="st0" d="M32.6,29l0.3-0.9l-2.5-1.2L32.6,29z"/>
	<path class="st0" d="M32.9,28.1l0.3-0.8l0.1-0.3l0.1-0.3l-3,0.2L32.9,28.1z"/>
	<path class="st0" d="M6.9,20.1l10.4,5l-3.2-6.9L6.9,20.1z"/>
	<path class="st0" d="M24.6,27.5l5.8-0.6l-6-2.7L24.6,27.5z"/>
	<path class="st0" d="M14.1,18.2l3.2,6.9l7.1-0.9L14.1,18.2z"/>
	<path class="st0" d="M17.3,25.1l7.3,2.4l-0.1-3.3L17.3,25.1z"/>
	<path class="st0" d="M33.9,25.5l0.4-0.7l0.9-0.7l-6-3.5L33.9,25.5z"/>
	<path class="st0" d="M30.4,26.9l3-0.2l0.3-0.9l0.2-0.4l-4.8-4.9L30.4,26.9z"/>
	<path class="st0" d="M30.4,26.9l-1.3-6.3l-4.7,3.6L30.4,26.9z"/>
	<path class="st0" d="M22.4,16l-8.3,2.2l10.3,6L22.4,16z"/>
	<path class="st0" d="M24.4,24.2l4.7-3.6L22.4,16L24.4,24.2z"/>
	<path class="st0" d="M29.1,20.6l6,3.5l0.3-0.2l2-1.1l1-0.3l-0.6-1.8L29.1,20.6z"/>
	<path class="st0" d="M22.4,16l6.7,4.6l0.2-6.3L22.4,16z"/>
	<path class="st0" d="M29.1,20.6l8.7,0l-8.6-6.2L29.1,20.6z"/>
	<path class="st0" d="M37.9,20.6l11.9-2l-8.3-2.5L37.9,20.6z"/>
	<path class="st0" d="M29.3,14.4l8.6,6.2l0.9-8.7L29.3,14.4z"/>
	<path class="st0" d="M38.7,11.9l-0.9,8.7l3.6-4.5L38.7,11.9z"/>
	<path class="st0" d="M49.7,18.6l1.8,2.6l0.5,0l7,0.8l2.9,0.6l1.9-1.3L49.7,18.6z"/>
	<path class="st0" d="M49.7,18.6l14.1,2.8L51.5,15L49.7,18.6z"/>
	<path class="st0" d="M51.5,15l-12.8-3.1l2.7,4.2L51.5,15z"/>
	<path class="st0" d="M41.4,16.1l8.3,2.5l1.8-3.6L41.4,16.1z"/>
	<path class="st0" d="M51.5,15l12.3,6.4l-3.3-8.6L51.5,15z"/>
	<path class="st0" d="M60.5,12.8l-8.4-4.4L51.5,15L60.5,12.8z"/>
	<path class="st0" d="M52.1,8.4l-13.4,3.5L51.5,15L52.1,8.4z"/>
	<path class="st0" d="M65.2,4.9l-13,3.5l8.4,4.4L65.2,4.9z"/>
	<path class="st0" d="M38.5,22.4l1.1-0.3l-1.7-1.5L38.5,22.4z"/>
	<path class="st0" d="M39.5,22.1l1.2-0.3l0.3,0l-3.1-1.1L39.5,22.1z"/>
	<path class="st0" d="M37.9,20.6l3.1,1.1l2.1-0.4l2.7-0.2l3,0l2.7,0.1l-1.8-2.6L37.9,20.6z"/>
	<path class="st0" d="M61.9,22.7l2,0.4l1.1,0.3l-1.2-2L61.9,22.7z"/>
	<path class="st0" d="M77.1,27.3l2.1,0.8l3.1,1.5l1.3-4.2L77.1,27.3z"/>
	<path class="st0" d="M63.8,21.4l1.2,2l5.1,1.4l1.2,0.4l1.6-3.1L63.8,21.4z"/>
	<path class="st0" d="M72.8,22.1l-1.6,3.1l2.4,0.8l3.4,1.3l6.5-1.9L72.8,22.1z"/>
	<path class="st0" d="M63.8,21.4l9.1,0.7l-1.2-4.4L63.8,21.4z"/>
	<path class="st0" d="M60.5,12.8l3.3,8.6l7.8-3.7L60.5,12.8z"/>
	<path class="st0" d="M72.8,22.1l10.7,3.3l0.3-6.7L72.8,22.1z"/>
	<path class="st0" d="M71.6,17.7l1.2,4.4l11-3.5L71.6,17.7z"/>
	<path class="st0" d="M83.9,18.6l-0.3,6.7l14.5,3.7L83.9,18.6z"/>
	<path class="st0" d="M60.5,12.8l11.1,4.9l2.3-6.2L60.5,12.8z"/>
	<path class="st0" d="M71.6,17.7l12.3,0.9l-9.9-7.1L71.6,17.7z"/>
	<path class="st0" d="M73.9,11.5l-8.8-6.6l-4.7,7.9L73.9,11.5z"/>
	<path class="st0" d="M83.6,25.4l-1.3,4.2l1.3,0.6l1.7,1.1l6.7,1.1L83.6,25.4z"/>
	<path class="st0" d="M83.6,25.4l8.4,7.1l6.2-3.3L83.6,25.4z"/>
	<path class="st0" d="M100.5,55l7.3-0.5l0-3.2L100.5,55z"/>
	<path class="st0" d="M107.9,54.5l7.1-0.1l-7.2-3.1L107.9,54.5z"/>
	<path class="st0" d="M102.5,47.4l-0.2,0.9l-0.6,1.9l-1,3.9l-0.2,0.8l0,0.1l7.3-3.7L102.5,47.4z"/>
	<path class="st0" d="M107.8,51.3l7.2,3.1l-0.5-5.5L107.8,51.3z"/>
	<path class="st0" d="M115,54.4L123,54l-8.4-5.1L115,54.4z"/>
	<path class="st0" d="M107.8,51.3l6.7-2.4l-9.4-5.1L107.8,51.3z"/>
	<path class="st0" d="M103.4,44.3l-0.2,0.6l-0.7,2.6l5.3,3.9l-2.7-7.5L103.4,44.3z"/>
	<path class="st0" d="M125.4,49.1L123,54l8.7-0.3L125.4,49.1z"/>
	<path class="st0" d="M114.5,48.9L123,54l2.4-4.9L114.5,48.9z"/>
	<path class="st0" d="M114.5,48.9l10.8,0.2l-4.7-3.6L114.5,48.9z"/>
	<path class="st0" d="M103.7,42.9l-0.4,1.4l1.8-0.5l-1.1-2.1L103.7,42.9z"/>
	<path class="st0" d="M105.1,43.8l9.4,5.1l0.5-7.4L105.1,43.8z"/>
	<path class="st0" d="M115,41.6l-0.5,7.4l6.2-3.4L115,41.6z"/>
	<path class="st0" d="M104.3,40.5l-0.3,1.2l1.1,2.1l9.9-2.2l-10.4-2.1L104.3,40.5z"/>
	<path class="st0" d="M105.2,37.1l-0.6,2.3l10.4,2.1l-8.7-6.4l-0.9,0.9L105.2,37.1z"/>
	<path class="st0" d="M85.3,31.3l3.5,2.1l3.2,2.6l-0.1-3.6L85.3,31.3z"/>
	<path class="st0" d="M91.9,32.4l4.6,8.4l6-1.8L91.9,32.4z"/>
	<path class="st0" d="M91.9,32.4l0.1,3.6l2.1,2.1l1.2,2l0.4,0.9l0.8-0.4L91.9,32.4z"/>
	<path class="st0" d="M102.9,38.6l0.1-0.4l0.3-1.1l0.5-1.8l0.2-0.7l-12-2.2l10.6,6.6L102.9,38.6z"/>
	<path class="st0" d="M105.5,36l0.9-0.9l-0.6-0.1L105.5,36z"/>
	<path class="st0" d="M105.7,35l0.6,0.1l-0.6-0.4L105.7,35z"/>
	<path class="st0" d="M104.2,33.8l0-0.2l-6.1-4.5l-6.2,3.3l12,2.2L104.2,33.8z"/>
	<path class="st0" d="M98.7,54.4L94,52.8l-0.6,2.5l5-0.2l0.1-0.4L98.7,54.4z"/>
	<path class="st0" d="M99.1,52.7l0.9-3.5l-0.3-4l-5.2,5.2L94,52.8l4.7,1.6L99.1,52.7z"/>
	<path class="st0" d="M100.9,46.2l-1.2-0.9l0.3,4l0.1-0.4L100.9,46.2z"/>
	<path class="st0" d="M96,44.1l-1.5,6.4l5.2-5.2L96,44.1z"/>
	<path class="st0" d="M101.2,44.9L101.2,44.9l-1.6,0.4l1.2,0.9L101.2,44.9z"/>
	<path class="st0" d="M96.6,40.8l-0.8,0.4l0.5,1.4l-0.2,1.2L96,44.1l3.7,1.2L96.6,40.8z"/>
	<path class="st0" d="M102,42.3l0.5-1.9l0.3-1.1l-0.2-0.4l-2.9,6.2l1.6-0.4L102,42.3z"/>
	<path class="st0" d="M96.6,40.8l3.1,4.4l2.9-6.2L96.6,40.8z"/>
	<path class="st0" d="M102.6,39l0.2,0.4l0.1-0.3L102.6,39z"/>
	<path class="st0" d="M102.9,38.6l-0.4,0.4l0.3,0.1L102.9,38.6z"/>
	<path class="st0" d="M95.4,58.4l0.3,1.2l0.5-0.1L95.4,58.4z"/>
	<path class="st0" d="M96.2,60.1l-0.1-0.6l-0.5,0.1l0.4,0.8L96.2,60.1L96.2,60.1z"/>
	<path class="st0" d="M96.2,56.8l-0.8,1.5l1-0.9L96.2,56.8z"/>
	<path class="st0" d="M96.5,57.5l-1,0.9l0.7,1.2L96.5,57.5z"/>
	<path class="st0" d="M97.7,56l-1.5,0.8l0.3,0.7L97.7,56z"/>
	<path class="st0" d="M96.3,59.8l-0.2-0.3l0.1,0.6l0.1-0.2L96.3,59.8z"/>
	<path class="st0" d="M100.8,60.6l0.4-1.1l-1.3,1.7L100.8,60.6z"/>
	<path class="st0" d="M101.3,59.1l-0.3-1.8l0.2,2.2L101.3,59.1z"/>
	<path class="st0" d="M99.3,56.1L99.3,56.1l-0.5,0l-0.4,0l-0.2,0l-0.5,0l0.3,0.7L99.3,56.1z"/>
	<path class="st0" d="M98,56.7L97.7,56l-1.3,1.5L98,56.7z"/>
	<path class="st0" d="M101,57.3l-0.9-0.6l-0.1,0l-0.2-0.1l-0.3-0.2l-0.3-0.2l1.3,1.4L101,57.3z"/>
	<path class="st0" d="M96.3,59.8L96.3,59.8L96.3,59.8l0.1-0.2l-0.3-0.1L96.3,59.8z"/>
	<path class="st0" d="M97.6,58.8l0-0.9l-1.5,1.6l0.3,0.1l0.1-0.1l0.4-0.4L97.6,58.8L97.6,58.8z"/>
	<path class="st0" d="M98,56.7l-1.6,0.8l1.2,0.4L98,56.7z"/>
	<path class="st0" d="M96.5,57.5l-0.3,2l1.5-1.6L96.5,57.5z"/>
	<path class="st0" d="M101.2,59.5l-0.2-2.2l-0.6,1.9L101.2,59.5z"/>
	<path class="st0" d="M99.9,61.2l1.3-1.7l-0.8-0.3L99.9,61.2z"/>
	<path class="st0" d="M100.4,59.2l0.6-1.9l-0.5,0.2L100.4,59.2z"/>
	<path class="st0" d="M99.4,59.7l0.1,0.2l0.1,0.3l-0.1,0.7l0.3,0.3l0.4-2L99.4,59.7z"/>
	<path class="st0" d="M99.6,61.2l0.4,0l-0.3-0.3L99.6,61.2z"/>
	<path class="st0" d="M100.5,57.5l-1.3-1.4l0,1.8L100.5,57.5z"/>
	<path class="st0" d="M99.3,57.9l0-1.8L98,56.7L99.3,57.9z"/>
	<path class="st0" d="M99.3,57.9L98,56.7l-0.4,1.2L99.3,57.9z"/>
	<path class="st0" d="M100.5,57.5l-1.3,0.4l1.1,1.3L100.5,57.5z"/>
	<path class="st0" d="M98.6,59l0.4,0.2l0.3-1.3l-0.8,1L98.6,59z"/>
	<path class="st0" d="M99,59.2l0.4,0.3l0.1,0.1l0.9-0.5l-1.1-1.3L99,59.2L99,59.2z"/>
	<path class="st0" d="M97.6,58.8l0.3,0l0.2,0l0.3,0.1l0.8-1l-1.6,0L97.6,58.8z"/>
	<path class="st0" d="M99.6,61.3l0.4-0.1L99.6,61.3L99.6,61.3z"/>
	<path class="st4" d="M96.3,59.9L96.3,59.9l0-0.1L96.3,59.9z"/>
	<path class="st4" d="M91.9,82.4l-0.2,0.7l-0.1,0.5L91.9,82.4L91.9,82.4z"/>
	<path class="st4" d="M93,84l0.1-0.2l0,0L93,84z"/>
	<path class="st4" d="M91.9,82.4l-0.4,1.2l0.4,0.3l0.2-1.4L91.9,82.4z"/>
	<path class="st4" d="M92.6,82.5L92,83.9l1-1.2L92.6,82.5z"/>
	<path class="st4" d="M92.9,83.7l0.2-0.9L93,82.7l-1,1.2l1,0.1l0.1-0.2L92.9,83.7z"/>
	<path class="st4" d="M92.3,82.4l0.1-0.2L92.3,82.4l-0.2,0.1l0,0L92,83.9l0.6-1.4L92.3,82.4z"/>
	<path class="st4" d="M90,83L90,83L90,83L90,83z"/>
	<path class="st4" d="M90.8,82.1l0.1-0.3l-0.4,0.8l-0.1-0.1L90.2,83L90,83l0,0.1l0.9,0.5l0.2-1.4L90.8,82.1z"/>
	<path class="st4" d="M91.4,82.3l-0.6,1.3l1-1.2L91.4,82.3z"/>
	<path class="st4" d="M91.8,82.4l-1,1.2l0.7,0.1l0.2-0.5l0.2-0.7L91.8,82.4z"/>
	<path class="st4" d="M91,82.1l-0.2,1.4l0.6-1.3L91,82.1z"/>
	<path class="st4" d="M90.2,83l-0.4-0.4L89,82.9l1,0.1l0,0L90.2,83z"/>
	<path class="st4" d="M89.9,82.3l-0.1,0.2l0,0.2l0.3-0.3L89.9,82.3z"/>
	<path class="st4" d="M88.9,82.5l0.1,0.4l0.8-0.2L88.9,82.5z"/>
	<path class="st4" d="M89.8,82.4l-0.1,0.2l-1-0.3l0.2,0.2l0.9,0.1L89.8,82.4z"/>
	<path class="st4" d="M89.8,82.6l0.4,0.4l0.2-0.5l-0.3-0.2L89.8,82.6z"/>
	<path class="st4" d="M93,83.8L93,83.8l0.2,0.2l1,0.4l-1.3-0.7L93,83.8z"/>
	<path class="st4" d="M93.3,82.9l-0.2-0.1l-0.2,0.9L93.3,82.9L93.3,82.9z"/>
	<path class="st4" d="M94.2,84L94.2,84l-1.2-0.3l1.3,0.7L94.2,84L94.2,84z"/>
	<path class="st4" d="M93.7,82.9l0,0.1L93.7,82.9L93.7,82.9z"/>
	<path class="st4" d="M94.3,84.4l0.1-0.4l-0.1,0L94.3,84.4z"/>
	<path class="st4" d="M93.9,83.8l0-0.2l-0.1,0l-0.1-0.5l0-0.1l0-0.1l-0.3,0l-0.5,0.8l1.3,0.2L93.9,83.8z"/>
	<path class="st4" d="M96.3,59.9l0-0.1l0-0.1l0,0.1L96.3,59.9L96.3,59.9z"/>
	<path class="st4" d="M96.3,59.9l-0.1,0.2l0,0L96.3,59.9L96.3,59.9L96.3,59.9z"/>
	<path class="st4" d="M94.9,63.8l0,0.1l0.3-0.8l0.1-0.4L94.9,63.8z"/>
	<path class="st4" d="M94.7,64.4l0.2-0.5l0-0.1l-0.7,1.8l0.1-0.1L94.7,64.4z"/>
	<path class="st4" d="M94.1,66.2l0.2-0.5l0-0.2l-0.9,2.6l0.3-0.5L94.1,66.2z"/>
	<path class="st4" d="M94.3,65.5l-0.1,0.1l0,0.2L94.3,65.5z"/>
	<path class="st4" d="M93.5,68l0.1-0.4l-0.3,0.5l0.1,0L93.5,68z"/>
	<path class="st4" d="M93.4,68.2L93.4,68.2l-0.6,1.2l0.2-0.3L93.4,68.2z"/>
	<path class="st4" d="M92.9,69.5l-0.1,0l-0.4,1.1l0.3-0.3L92.9,69.5z"/>
	<path class="st4" d="M93.1,69.1l-0.2,0.3l0.1,0L93.1,69.1z"/>
	<path class="st4" d="M92.6,70.2l-0.3,0.3l-0.4,1.1l0.4-0.6L92.6,70.2z"/>
	<path class="st4" d="M92.3,70.9l-0.4,0.6l0.1,0L92.3,70.9z"/>
	<path class="st4" d="M92.1,71.6l-0.1,0l-0.5,1.2l0.4-0.5L92.1,71.6z"/>
	<path class="st4" d="M91.8,72.3l-0.4,0.5l0.2,0L91.8,72.3z"/>
	<path class="st4" d="M91.7,72.7l-0.2,0l0,0.5L91.7,72.7z"/>
	<path class="st4" d="M91,74.5l0.5-1.3l0-0.5l-1,3l0.3-0.6L91,74.5z"/>
	<path class="st4" d="M90.6,75.7l-0.1,0L90,77l0.4-0.5L90.6,75.7z"/>
	<path class="st4" d="M90.8,75.1l-0.3,0.6l0.1,0L90.8,75.1z"/>
	<path class="st4" d="M90.1,76.9l0.2-0.3l0-0.1L90,77L90.1,76.9L90.1,76.9z"/>
	<path class="st4" d="M90.1,77L90.1,77l-0.8,1.8l0.2-0.3L90.1,77z"/>
	<path class="st4" d="M89.5,78.5l-0.2,0.3l0.1,0L89.5,78.5z"/>
	<path class="st4" d="M89.3,79l0.1-0.1l-0.1,0l-0.6,1.5l0.3-0.4L89.3,79z"/>
	<path class="st4" d="M88.8,80.6l0.1-0.3l-0.2,0l-0.6,1.9l0.2-0.4L88.8,80.6z"/>
	<path class="st4" d="M89,79.8l-0.3,0.4l0.2,0L89,79.8z"/>
	<path class="st4" d="M89,82.1l-0.9,0l0.6,0.2l1,0.3L89,82.1z"/>
	<path class="st4" d="M88.3,81.8l-0.2,0.4l0.9,0L88.3,81.8z"/>
	<path class="st4" d="M94.4,84.1l0.2,0.1l0.8,0.2l-0.8-0.3L94.4,84.1z"/>
	<path class="st4" d="M94.2,84L94.2,84l-0.3-0.2L94.2,84z"/>
	<path class="st4" d="M94.6,84.1l0.8,0.3l-0.3-0.3L94.6,84.1z"/>
	<path class="st4" d="M94.2,83.9l0-0.1l-0.3,0L94.2,83.9z"/>
	<path class="st4" d="M95.1,84.1l0.3,0.3l0.1-0.4L95.1,84.1L95.1,84.1z"/>
	<path class="st4" d="M93.9,83.8l0.3,0l0-0.2l-0.3,0L93.9,83.8z"/>
	<path class="st4" d="M96.9,59.1l-0.4,0.4l-0.1,0.1l-0.1,0.2L96.3,60l-0.1,0.2l-0.1,0.3l-0.3,0.7L96.9,59.1z"/>
	<path class="st4" d="M96.3,61l-0.5,0.1l-0.5,1.5l-0.1,0.4L96.3,61z"/>
	<path class="st4" d="M96.5,60.3l0.4-1.2l-1.1,2l0.5-0.1L96.5,60.3z"/>
	<path class="st4" d="M96.3,61l-1.1,2.1l0.4-0.1L96.3,61z"/>
	<path class="st4" d="M95.2,63.1l-0.3,0.8l-0.2,0.5l0.8-1.4L95.2,63.1z"/>
	<path class="st4" d="M95.6,63l0.1-0.2l0.6-1.7l-0.8,2L95.6,63z"/>
	<path class="st4" d="M95.5,63l-0.8,1.4l0.3,0.2L95.5,63z"/>
	<path class="st4" d="M94.7,64.4l-0.4,1.1l-0.1,0.3l-0.2,0.5l1-1.7L94.7,64.4z"/>
	<path class="st4" d="M95.6,63l-0.1,0L95,64.6l0,0.1L95.6,63z"/>
	<path class="st4" d="M94.5,66.4l0.6-1.7l0-0.1l-0.9,2.6l0.3-0.3L94.5,66.4z"/>
	<path class="st4" d="M94.1,66.2l-0.5,1.4L93.5,68l0.7-0.9L94.1,66.2z"/>
	<path class="st4" d="M95,64.6l-1,1.7l0.1,0.9L95,64.6z"/>
	<path class="st4" d="M94.1,67.2l0.1,0.1l0.1-0.4L94.1,67.2z"/>
	<path class="st4" d="M94.3,67.2l-0.1-0.1L93.5,68l0.6-0.3L94.3,67.2z"/>
	<path class="st4" d="M94.1,67.7L93.5,68l0.4,0.4L94.1,67.7z"/>
	<path class="st4" d="M93.5,68l-0.1,0.2l-0.3,0.9l-0.1,0.4l0.2,0.3L93.5,68z"/>
	<path class="st4" d="M92.9,69.5l-0.3,0.7l-0.3,0.7l-0.3,0.7l1.1-1.8L92.9,69.5z"/>
	<path class="st4" d="M93.6,69.4l0.3-1l0,0L93.5,68l-0.3,1.7L93.6,69.4z"/>
	<path class="st4" d="M93.2,69.8l-1.1,1.8l0.4-0.1L93.2,69.8z"/>
	<path class="st4" d="M92.1,71.6l-0.3,0.7l-0.1,0.4l-0.2,0.6l1-1.8L92.1,71.6z"/>
	<path class="st4" d="M93.4,69.7l0.1-0.3l-0.4,0.4l0,0.6L93.4,69.7z"/>
	<path class="st4" d="M93.2,70.4l0-0.6l-0.7,1.7l0.3,0L93.2,70.4z"/>
	<path class="st4" d="M92.7,71.5l-0.3,0L92,72.7l0.4-0.3L92.7,71.5z"/>
	<path class="st4" d="M91.5,73.3L91,74.5l1-1.8L91.5,73.3z"/>
	<path class="st4" d="M92.5,71.5l-1,1.8l0.6-0.6L92.5,71.5z"/>
	<path class="st4" d="M92.4,72.3L92,72.7l0.2,0L92.4,72.3z"/>
	<path class="st4" d="M91,74.5l-0.2,0.6l-0.2,0.6l-0.2,0.7l0,0.1l0.8-1.3L91,74.5z"/>
	<path class="st4" d="M92,72.7l-1,1.8l0.1,0.8L92,72.7z"/>
	<path class="st4" d="M92.1,73.1l0.1-0.4l-0.2,0l0,1L92.1,73.1z"/>
	<path class="st4" d="M92,73.7L92,73.7l0-1.1l-0.9,2.6l0.4-0.2L92,73.7z"/>
	<path class="st4" d="M91.5,75.1l-0.4,0.2l0.2,0.4L91.5,75.1z"/>
	<path class="st4" d="M91.1,75.3l-0.8,1.3l-0.2,0.3l0.4,0L91.1,75.3z"/>
	<path class="st4" d="M91.4,75.7l-0.2-0.4l-0.6,1.6l0.6-0.5L91.4,75.7z"/>
	<path class="st4" d="M90.1,76.9L90.1,76.9l-0.6,1.6l-0.1,0.3L89.3,79l1.2-2L90.1,76.9z"/>
	<path class="st4" d="M91,77l0.1-0.5l0-0.1l-0.6,0.5L91,77L91,77z"/>
	<path class="st4" d="M90.5,76.9l-1.2,2l0.5-0.3L90.5,76.9z"/>
	<path class="st4" d="M90.9,77.1l-0.4-0.2l-0.7,1.8l0.9-1L90.9,77.1z"/>
	<path class="st4" d="M89.8,78.7l0.5,0.1l0.4-1.1L89.8,78.7z"/>
	<path class="st4" d="M89.3,79L89,79.8l-0.1,0.4l-0.1,0.3l1.1-1.9L89.3,79z"/>
	<path class="st4" d="M90.2,79.1l0.1-0.3l-0.5-0.1l-1.1,1.9l1.3-1.3L90.2,79.1z"/>
	<path class="st4" d="M88.3,81.8l0.7,0.3l0.2-0.3L88.3,81.8z"/>
	<path class="st4" d="M89.3,81.6L89.3,81.6l0.5-1.4l0.3-1l-1.3,1.3l0.4,1.2L89.3,81.6z"/>
	<path class="st4" d="M89.6,82.1l-0.3-0.4l-0.1,0.1l0.5,0.7l0.1-0.2l0.1-0.2L89.6,82.1z"/>
	<path class="st4" d="M88.8,80.6l-0.5,1.2l0.9,0.1L88.8,80.6z"/>
	<path class="st4" d="M89.3,81.7L89.3,81.7l-0.1,0.1L89.3,81.7z"/>
	<path class="st4" d="M99.7,60.2l-0.1-0.3l-0.1,1.9l0.1,0.4L99.7,60.2z"/>
	<path class="st4" d="M99.1,61.7l0.5-1.8l-0.1-0.2l-0.1-0.1L99.1,61.7z"/>
	<path class="st4" d="M99.4,61.9l-0.2,0.7l0.3-0.5l-0.1-0.4L99.4,61.9z"/>
	<path class="st4" d="M99,63.9l0.2,0.3l0.4-2.1l-0.3,0.5L99,63.9z"/>
	<path class="st4" d="M98.9,64l-0.2,1l0.4-0.8L98.9,64L98.9,64z"/>
	<path class="st4" d="M98.6,65.5l0.3,0l0.3-1.4l-0.4,0.8L98.6,65.5z"/>
	<path class="st4" d="M98.6,65.6l-0.3,1.3l0.6-1.4L98.6,65.6L98.6,65.6z"/>
	<path class="st4" d="M98.2,67.4l0.3,0.1l0.4-2l-0.6,1.4L98.2,67.4z"/>
	<path class="st4" d="M98.1,67.8l0,1.6l0.3-1.9l-0.3-0.1L98.1,67.8z"/>
	<path class="st4" d="M97.6,68.9l0,0.6l0.1,0l0.2-1.2l-0.3,0.5L97.6,68.9z"/>
	<path class="st4" d="M98,68.2l-0.1,0.1l-0.2,1.2l0.4-0.2l0-1.6L98,68.2z"/>
	<path class="st4" d="M97.6,69.7l0.1-0.2l-0.1,0V69.7z"/>
	<path class="st4" d="M97.6,70.5l0,0.3l0.6-1.4l-0.4,0.2L97.6,70.5z"/>
	<path class="st4" d="M97.6,70.5l0.2-1l-0.1,0.2L97.6,70.5z"/>
	<path class="st4" d="M97.5,70.9l0.4,0l0.2-1.5l-0.6,1.4L97.5,70.9z"/>
	<path class="st4" d="M97.5,70.9l0,0.2l0.1,1.9l0.3-2.2L97.5,70.9L97.5,70.9z"/>
	<path class="st4" d="M97.4,71.7l-0.3,3l0.2-0.2l0.3-1.4l-0.1-1.9L97.4,71.7z"/>
	<path class="st4" d="M96.9,74.5l0.2,0.2L97,74.2L96.9,74.5z"/>
	<path class="st4" d="M97,74l0,0.2l0.2,0.5l0.3-3l-0.2,1.1L97,74z"/>
	<path class="st4" d="M96.9,74.8l0.3-0.1l-0.2-0.2L96.9,74.8z"/>
	<path class="st4" d="M97.1,76.3l0.3-1.8l-0.2,0.2L97.1,76.3z"/>
	<path class="st4" d="M96.8,75.3l0.3,1l0.1-1.6L96.8,75.3z"/>
	<path class="st4" d="M96.8,75.3l0.4-0.6l-0.3,0.1L96.8,75.3z"/>
	<path class="st4" d="M96.6,78.9l0.3-1.7l-0.4,1L96.6,78.9z"/>
	<path class="st4" d="M96.5,78.1l0.4-1l0.1-0.8l-0.3-1L96.5,78.1z"/>
	<path class="st4" d="M96.2,78l0.3,0.2l0.2-2.8l-0.3,1.4L96.2,78z"/>
	<path class="st4" d="M96.2,78.4L96.2,78.4l0.4-0.3L96.2,78L96.2,78.4z"/>
	<path class="st4" d="M96.3,79l0.3-0.1l-0.1-0.8L96.3,79z"/>
	<path class="st4" d="M96.1,78.7l0.2,0.3l0.3-0.9l-0.4,0.3L96.1,78.7z"/>
	<path class="st4" d="M96,79.3l0.3-0.3l-0.2-0.3L96,79.3z"/>
	<path class="st4" d="M95.9,80.9l0.8-2L96.3,79L95.9,80.9z"/>
	<path class="st4" d="M96.3,81.1l0.3-2.2l-0.8,2L96.3,81.1z"/>
	<path class="st4" d="M95.9,80.3l-0.1,0.6l0.1,0.1l0.4-1.9L96,79.3L95.9,80.3z"/>
	<path class="st4" d="M95.7,81.2l0.2-0.2l-0.1-0.1L95.7,81.2z"/>
	<path class="st4" d="M94.2,83.6l0,0.2l0,0.1l0,0l0,0.1L94.2,83.6L94.2,83.6z"/>
	<path class="st4" d="M95.7,82.2l0.7-1.1l-0.5-0.2L95.7,82.2z"/>
	<path class="st4" d="M95.5,82.1l0.2,0l0.2-1.2l-0.2,0.2L95.5,82.1z"/>
	<path class="st4" d="M96.1,83l0.3-1.9l-0.7,1.1L96.1,83z"/>
	<path class="st4" d="M94.2,84L94.2,84l0.2,0l0,0l0.2,0l0.5,0l0,0l0.3-0.1l0.2-0.1L94.2,84z"/>
	<path class="st4" d="M95.7,83.9l0.3-0.9l-0.4-0.8L95.7,83.9z"/>
	<path class="st4" d="M94.2,84l1.6-0.1l-0.9-0.1L94.2,84z"/>
	<path class="st4" d="M94.8,83.8l0.1-0.2l-0.1,0L94.8,83.8z"/>
	<path class="st4" d="M95.4,82.3L95.2,83l0.4-0.8l-0.2,0L95.4,82.3z"/>
	<path class="st4" d="M95.2,83l-0.2,0.6l-0.1,0l-0.1,0.2l0.9,0.1l-0.1-1.7L95.2,83z"/>
	<path class="st4" d="M94.8,83.6l-0.5,0L94.2,84l0.6-0.3L94.8,83.6z"/>
	<path class="st4" d="M95.7,67.8L95.6,68l0.1,0.2l0.4-1.3L95.7,67.8z"/>
	<path class="st4" d="M95.9,67.8l-0.3,0.4l0.2,0.1L95.9,67.8z"/>
	<path class="st4" d="M96,67.5l0.3-1.3L96,66.9l-0.4,1.3l0.3-0.4L96,67.5z"/>
	<path class="st4" d="M95.2,68.6l0.4-0.5L95.6,68L95.2,68.6z"/>
	<path class="st4" d="M95.6,68.8l0.1-0.6l-0.2-0.1l-0.4,1.3l0.3-0.3L95.6,68.8z"/>
	<path class="st4" d="M95.3,69.4l0.4-1.3l-0.4,0.5l-0.1,0.2l-0.1,0.6L95.3,69.4z"/>
	<path class="st4" d="M95.6,69.2l-0.3,0.3l0.2,0.1L95.6,69.2z"/>
	<path class="st4" d="M95.3,70.3l0.2-0.7l-0.2-0.1L95,70.5L95.3,70.3z"/>
	<path class="st4" d="M95.1,69.4L95,69.8l0.3-0.4L95.1,69.4z"/>
	<path class="st4" d="M95,70.5l0.3-1.1L95,69.8l0,0.1l-0.2,0.7L95,70.5z"/>
	<path class="st4" d="M94.9,71.7l0.2-0.7l-0.4,0.6L94.9,71.7z"/>
	<path class="st4" d="M95.1,71l0.2-0.7L95,70.5l-0.3,1.1L95.1,71z"/>
	<path class="st4" d="M95,70.5l-0.2,0.2l-0.3,0.9l0.1,0L95,70.5z"/>
	<path class="st4" d="M94.5,71.5l-0.1,0.2l0.2-0.2L94.5,71.5z"/>
	<path class="st4" d="M94.7,72.4l-0.4,0.4l0.3,0.1L94.7,72.4z"/>
	<path class="st4" d="M94.9,71.7L94.9,71.7l-0.2-0.1l-0.4,1.2l0.4-0.4L94.9,71.7z"/>
	<path class="st4" d="M94.5,71.8l-0.1,0.3l-0.2,0.7l0.2,0l0.4-1.2L94.5,71.8z"/>
	<path class="st4" d="M94.3,72.8l0.2,0.6l0.1-0.5l0-0.1L94.3,72.8z"/>
	<path class="st4" d="M94,73.2l-0.1,0.2l0.4-0.6l-0.2,0L94,73.2z"/>
	<path class="st4" d="M94.5,73.4l-0.2-0.6l-0.9,3l0.8-1.1L94.5,73.4z"/>
	<path class="st4" d="M93.9,73.4l-0.7,1.8l0.2,0.6l0.9-3L93.9,73.4z"/>
	<path class="st4" d="M93.4,75.8l0.5,0.2l0.2-0.9l0.1-0.5L93.4,75.8z"/>
	<path class="st4" d="M92.7,76.2l-0.2,0.7l1-1.1L92.8,76L92.7,76.2z"/>
	<path class="st4" d="M93.2,75.3L92.8,76l0.6-0.2L93.2,75.3L93.2,75.3z"/>
	<path class="st4" d="M92.5,76.9L92.5,76.9l0,0.1l1-1.2L92.5,76.9z"/>
	<path class="st4" d="M93.1,77.1l0.5,0.3l0.3-1l0-0.1L93.1,77.1z"/>
	<path class="st4" d="M93.9,76l-0.5-0.2l-0.4,1.3l0.8-0.9L93.9,76z"/>
	<path class="st4" d="M92.4,77l0.6,0.1l0.4-1.3L92.4,77z"/>
	<path class="st4" d="M93.1,77.1l-0.7,1.7l1.2-1.4l0-0.1L93.1,77.1z"/>
	<path class="st4" d="M92.4,77l0,0.4l0,0.1l0,0l0,1.3l0.7-1.7L92.4,77z"/>
	<path class="st4" d="M92.4,77.4l0-0.4l0,0V77.4z"/>
	<path class="st4" d="M91.8,79.4l0.5-0.6l0-1.3L91.8,79.4z"/>
	<path class="st4" d="M93.6,77.4l-1.2,1.4l0.7,0.5l0-0.2L93.6,77.4L93.6,77.4z"/>
	<path class="st4" d="M90.9,81.8l-0.1,0.3l0.2-0.5L90.9,81.8z"/>
	<path class="st4" d="M92.8,80.6l0.1-0.5L92.8,80.6L92.8,80.6z"/>
	<path class="st4" d="M92.8,80.7L92.8,80.7L92.8,80.7L92.8,80.7z"/>
	<path class="st4" d="M92.1,80.4l1-1l0,0l-0.7-0.5L92.1,80.4z"/>
	<path class="st4" d="M91.7,79.7l0.4,0.7l0.3-1.6l-0.5,0.6L91.7,79.7z"/>
	<path class="st4" d="M92.8,80.7l0.1-0.5l0.2-0.8l-1,1L92.8,80.7z"/>
	<path class="st4" d="M92.8,80.7l-0.4,1.7l0.1-0.2L92.8,80.7L92.8,80.7z"/>
	<path class="st4" d="M90.8,82.1l0.2,0.1l0.4,0.1l0.3,0.1l0.1,0l0,0l0.2,0.1l0,0l-0.9-0.4L90.8,82.1z"/>
	<path class="st4" d="M92.2,82.5l0.1-0.1l-1-0.2L92.2,82.5z"/>
	<path class="st4" d="M91.6,80.2L91,81.5l-0.2,0.5l0.5,0.1L91.6,80.2z"/>
	<path class="st4" d="M91.3,82.1l1.5-1.5l-0.6-0.3L91.3,82.1z"/>
	<path class="st4" d="M91.3,82.1l1,0.2l0.4-1.7L91.3,82.1z"/>
	<path class="st4" d="M91.7,79.7l-0.1,0.4l0,0.1l-0.3,2l0.8-1.8L91.7,79.7z"/>
	<path class="st4" d="M95.7,62.8l0.7-1.8l0.1-0.7L96.3,61L95.7,62.8z"/>
	<path class="st4" d="M96.4,61l1.2-2.2l-0.7,0.3L96.4,61z"/>
	<path class="st4" d="M96.4,61l0.5-1.9l-0.4,1.2L96.4,61z"/>
	<path class="st4" d="M97.1,61.1l0.5-2.2L96.4,61L97.1,61.1z"/>
	<path class="st4" d="M97.1,61.1l0.3-0.1l0.1-0.5l0.4-1.7l-0.3,0L97.1,61.1z"/>
	<path class="st4" d="M97.1,61.1L96.4,61l-0.6,2L97.1,61.1z"/>
	<path class="st4" d="M96.4,61l-0.7,1.8l0,0.2L96.4,61z"/>
	<path class="st4" d="M97.1,62.2l0.3-1.3l-0.3,0.1L97.1,62.2z"/>
	<path class="st4" d="M97.1,61.1L95.8,63l0.7,0.1L97.1,61.1z"/>
	<path class="st4" d="M96.4,63l0.5,0.1l0-0.1l0.2-0.8l0-1.2L96.4,63z"/>
	<path class="st4" d="M95.8,63l-0.7,1.7l0.3-0.4L95.8,63z"/>
	<path class="st4" d="M96.4,63L95.8,63l-0.4,1.3L96.4,63z"/>
	<path class="st4" d="M95.1,64.7l-0.6,1.7l0.8-2.1L95.1,64.7z"/>
	<path class="st4" d="M96.8,63.5l0.1-0.4L96.4,63l-0.5,1.6L96.8,63.5z"/>
	<path class="st4" d="M96.4,63l-1.1,1.2l0.6,0.3L96.4,63z"/>
	<path class="st4" d="M96.7,64.3l0.2-0.8l-0.9,1.1l0.7-0.2L96.7,64.3z"/>
	<path class="st4" d="M96.5,65.1l-0.2,0.4l0,0.3l0.1-0.4L96.5,65.1z"/>
	<path class="st4" d="M96.6,64.4l-0.7,0.2l0.4,0.8l0.3-0.8L96.6,64.4z"/>
	<path class="st4" d="M96.6,64.6l-0.3,0.8l0.2-0.4L96.6,64.6z"/>
	<path class="st4" d="M95.3,64.3l-0.8,2.1l0.2-0.2L95.3,64.3z"/>
	<path class="st4" d="M95.3,64.3l-0.6,1.9l1.1-1.5L95.3,64.3z"/>
	<path class="st4" d="M94.5,66.4l-0.1,0.4l-0.1,0.4l-0.2,0.5l-0.2,0.7l0,0l0.3-0.5L94.5,66.4z"/>
	<path class="st4" d="M94.5,66.4l-0.3,1.5l0.6-1.8L94.5,66.4z"/>
	<path class="st4" d="M96,66.9l0.3-0.7l0-0.1l-0.7,1.5l0.1,0.3L96,66.9z"/>
	<path class="st4" d="M96.3,65.8l0-0.3l-0.7,2.1l0.7-1.5L96.3,65.8z"/>
	<path class="st4" d="M94.2,67.9l-0.3,0.5l-0.3,1l-0.1,0.3L94.2,67.9z"/>
	<path class="st4" d="M95.9,64.6L95,67.2l1.2-1.7L95.9,64.6z"/>
	<path class="st4" d="M94.7,66.1l-0.6,1.8l0.9-0.7L94.7,66.1z"/>
	<path class="st4" d="M95,67.2l0.5,0.4l0.7-2.1L95,67.2z"/>
	<path class="st4" d="M95,67.2l-0.9,0.7l1.4-0.4L95,67.2z"/>
	<path class="st4" d="M94.7,66.1l0.3,1l0.9-2.6L94.7,66.1z"/>
	<path class="st4" d="M95.6,67.5l-1.4,0.4l0.9,0.9L95.6,67.5z"/>
	<path class="st4" d="M95.6,68l0.1-0.2l-0.1-0.3l-0.4,1.3l0.1-0.2L95.6,68z"/>
	<path class="st4" d="M94.2,67.9l-0.7,1.8l0.3-0.4L94.2,67.9z"/>
	<path class="st4" d="M94.2,69.8l0-1.9l-0.5,1.4L94.2,69.8z"/>
	<path class="st4" d="M95.1,68.8l-0.9-0.9l0,1.9L95.1,68.8z"/>
	<path class="st4" d="M93.7,69.3l-0.8,2.1l1.2-1.6L93.7,69.3z"/>
	<path class="st4" d="M93.7,69.3l-0.3,0.4l-0.5,1.7L93.7,69.3z"/>
	<path class="st4" d="M93.4,69.7l-0.2,0.7l-0.4,1.1l-0.3,0.8l-0.2,0.4l-0.1,0.4l0.8-1.7L93.4,69.7z"/>
	<path class="st4" d="M95.1,68.8l-1,0.9l0.1,1.9L95.1,68.8z"/>
	<path class="st4" d="M94.5,71.8l0.1-0.2l0.3-0.9L95,70l-0.7,1.7l0.1,0.4L94.5,71.8z"/>
	<path class="st4" d="M95,70l0-0.1l0.1-0.4l0.1-0.6l-0.9,2.8L95,70z"/>
	<path class="st4" d="M92.9,71.4l0.6,0.2l0.6-1.7L92.9,71.4z"/>
	<path class="st4" d="M92.9,71.4l-0.8,1.7l1.4-1.5L92.9,71.4z"/>
	<path class="st4" d="M94.2,69.8l-0.6,1.7l0.7,0.1L94.2,69.8z"/>
	<path class="st4" d="M94.2,72.7l0.2-0.7l-0.5,0.8l0.1,0.3L94.2,72.7z"/>
	<path class="st4" d="M94.3,71.7l-0.4,1.2l0.5-0.8L94.3,71.7z"/>
	<path class="st4" d="M93.6,71.5l-0.4,1.2l1.1-1L93.6,71.5z"/>
	<path class="st4" d="M94.3,71.7l-1.1,1l0.7,0.2L94.3,71.7z"/>
	<path class="st4" d="M93.6,71.5l-1.4,1.5l1-0.4L93.6,71.5z"/>
	<path class="st4" d="M92.1,73.1L92,73.7l0,0.1l-0.1,0.7L92.1,73.1z"/>
	<path class="st4" d="M93.2,72.7l-1,0.4l-0.2,1.3L93.2,72.7z"/>
	<path class="st4" d="M92,73.7l-0.5,1.4l-0.2,0.6l-0.3,0.8l0,0.1l0.9-2.1L92,73.7z"/>
	<path class="st4" d="M93.2,75.2l0.7-1.8l0.1-0.2L93.1,75L93.2,75.2L93.2,75.2z"/>
	<path class="st4" d="M93.8,72.9l-0.7-0.2L93.1,75L93.8,72.9z"/>
	<path class="st4" d="M93.8,72.9L93.1,75l0.9-1.8L93.8,72.9z"/>
	<path class="st4" d="M91.9,74.4l-0.9,2.1l1.2-1.2L91.9,74.4z"/>
	<path class="st4" d="M91.9,74.4l0.4,0.9l0.9-2.6L91.9,74.4z"/>
	<path class="st4" d="M93.2,72.7l-0.9,2.6l0.8-0.3L93.2,72.7z"/>
	<path class="st4" d="M93.1,75l-0.8,0.3l0.4,0.8L93.1,75z"/>
	<path class="st4" d="M93.2,75.3L93.1,75l-0.4,1.1l0.1-0.2L93.2,75.3z"/>
	<path class="st4" d="M91.1,76.6l0.1,0.3l1.2-1.5L91.1,76.6z"/>
	<path class="st4" d="M91,77l0.2-0.2l-0.1-0.3L91,77z"/>
	<path class="st4" d="M91,77L91,77l-0.3,0.7l-0.4,1.1l-0.1,0.3l0.9-2.3L91,77z"/>
	<path class="st4" d="M92.4,77L92.4,77l0-0.1l-0.1,0.3l0.1,0.3l0-0.1V77z"/>
	<path class="st4" d="M92.7,76.2l-0.9,0.8l0.6,0.3l0.1-0.3l0,0L92.7,76.2z"/>
	<path class="st4" d="M92.3,75.3l-1.2,1.5l0.6,0.1L92.3,75.3z"/>
	<path class="st4" d="M92.3,75.3l-0.5,1.6l0.9-0.8L92.3,75.3z"/>
	<path class="st4" d="M91.1,76.8l-0.7,2l1.4-1.9L91.1,76.8z"/>
	<path class="st4" d="M90.2,79.1l-0.1,0.2l-0.3,1l0.6-1.4L90.2,79.1z"/>
	<path class="st4" d="M91.1,76.8l-0.9,2.3l0.2-0.2L91.1,76.8z"/>
	<path class="st4" d="M91.8,79.4l0.6-1.9l0,0l-0.7,1.4l-0.2,1.2l0.1-0.4L91.8,79.4z"/>
	<path class="st4" d="M91.8,78.9l0.7-1.4l-0.1-0.3L91.8,78.9z"/>
	<path class="st4" d="M91.7,76.9l-1.4,1.9l0.8-0.1L91.7,76.9z"/>
	<path class="st4" d="M91.1,78.7l0.6,0.2l0.5-1.7L91.1,78.7z"/>
	<path class="st4" d="M91.1,78.7l1.2-1.5l-0.6-0.3L91.1,78.7z"/>
	<path class="st4" d="M89.3,81.6L89.3,81.6l0.3,0.5l0.3,0.1l0.2,0.1l0.3,0.2l0.1,0.1L89.3,81.6L89.3,81.6z"/>
	<path class="st4" d="M90.4,78.9l-0.3,1.7l1.1-1.8L90.4,78.9z"/>
	<path class="st4" d="M89.8,80.3l-0.5,1.4l0.8-1L89.8,80.3z"/>
	<path class="st4" d="M90.1,80.6l1.7-1.6l-0.6-0.2L90.1,80.6z"/>
	<path class="st4" d="M90.4,78.9l-0.6,1.4l0.3,0.3L90.4,78.9z"/>
	<path class="st4" d="M89.3,81.6l1.3,1l0-0.6L89.3,81.6z"/>
	<path class="st4" d="M90.1,80.6l0.5,1.4l1.2-3L90.1,80.6z"/>
	<path class="st4" d="M91.6,80.2L91.6,80.2l-1,1.8l0,0.6l0.4-0.8l0.1-0.2L91.6,80.2z"/>
	<path class="st4" d="M89.3,81.6l1.3,0.3l-0.5-1.4L89.3,81.6z"/>
	<path class="st4" d="M90.6,82l1-1.9l0.2-1.2L90.6,82z"/>
	<path class="st4" d="M97.5,60.5l0.6-1.3l0-0.4l-0.2,0L97.5,60.5z"/>
	<path class="st4" d="M97.9,60.3l1-1.1l0,0L98.6,59L97.9,60.3z"/>
	<path class="st4" d="M97.7,61.7l0.3-1.4l0.1-1.1l-0.6,1.3L97.7,61.7z"/>
	<path class="st4" d="M97.1,62.2L96.9,63l0.7-1l0-0.2l-0.2-1.2L97.4,61L97.1,62.2z"/>
	<path class="st4" d="M97.4,63.5l0.2-1.2l0.1-0.4l-0.7,1l0.3,0.7L97.4,63.5z"/>
	<path class="st4" d="M96.7,64.3l0.5-0.6L96.9,63l0,0.1l-0.1,0.4L96.7,64.3z"/>
	<path class="st4" d="M96.6,64.6l-0.1,0.5l-0.1,0.3l0.8-1.7l-0.5,0.6l0,0.1L96.6,64.6z"/>
	<path class="st4" d="M96.9,65.5l0.3-1.8l-0.8,1.7L96.9,65.5z"/>
	<path class="st4" d="M97,65.5l0.4-2l-0.2,0.1L97,65.5L97,65.5z"/>
	<path class="st4" d="M96.9,65.5l-0.5-0.1l-0.1,0.4L96.3,66l0,0.1L96,67.5L96.9,65.5z"/>
	<path class="st4" d="M96.4,67.5l0.5-2l-0.9,2L96.4,67.5z"/>
	<path class="st4" d="M96.4,67.5l0.2-0.3l0.1-0.3l0.2-1.3l-0.1-0.1L96.4,67.5z"/>
	<path class="st4" d="M95.9,67.8l-0.1,0.5l-0.1,0.6l0.8-1.3l-0.5,0L95.9,67.8z"/>
	<path class="st4" d="M96.6,67.8l0.1-0.6l-0.2,0.3L96.6,67.8z"/>
	<path class="st4" d="M95.6,68.8l0.8-0.2l0.1-0.9l-0.1-0.3L95.6,68.8z"/>
	<path class="st4" d="M95.9,69.6l0.4-0.5l0-0.2l0.1-0.3l-0.8,0.2L95.9,69.6z"/>
	<path class="st4" d="M96.2,69.7l0.1-0.5l-0.4,0.5L96.2,69.7z"/>
	<path class="st4" d="M95.4,69.6l-0.2,0.7L95.1,71l-0.2,0.7l0,0l1.1-2l-0.3-0.8l-0.1,0.3L95.4,69.6z"/>
	<path class="st4" d="M95.4,71.7l0.5-2.1l-1.1,2L95.4,71.7z"/>
	<path class="st4" d="M95.4,71.7l0.6-0.9l0.1-0.5l0.1-0.6l-0.3-0.1L95.4,71.7z"/>
	<path class="st4" d="M95.9,71.4l0.1-0.5l-0.6,0.9L95.9,71.4z"/>
	<path class="st4" d="M94.7,72.4l-0.1,0.4l0,0.1l0.8-1.2l-0.5-0.1L94.7,72.4z"/>
	<path class="st4" d="M95.7,71.9l0.1-0.5l-0.5,0.4L95.7,71.9z"/>
	<path class="st4" d="M95.1,73l0.3-1.2L94.6,73L95.1,73z"/>
	<path class="st4" d="M95.1,73l0.5-0.5l0-0.2l0.1-0.5l-0.3-0.1L95.1,73z"/>
	<path class="st4" d="M95.5,73.1l0.1-0.6L95.1,73L95.5,73.1z"/>
	<path class="st4" d="M94.6,73l-0.1,0.5l-0.3,1.3l-0.1,0.5l1-2.2L94.6,73z"/>
	<path class="st4" d="M94.1,75.1l0.5,0l0.5-2.2L94.1,75.1z"/>
	<path class="st4" d="M94.6,75.2l0.7-1l0.1-0.7l0.1-0.4L95.1,73L94.6,75.2z"/>
	<path class="st4" d="M94.1,75.1L93.9,76l0,0.2l0,0.1l0.8-1.2L94.1,75.1z"/>
	<path class="st4" d="M95,76.1l0.2-1.5l0.1-0.5l-0.7,1L95,76.1z"/>
	<path class="st4" d="M94.9,76.3l-1.1,0l-0.3,1l0,0.1l0,0l1.3-1L94.9,76.3z"/>
	<path class="st4" d="M94.6,75.2l-0.8,1.2l1.1,0l0-0.2L94.6,75.2z"/>
	<path class="st4" d="M94.9,76.4l-1.3,1l0.5,0L94.9,76.4L94.9,76.4z"/>
	<path class="st4" d="M94.9,76.7l0-0.2l-0.8,0.9l0.6,0.1L94.9,76.7z"/>
	<path class="st4" d="M93.6,77.4l-0.4,1.7l0.9-1.7L93.6,77.4z"/>
	<path class="st4" d="M94.4,79l-0.2,0.4l0.1,0.1L94.4,79z"/>
	<path class="st4" d="M94.6,78.1l-0.4,1.3l0.2-0.4L94.6,78.1z"/>
	<path class="st4" d="M94.6,78l0.1-0.4l-0.6-0.1l0.1,1.9L94.6,78L94.6,78z"/>
	<path class="st4" d="M93.2,79.2l0.3,0.9l0.6-2.6L93.2,79.2z"/>
	<path class="st4" d="M94.1,77.4l-0.6,2.6l0.7-0.7L94.1,77.4z"/>
	<path class="st4" d="M93.2,79.2l0,0.2l0,0l-0.2,0.8l-0.1,0.5l0,0.1l-0.4,1.5l-0.1,0.2l1.2-2.3L93.2,79.2z"/>
	<path class="st4" d="M94.3,79.5l-0.1-0.1l-0.2,1.4l0.1-0.7L94.3,79.5z"/>
	<path class="st4" d="M94.1,80.7l0.2-1.4l-0.7,0.7l0.5,0.9L94.1,80.7z"/>
	<path class="st4" d="M93.3,82.7l-1-0.3l0.2,0.1l0.4,0.2l0.1,0.1l0.2,0.1L93.3,82.7z"/>
	<path class="st4" d="M93.8,82.9l-0.5-0.2l0.1,0.2l0.1,0L93.8,82.9L93.8,82.9L93.8,82.9z"/>
	<path class="st4" d="M93.5,80.1l-1.2,2.3l1,0.3L93.5,80.1z"/>
	<path class="st4" d="M93.9,81.4l0.1-0.4l-0.7,1.6l0.6-0.8L93.9,81.4z"/>
	<path class="st4" d="M93.9,81.9l-0.6,0.8l0.5,0.2L93.9,81.9z"/>
	<path class="st4" d="M94,80.9l-0.5-0.9l-0.2,2.7l0.7-1.6L94,80.9z"/>
	<path class="st4" d="M97.9,60.3l0.7-1.3l-0.1,0l-0.3-0.1l0,0.4L97.9,60.3z"/>
	<path class="st4" d="M97.9,60.3l0.5,0.2l0.5-1.3L97.9,60.3z"/>
	<path class="st4" d="M97.7,61.7l0,0.2l-0.1,0.4l0.9-1.9l-0.5-0.2L97.7,61.7z"/>
	<path class="st4" d="M99.1,61.7l0.3-2.1L99,59.2L99.1,61.7z"/>
	<path class="st4" d="M99.1,61.7l0.3,0.3l0-0.2l0.1-1.9L99.1,61.7z"/>
	<path class="st4" d="M98.5,60.5l0.6,1.2L99,59.2L98.5,60.5z"/>
	<path class="st4" d="M98.5,60.5L98,63.1l1.1-1.4L98.5,60.5z"/>
	<path class="st4" d="M97.4,63.5l0.6-0.5l-0.4-0.7L97.4,63.5z"/>
	<path class="st4" d="M97.6,62.4l0.4,0.7l0.5-2.6L97.6,62.4z"/>
	<path class="st4" d="M98.6,63.7l0.7-1.7l-0.3-0.3L98.6,63.7z"/>
	<path class="st4" d="M98.9,64L98.9,64l0.3-1.3l0.2-0.7l-0.7,1.7L98.9,64z"/>
	<path class="st4" d="M98.6,63.7l0.4-2L98,63.1L98.6,63.7z"/>
	<path class="st4" d="M97,65.3l0,0.2l1-2.4l-0.6,0.5L97,65.3z"/>
	<path class="st4" d="M98.6,65.6L98.6,65.6l0.1-0.6l0.2-1L98.4,65L98.6,65.6z"/>
	<path class="st4" d="M98.4,65l0.6-1.1l-0.3-0.3L98.4,65z"/>
	<path class="st4" d="M97.6,65l1-1.3L98,63.1L97.6,65z"/>
	<path class="st4" d="M98.4,65l0.3-1.3l-1,1.3L98.4,65z"/>
	<path class="st4" d="M97.6,65l0.4-2l-1,2.4L97.6,65z"/>
	<path class="st4" d="M97,65.5l-0.2,1.3l0.9-1.8L97,65.5L97,65.5z"/>
	<path class="st4" d="M98,68.2l0.1-0.4l0.1-0.4l0.1-0.5l0.3-1.3L98,67L98,68.2z"/>
	<path class="st4" d="M98,67l0.6-1.4L98.4,65L98,67z"/>
	<path class="st4" d="M97.3,66.9l1.1-1.8l-0.7,0L97.3,66.9z"/>
	<path class="st4" d="M98,67l0.4-2l-1.1,1.8L98,67z"/>
	<path class="st4" d="M97.3,66.9l0.3-1.8l-0.9,1.8L97.3,66.9z"/>
	<path class="st4" d="M96.7,67.2l-0.1,0.6l-0.1,0.9L96.4,69l0.9-2.1l-0.6,0L96.7,67.2z"/>
	<path class="st4" d="M97.6,68.8l0.1-0.4L97.6,68.8l0.3-0.5l0.1-0.1l0-1.2L97.6,68.8z"/>
	<path class="st4" d="M97.6,68.8l0.1-0.4L97.6,68.8l0,0.1L97.6,68.8z"/>
	<path class="st4" d="M97.6,68.8L98,67l-0.7-0.1L97.6,68.8z"/>
	<path class="st4" d="M96.9,69l0.4-2.2L96.4,69L96.9,69z"/>
	<path class="st4" d="M96.9,69l0.7-0.2l-0.3-2L96.9,69z"/>
	<path class="st4" d="M96.3,69.2l-0.1,0.5l-0.1,0.6l0.8-1.3l-0.5,0L96.3,69.2z"/>
	<path class="st4" d="M97.6,69.5l0-0.6l0-0.1l-0.3,1.5l0.2,0.6l0,0l0-0.1l0-0.3l0-0.8V69.5z"/>
	<path class="st4" d="M96.6,70.3l1-1.5L96.9,69L96.6,70.3z"/>
	<path class="st4" d="M96.6,70.3l0.3-1.3l-0.8,1.3L96.6,70.3z"/>
	<path class="st4" d="M97.3,70.3l0.3-1.5l-1,1.5L97.3,70.3z"/>
	<path class="st4" d="M96,70.8l-0.1,0.5l-0.1,0.5l-0.1,0.5l1-2l-0.5,0L96,70.8z"/>
	<path class="st4" d="M97,72.5l0.6-1.5l-0.2-0.6L97,72.5z"/>
	<path class="st4" d="M97.3,72.8l0.2-1.1l0.1-0.5l0-0.2L97,72.5L97.3,72.8z"/>
	<path class="st4" d="M97,72.5l0.4-2.2l-0.7,0L97,72.5z"/>
	<path class="st4" d="M96.2,74l0.7-1.5l-0.3-2.1L96.2,74z"/>
	<path class="st4" d="M95.6,72.5l-0.1,0.6l-0.1,0.4l0.8,0.6l-0.6-1.7L95.6,72.5z"/>
	<path class="st4" d="M95.3,74.1l-0.1,0.5l1-0.6l-0.8-0.6L95.3,74.1z"/>
	<path class="st4" d="M97.3,72.8L97,72.5L96.2,74L97.3,72.8z"/>
	<path class="st4" d="M97,74l0.2-1.2l-1,1.2L97,74z"/>
	<path class="st4" d="M96.2,74l0.4-3.7l-1,2L96.2,74z"/>
	<path class="st4" d="M95.8,74.6l0.4-0.6l-1,0.6L95.8,74.6z"/>
	<path class="st4" d="M95,76.1l0,0.2l0,0.1l0,0.1l0,0.2l0.9-2.1l-0.6,0L95,76.1z"/>
	<path class="st4" d="M96.9,74.8l0.1-0.3l0.1-0.3l0-0.2l-0.7,1.6l0.1,1.1l0.3-1.4l0-0.1L96.9,74.8z"/>
	<path class="st4" d="M95.8,74.6l0.5,1.1L96.2,74L95.8,74.6z"/>
	<path class="st4" d="M96.3,75.7L97,74l-0.8,0L96.3,75.7z"/>
	<path class="st4" d="M96.5,76.7l-0.1-1.1l-0.8,2L96.5,76.7z"/>
	<path class="st4" d="M95.5,77.7l0.8-2l-0.5-1.1L95.5,77.7z"/>
	<path class="st4" d="M94.7,77.6L94.6,78l0.9-0.3l-0.7-1L94.7,77.6z"/>
	<path class="st4" d="M95.5,77.7l0.3-3.1l-0.9,2.1L95.5,77.7z"/>
	<path class="st4" d="M95.2,78l0.4-0.3L94.6,78L95.2,78z"/>
	<path class="st4" d="M95.9,78.2l0.6-1.4l-0.9,0.9L95.9,78.2z"/>
	<path class="st4" d="M95.9,78.2l-0.3-0.5L95.2,78L95.9,78.2z"/>
	<path class="st4" d="M96.2,78.4l0.1-0.4l0.2-1.2l-0.6,1.4L96.2,78.4z"/>
	<path class="st4" d="M94.6,78L94.6,78l-0.2,1l-0.1,0.5l-0.1,0.6l1-2.1L94.6,78z"/>
	<path class="st4" d="M94.8,80.2l1.1-2L95.2,78L94.8,80.2z"/>
	<path class="st4" d="M94.2,80.1l-0.1,0.7l0,0.2l0,0.1l-0.1,0.4l0.8-1.2L94.2,80.1z"/>
	<path class="st4" d="M94.2,80.1l0.6,0.1l0.4-2.2L94.2,80.1z"/>
	<path class="st4" d="M95.5,80.3l0.7-1.9l-0.3-0.3L95.5,80.3z"/>
	<path class="st4" d="M95.9,80.3l0.2-1l0.1-0.6l0-0.2l0,0l-0.7,1.9L95.9,80.3z"/>
	<path class="st4" d="M95.5,80.3l0.4-2.1l-1.1,2L95.5,80.3z"/>
	<path class="st4" d="M94.8,80.2l-0.2,1.2l1-1.1L94.8,80.2z"/>
	<path class="st4" d="M93.9,81.4l0.6,0l0.2-1.2L93.9,81.4z"/>
	<path class="st4" d="M95.4,82.3l0-0.1l0.2-1l0.1-0.3l0.1-0.6l-0.3,0L95.4,82.3z"/>
	<path class="st4" d="M94.5,81.4l0.9,0.9l0.1-1.9L94.5,81.4z"/>
	<path class="st4" d="M93.9,81.4l0,0.5l-0.1,0.9l0,0l0,0.1l0,0.1l0.8-1.7L93.9,81.4z"/>
	<path class="st4" d="M93.8,83.6l0.1,0l0.3,0l0.1,0l0.5,0l0.1,0l0.1,0l-0.4-0.5L93.8,83.6z"/>
	<path class="st4" d="M94.7,83.1l0.7-0.8l-0.9-0.9L94.7,83.1z"/>
	<path class="st4" d="M93.8,83.1l0.1,0.5l0.9-0.5L93.8,83.1z"/>
	<path class="st4" d="M94.5,81.4l-0.8,1.7l0.9,0L94.5,81.4z"/>
	<path class="st4" d="M94.7,83.1l0.4,0.5l0.2-0.6l0.2-0.7L94.7,83.1z"/>
	<path class="st4" d="M89,82.1l0.7,0.5l-0.5-0.7L89,82.1z"/>
	<path class="st4" d="M95.8,63l0-0.2L95.6,63l-0.6,1.6L95.8,63z"/>
	<g>
		<polygon class="st4" points="92.3,58.1 92.1,57.9 91.8,57.3 91.5,56.9 91,56.1 89.8,62.4 90.5,63.6 		"/>
		<polygon class="st4" points="80.3,48.3 77.3,53.9 82.9,56.9 		"/>
		<polygon class="st4" points="92.5,60 92.5,60 92.4,59.4 92.3,58.1 90.5,63.5 90.5,63.5 90.5,63.5 90.5,63.5 90.5,63.5 91.1,64.5 
			92.5,60 92.5,60 92.5,60 		"/>
		<polygon class="st4" points="91,56.1 90.8,55.8 89.4,54.4 89.4,54.4 89.4,54.4 89.1,54.1 88.3,53.5 86,51.7 85.6,51.4 85.6,51.4 
			85.6,51.4 84.7,50.8 83.7,50.2 82.9,56.9 82.9,56.9 83.7,50.2 82.4,49.5 81.1,48.8 80.3,48.3 82.9,56.9 82.9,56.9 82.9,56.9 
			82.9,56.9 82.9,56.9 87.1,59.8 87.1,59.8 87.1,59.8 89.8,62.4 89.8,62.4 		"/>
		<polygon class="st4" points="36.5,38 33.9,38.4 33,38.6 33,38.6 31.1,39.3 30.1,39.7 29.9,39.8 29.9,39.8 29.9,39.8 28.6,40.9 
			28.5,41.1 27.6,44.8 28.5,41.1 27.2,46 27.2,46 27.2,46 27.2,46 29.7,44.9 29.9,40.1 29.7,44.9 34.7,43.9 34.7,43.9 		"/>
		<polygon class="st4" points="34.7,43.9 38.6,43.9 36.5,38 		"/>
		<polygon class="st4" points="41.3,37.9 40.6,38 37.7,38 36.9,38 36.5,38 38.6,43.9 		"/>
		<polygon class="st4" points="43.8,38.1 41.3,38 41.3,37.9 38.6,43.9 44.9,44.5 44.9,44.5 48.4,45 45.7,38.2 		"/>
		<polygon class="st4" points="52.3,39.2 50.9,39 46.5,38.3 45.7,38.2 48.4,45 		"/>
		<polygon class="st4" points="76,46.3 76,46.3 76,46.3 76,46.3 76,46.3 76,46.3 75,45.9 73.2,45.2 68.1,43.3 67.3,49.9 67.3,49.9 
			67.3,49.9 70.7,51.1 76,46.3 76,46.3 70.7,51.1 77.3,53.9 77.3,53.9 80.3,48.3 78.9,47.6 		"/>
		<polygon class="st4" points="63.4,48.5 67.3,49.9 67.3,49.9 68.1,43.3 		"/>
		<polygon class="st4" points="48.4,45 55.8,46.5 52.3,39.2 		"/>
		<polygon class="st4" points="66.4,42.8 65.5,42.5 59.9,40.8 63.4,48.5 68.1,43.3 		"/>
		<polygon class="st4" points="59.9,40.8 59.9,40.8 58.8,40.6 56,40 53.1,39.4 52.3,39.2 55.8,46.5 55.8,46.5 63.4,48.5 		"/>
	</g>
	<path class="st1" d="M33.4,26.8L33.3,27l-0.1,0.3l0.5-1.4L33.4,26.8z"/>
	<path class="st1" d="M93.1,56.5l0.3-1.2l0.6-2.5l0.5-2.3l1.5-6.4l0.1-0.2l0.2-1.2l-2.4,9.3L93.1,56.5z"/>
	<path class="st1" d="M37.4,22.7l-2,1.1l-0.3,0.2l-0.9,0.7l-0.4,0.7l-0.2,0.4L31,38.3L37.4,22.7z"/>
	<path class="st1" d="M30.1,39.7l1-1.4l2.6-12.4l-0.5,1.4l-0.3,0.8L32.6,29l-0.7,2.2l-0.7,2l0,0.1l-0.1,0.2l-1.3,3.9l-1.2,3.6
		l1.2-1.2L30.1,39.7z"/>
	<path class="st1" d="M93.9,51.9l2.4-9.3l-2.2,3.2L93.9,51.9z"/>
	<path class="st1" d="M96.3,42.6l-0.5-1.4l-0.4-0.9l-1.3,5.6L96.3,42.6z"/>
	<path class="st1" d="M95.4,40.2l-1.2-2l-0.1,7.6L95.4,40.2z"/>
	<path class="st1" d="M93.9,51.9l0.2-6.1l-1.6,8.1L93.9,51.9z"/>
	<path class="st1" d="M92.1,57.9l0.1,0.2l0.2,1.3l0.7-2.9l0.7-4.6L92.1,57.9z"/>
	<path class="st1" d="M91.8,57.3l0.3,0.6l1.8-6l-1.4,2L91.8,57.3z"/>
	<path class="st1" d="M36.3,32.8l1.1-10.1L31,38.3L36.3,32.8z"/>
	<path class="st1" d="M43.1,21.4L41,21.7l-0.3,0l-1.2,0.3l-1.1,0.3l-1,0.3l-1.1,10.1L43.1,21.4z"/>
	<path class="st1" d="M31,38.3l-1,1.4l1-0.4L31,38.3z"/>
	<path class="st1" d="M33,38.6l0.9-0.1l2.4-5.6L31,38.3l0.1,1L33,38.6z"/>
	<path class="st1" d="M91.8,57.3l0.7-3.5l-1,3.1L91.8,57.3z"/>
	<path class="st1" d="M94.1,45.8l-3.6,4.4l2,3.7L94.1,45.8z"/>
	<path class="st1" d="M94.1,45.8l0.1-7.6l-3.6,12L94.1,45.8z"/>
	<path class="st1" d="M48.8,21.1l-3,0l-2.7,0.2l-0.3,10.3L48.8,21.1z"/>
	<path class="st1" d="M42.7,31.6l0.3-10.3l-6.8,11.4L42.7,31.6z"/>
	<path class="st1" d="M94.1,38.2l-4.5,6.8l0.8,5.1L94.1,38.2z"/>
	<path class="st1" d="M36.5,38l0.4,0l-0.6-5.3l-2.4,5.6L36.5,38z"/>
	<path class="st1" d="M37.7,38l5.1-6.4l-6.4,1.2l0.6,5.3L37.7,38z"/>
	<path class="st1" d="M48.8,29.3l0-8.2l-6.1,10.5L48.8,29.3z"/>
	<path class="st1" d="M52,21.3l-0.5,0l-2.7-0.1l0,8.2L52,21.3z"/>
	<path class="st1" d="M89.4,54.4l1.3,1.4l1.8-1.9l-2-3.7l-1.4,3.9L89.4,54.4z"/>
	<path class="st1" d="M91.5,56.9l1-3.1l-1.8,1.9l0.3,0.3L91.5,56.9z"/>
	<path class="st1" d="M40.6,38l2.1-6.3L37.7,38L40.6,38z"/>
	<path class="st1" d="M90.5,50.2l-0.8-5.1l-3.4,4.1L90.5,50.2z"/>
	<path class="st1" d="M89.7,45.1l-0.9-11.6l-2.5,15.7L89.7,45.1z"/>
	<path class="st1" d="M89.1,54.1l1.4-3.9l-2.2,3.3L89.1,54.1z"/>
	<path class="st1" d="M84.3,44.4l2.1,4.7l2.5-15.7L84.3,44.4z"/>
	<path class="st1" d="M55.4,29.9L52,21.3l-3.2,8.1L55.4,29.9z"/>
	<path class="st1" d="M59,22.1l-7-0.8l3.4,8.7L59,22.1z"/>
	<path class="st1" d="M63.9,23.1l-2-0.4L59,22.1l4.5,6.2L63.9,23.1z"/>
	<path class="st1" d="M63.5,28.3L59,22.1l-3.6,7.9L63.5,28.3z"/>
	<path class="st1" d="M70.1,24.8L65,23.4l-1.1-0.3l-0.4,5.2L70.1,24.8z"/>
	<path class="st1" d="M79.2,28.1l-2.1-0.8L73.7,26l3,9.4L79.2,28.1z"/>
	<path class="st1" d="M83.6,30.2l-1.3-0.6l-3.1-1.5l-2.5,7.3L83.6,30.2z"/>
	<path class="st1" d="M73.7,26l-2.4-0.8l-1.2-0.4l0.6,7.3L73.7,26z"/>
	<path class="st1" d="M76.6,35.4l-3-9.4l-3,6.1L76.6,35.4z"/>
	<path class="st1" d="M70.7,32.1l-0.6-7.3l-6.6,3.5L70.7,32.1z"/>
	<path class="st1" d="M45.7,38.2l0.7,0.1l2.3-9l-6.1,2.3l1.1,6.5L45.7,38.2z"/>
	<path class="st1" d="M41.3,37.9l2.5,0.1l-1.1-6.5L40.6,38L41.3,37.9z"/>
	<path class="st1" d="M50.9,39l2.8-2.5l-4.9-7.1l-2.3,9L50.9,39z"/>
	<path class="st1" d="M83.7,50.2l1,0.6l1.6-1.7l-2.1-4.7l-1.8,5.1L83.7,50.2z"/>
	<path class="st1" d="M79.9,43.5l-3.2-8.2l-2,9.3L79.9,43.5z"/>
	<path class="st1" d="M63.5,28.3l-8.1,1.6l5.6,6.6L63.5,28.3z"/>
	<path class="st1" d="M70.7,32.1l-7.2-3.8l-2.5,8.2L70.7,32.1z"/>
	<path class="st1" d="M55.4,29.9l-6.6-0.6l4.9,7.1L55.4,29.9z"/>
	<path class="st1" d="M82.4,49.5l1.8-5.1l-3.2,4.3L82.4,49.5z"/>
	<path class="st1" d="M80.3,48.3l0.8,0.4l3.2-4.3l-4.4-0.9l-1,4.1L80.3,48.3z"/>
	<path class="st1" d="M75,45.9l1,0.4l2.9,1.4l1-4.1l-5.2,1.1L75,45.9z"/>
	<path class="st1" d="M69.4,40.5l1.3-8.3l-9.6,4.4L69.4,40.5z"/>
	<path class="st1" d="M74.7,44.7l2-9.3l-7.3,5.1L74.7,44.7z"/>
	<path class="st1" d="M76.6,35.4l-5.9-3.2l-1.3,8.3L76.6,35.4z"/>
	<path class="st1" d="M61.1,36.6l-5.6-6.6l-1.8,6.5L61.1,36.6z"/>
	<path class="st1" d="M53.1,39.4l0.5-2.9L50.9,39l1.4,0.2L53.1,39.4z"/>
	<path class="st1" d="M56,40l-2.3-3.5l-0.5,2.9L56,40z"/>
	<path class="st1" d="M59.9,40.8l5.6,1.7l-4.5-5.9l-2.2,4L59.9,40.8z"/>
	<path class="st1" d="M68.1,43.3l1.2-2.8l-3.8,2L68.1,43.3z"/>
	<path class="st1" d="M68.1,43.3l5,1.9l1.5-0.5l-5.3-4.2L68.1,43.3z"/>
	<path class="st1" d="M75,45.9l-0.4-1.2l-1.5,0.5L75,45.9z"/>
	<path class="st1" d="M58.8,40.6l2.2-4l-7.4-0.1L56,40L58.8,40.6z"/>
	<path class="st1" d="M79.9,43.5l3.7-13.3l-6.9,5.1L79.9,43.5z"/>
	<path class="st1" d="M84.3,44.4l4.5-11l-3.5-2.1l-1.7-1.1L84.3,44.4z"/>
	<path class="st1" d="M84.3,44.4l-0.7-14.2l-3.7,13.3L84.3,44.4z"/>
	<path class="st1" d="M92,36.1L92,36.1l-2.3,9l4.5-6.8L92,36.1z"/>
	<path class="st1" d="M92,36l-3.2-2.6l0.9,11.6L92,36z"/>
	<path class="st1" d="M88.3,53.5l2.2-3.3l-4.2-1.1L86,51.7L88.3,53.5z"/>
	<path class="st1" d="M86,51.7l0.3-2.6l-1.6,1.7l0.9,0.6L86,51.7z"/>
	<path class="st1" d="M61.1,36.6l8.3,3.9l-3.8,2L61.1,36.6z"/>
	<path class="st4" d="M100.5,55L100.5,55L100.5,55L100.5,55z"/>
	<path class="st4" d="M100.5,55L100.5,55l0-0.1L100.5,55z"/>
	<path class="st4" d="M103.5,29.5l1,0.7l0.3-0.4L103.5,29.5z"/>
	<path class="st4" d="M104.8,29.9l-0.3,0.4l0.3,0.2l0.1,0L104.8,29.9z"/>
	<path class="st4" d="M105.1,29.1l-1.5,0.5l1.3,0.4L105.1,29.1z"/>
	<path class="st4" d="M102,28.5l1.5,1l1.5-0.5L102,28.5z"/>
	<path class="st4" d="M105.9,28.2l-3.9,0.3l3.1,0.5L105.9,28.2z"/>
	<path class="st4" d="M106.2,29.3l-1.1-0.2l-0.2,1.5l0,0.1l-0.1,0.5L106.2,29.3z"/>
	<path class="st4" d="M106.2,29.3l-0.3-1.1l-0.8,0.8L106.2,29.3z"/>
	<path class="st4" d="M107.1,29.6l-1.2-1.4l0.3,1.1L107.1,29.6z"/>
	<path class="st4" d="M106.7,30l0.4-0.4l-0.9-0.3L106.7,30z"/>
	<path class="st4" d="M104.8,31.1l1.8-1.1l-0.5-0.7L104.8,31.1z"/>
	<path class="st4" d="M106.6,31.7l0.5-2.1l-0.4,0.4L106.6,31.7z"/>
	<path class="st4" d="M104.5,33.4l0.3-2.3l-0.6,2.5l0,0.2L104.5,33.4z"/>
	<path class="st4" d="M104.8,31.1l0.4,1l1.4-2.1L104.8,31.1z"/>
	<path class="st4" d="M106.2,31.7l-0.2,2.2l0,0l0.6-2.1l0-0.1L106.2,31.7z"/>
	<path class="st4" d="M105,33.3l-0.2-2.2l-0.3,2.3L105,33.3z"/>
	<path class="st4" d="M105,33.3l1,0.6l0.2-2.2L105,33.3z"/>
	<path class="st4" d="M105.3,32.1l-0.4-1l0.2,2.2L105.3,32.1z"/>
	<path class="st4" d="M105.3,32.1l-0.3,1.2l1.7-3.3L105.3,32.1z"/>
	<path class="st4" d="M104.5,33.4l-0.3,0.4l-0.2,0.9l-0.2,0.7L104.5,33.4z"/>
	<path class="st4" d="M105,33.3l-0.5,0.1l-0.7,1.9L105,33.3z"/>
	<path class="st4" d="M105.5,34.4l0.5-0.5l-1-0.6L105.5,34.4z"/>
	<path class="st4" d="M105.2,37.1l0.3-1.1l0.2-1l0.1-0.3l0.2-0.9l-0.5,0.5L105.2,37.1z"/>
	<path class="st4" d="M104.6,35.1l0.9-0.7l-0.5-1.1L104.6,35.1z"/>
	<path class="st4" d="M105,33.3l-1.2,2.1l0.8-0.2L105,33.3z"/>
	<path class="st4" d="M104.6,35.1l-0.8,0.2l1.1,0.8L104.6,35.1z"/>
	<path class="st4" d="M103.8,35.3l-0.5,1.8l1.6-1L103.8,35.3z"/>
	<path class="st4" d="M104.9,36.2l0.3,0.9l0.3-2.7L104.9,36.2z"/>
	<path class="st4" d="M104.6,35.1l0.3,1l0.6-1.8L104.6,35.1z"/>
	<path class="st4" d="M103.7,38.3l1.2-2.2l-1.6,1L103.7,38.3z"/>
	<path class="st4" d="M103.7,38.3l-0.7-0.1l-0.1,0.4l-0.1,0.5l-0.1,0.3l-0.3,1.1L103.7,38.3z"/>
	<path class="st4" d="M103.7,38.3l-0.4-1.1l-0.3,1.1L103.7,38.3z"/>
	<path class="st4" d="M104.9,36.2l-1.2,2.2l0.6,2.2L104.9,36.2z"/>
	<path class="st4" d="M104.9,36.2l-0.6,4.3l0.3-1.1l0.6-2.3L104.9,36.2z"/>
	<path class="st4" d="M103.7,38.3l-0.2,1.9l0.9,0.3L103.7,38.3z"/>
	<path class="st4" d="M102.5,40.5l-0.5,1.9l0.8-1L102.5,40.5z"/>
	<path class="st4" d="M103.7,38.3l-1.2,2.1l0.3,0.9L103.7,38.3z"/>
	<path class="st4" d="M102.3,43.3l-0.3-0.9l-0.7,2.5l0,0L102.3,43.3z"/>
	<path class="st4" d="M102.8,41.3l-0.8,1l0.3,0.9L102.8,41.3z"/>
	<path class="st4" d="M103,43.5l1.3-3l-0.9-0.3L103,43.5z"/>
	<path class="st4" d="M103.5,40.2l0.2-1.9l-0.9,3L103.5,40.2z"/>
	<path class="st4" d="M103,43.5l0.2,1.4l0.2-0.6l0.4-1.4L103,43.5z"/>
	<path class="st4" d="M103,43.5l0.8-0.6l0.3-1.1l0.3-1.2L103,43.5z"/>
	<path class="st4" d="M102.3,43.3l0.7,0.2l-0.2-2.2L102.3,43.3z"/>
	<path class="st4" d="M102.3,43.3l-1,1.6l0.4,0L102.3,43.3z"/>
	<path class="st4" d="M103,43.5l-1,2.7l1.2-1.3L103,43.5z"/>
	<path class="st4" d="M102.3,43.3l-0.6,1.5l0.3,1.3L102.3,43.3z"/>
	<path class="st4" d="M101.6,44.8l-0.4,0l0.7,1.3L101.6,44.8z"/>
	<path class="st4" d="M102,46.1l1-2.7l-0.7-0.2L102,46.1z"/>
	<path class="st4" d="M101.8,47.9l0.5,0.4l0.2-0.9l0.7-2.6L101.8,47.9z"/>
	<path class="st4" d="M101.8,47.9l1.4-3.1l-1.2,1.3L101.8,47.9z"/>
	<path class="st4" d="M102,46.1l-1.1,2.4l1-0.6L102,46.1z"/>
	<path class="st4" d="M101.2,44.9l-0.4,1.3l-0.7,2.6l0.7-0.3L101.2,44.9z"/>
	<path class="st4" d="M102,46.1l-0.7-1.3l-0.4,3.6L102,46.1z"/>
	<path class="st4" d="M100.9,48.5l-0.7,0.3l-0.1,0.4l-0.9,3.5L100.9,48.5z"/>
	<path class="st4" d="M101,50.2l1.4-1.9l-0.5-0.4L101,50.2z"/>
	<path class="st4" d="M101,50.2l-0.1-1.7l-1.8,4.2L101,50.2z"/>
	<path class="st4" d="M101,50.2l0.9-2.3l-1,0.6L101,50.2z"/>
	<path class="st4" d="M101.7,50.2l0.6-1.9l-1.4,2L101.7,50.2z"/>
	<path class="st4" d="M100.4,52.8l0.6-2.5l-1.9,2.5L100.4,52.8z"/>
	<path class="st4" d="M100.4,52.8l1.3-2.5l-0.8,0L100.4,52.8z"/>
	<path class="st4" d="M100.7,54.1l1-3.9l-1.3,2.5L100.7,54.1z"/>
	<path class="st4" d="M100.1,54.7l0.6-0.6l-0.3-1.3L100.1,54.7z"/>
	<path class="st4" d="M99.5,54.1l-0.4-1.4l-0.4,1.7l-0.1,0.3L99.5,54.1z"/>
	<path class="st4" d="M100.4,52.8l-0.9,1.3l0.6,0.7L100.4,52.8z"/>
	<path class="st4" d="M100.4,52.8l-1.3,0l0.4,1.4L100.4,52.8z"/>
	<path class="st4" d="M100.5,54.9l0.2-0.8l-0.6,0.6l-0.1,1.9l0.1,0l0.4-1.7l0,0L100.5,54.9z"/>
	<path class="st4" d="M99.4,55l0.7-0.3l-0.6-0.7L99.4,55z"/>
	<path class="st4" d="M99.5,54.1l-1,0.6l0.8,0.3L99.5,54.1z"/>
	<path class="st4" d="M100.1,54.7L99.4,55l0.4,1.5l0.2,0.1L100.1,54.7z"/>
	<path class="st4" d="M99.4,55l-0.8-0.3L98.4,56l0.4,0L99.4,55z"/>
	<path class="st4" d="M98.6,54.7l-0.1,0.4L98.2,56l0.2,0L98.6,54.7z"/>
	<path class="st4" d="M99.4,55l0.1,1.3l0.3,0.2L99.4,55z"/>
	<path class="st4" d="M99.4,55l-0.6,1.1l0.5,0L99.4,55z"/>
	<path class="st4" d="M99.4,55l-0.2,1.1l0,0l0.3,0.2L99.4,55z"/>
	<path class="st4" d="M104.8,29.9l0.1,0.6l0.2-1.5L104.8,29.9z"/>
	<path class="st4" d="M106.2,31.7l0.4,0l0.1-1.7L106.2,31.7z"/>
	<path class="st4" d="M105,33.3l1.2-1.6l0.5-1.7L105,33.3z"/>
	<path class="st4" d="M103.5,40.2l-0.7,1.1l0.2,2.2L103.5,40.2z"/>
	<path class="st4" d="M106.9,29l-1.1-0.8l1.2,1.4L106.9,29z"/>
</g>
</svg>
