<?xml version="1.0" encoding="utf-8"?>
<!-- Generator: Adobe Illustrator 22.1.0, SVG Export Plug-In . SVG Version: 6.00 Build 0)  -->
<svg version="1.1" id="Слой_1" xmlns="http://www.w3.org/2000/svg" xmlns:xlink="http://www.w3.org/1999/xlink" x="0px" y="0px"
	 viewBox="0 0 23.8 20.9" style="enable-background:new 0 0 23.8 20.9;" xml:space="preserve">
<style type="text/css">
	.st0{fill:#2C9BD7;}
</style>
<g>
	<path class="st0" d="M1.6,9.3c0-0.6-0.2-1.2-0.7-1.6S0.4,6.6,0.7,6.1C1,5.6,1.6,5.3,2.2,5.4c0.6,0.1,0.9,0.5,1.1,1.1
		c0.1,0.4,0.4,0.8,0.8,1.1C4.6,7.9,5.2,8,5.7,7.8C6.8,7.3,8,7.9,8.2,9c0.3,1-0.4,2-1.2,2.2c-1,0.3-2.2-0.3-2.4-1.4
		c-0.1-0.4-0.2-0.7-0.4-1C3.9,8.4,3.4,8.1,2.8,8.1c-0.2,0-0.4,0.1-0.4,0.3c-0.3,0.7-0.3,1.4,0.1,2c0.1,0.1,0.2,0.3,0.4,0.4
		c0.7,0.7,0.4,2-0.5,2.3c-0.8,0.3-1.6-0.2-1.8-0.8c-0.2-0.5-0.1-1,0.3-1.4c0.3-0.3,0.5-0.6,0.6-1C1.5,9.7,1.5,9.5,1.6,9.3z"/>
	<path class="st0" d="M6.5,16.1c-0.4,0-0.7-0.2-1-0.3c-0.8-0.2-1.7,0.3-2,1.1c-0.1,0.4-0.2,0.7-0.5,1c-0.5,0.5-1.4,0.5-1.9,0
		c-0.8-0.6-0.7-1.8,0.3-2.3c0.3-0.1,0.6-0.2,0.9-0.1c1.2,0.3,2.1-0.2,2.4-1.4c0.1-0.3,0.1-0.6,0.3-0.8c0.4-0.7,1.1-1,1.9-0.9
		c0.7,0.1,1.2,0.5,1.5,1.3c0.3,1.1-0.5,2.1-1.5,2.3C6.7,16.1,6.6,16.1,6.5,16.1L6.5,16.1z"/>
	<path class="st0" d="M10.7,0.3c0.6,0,1.1,0.3,1.3,0.9c0.2,0.5,0.1,1.1-0.3,1.5c-0.3,0.3-0.5,0.7-0.6,1.2c-0.1,0.7,0.2,1.2,0.6,1.6
		c0.1,0.1,0.2,0.2,0.4,0.3C12.2,6,12.2,6,12,6.1c-0.3,0.2-0.5,0.4-0.8,0.5c-0.5,0.4-0.7,0.9-0.8,1.4c0,0.2-0.1,0.4-0.2,0.6
		c0,0.1-0.1,0.1-0.2,0.1C9.2,8.5,8.6,7.6,8.8,6.7c0.1-0.5,0.4-0.8,0.8-1.2c0.5-0.4,0.8-1,0.7-1.8c-0.1-0.4-0.3-0.7-0.5-1
		c-0.8-0.8-0.5-2,0.6-2.4C10.4,0.3,10.5,0.3,10.7,0.3z"/>
	<path class="st0" d="M6.8,3.7c0.8,0,1.4,0.6,1.4,1.4c0,0.8-0.7,1.4-1.4,1.4S5.3,5.8,5.3,5.1C5.4,4.3,6.1,3.6,6.8,3.7z"/>
	<path class="st0" d="M6.8,20c-0.7,0-1.4-0.6-1.4-1.4c0-0.8,0.6-1.4,1.4-1.4c0.8,0,1.4,0.7,1.4,1.5C8.1,19.3,7.5,20.1,6.8,20z"/>
	<path class="st0" d="M11.2,17c-0.6,0.3-1.2,0.6-1.9,0.8c-0.8-0.8-0.7-2.4,0.6-2.9C10.1,15.8,10.8,16.3,11.2,17z"/>
	<path class="st0" d="M14.6,3.7c0.5,0,1.1,0.4,1.3,0.8C16,4.7,16,4.8,15.7,4.8c-0.6,0.1-1.2,0.2-1.9,0.4c-0.2,0-0.4,0.1-0.5,0.2
		c-0.1,0-0.2,0-0.2-0.1C13.1,4.4,13.8,3.6,14.6,3.7z"/>
	<path class="st0" d="M9,12.7c-0.5-0.9-0.2-2,0.7-2.5C9.5,11.1,9.3,11.9,9,12.7z"/>
	<path class="st0" d="M18.4,13c-0.4,1.6-1.9,2.7-3.5,2.7c-2,0-3.7-1.6-3.7-3.7c0-2,1.6-3.6,3.7-3.6c0.7,0,1.3,0.2,1.9,0.5l3.5-3.5
		c-1.5-1.2-3.3-1.9-5.3-1.9c-4.7,0-8.5,3.8-8.5,8.5s3.7,8.6,8.4,8.6c4.3,0,7.9-3.3,8.4-7.5L18.4,13L18.4,13z"/>
</g>
</svg>
