<svg version="1.1" id="animationlogo" xmlns="http://www.w3.org/2000/svg" x="0" y="0" viewBox="0 0 133.7 130" xml:space="preserve"><style>#animationlogo .st0{fill:#326de6}#animationlogo .st1{fill:#fff}#animationlogo .st2{fill:#c4c8cf}#animationlogo .st3{fill:#cbd0d8}#animationlogo .st4{fill:#d0d0d0}</style><g id="bootcamp-logo-with-hat"><path class="st0" d="M89.3 56.8c-.5-1.8-1.9-3.2-3.5-4l-33.4-16c-.9-.4-1.9-.5-2.7-.5-.9 0-1.9 0-2.7.2L13.6 52.6c-1.6.8-2.8 2.2-3.3 4l-8.2 36c-.3 1.9.1 3.7 1.2 5.3l23.1 28.6c1.3 1.3 3.2 2.2 5 2.3h36.8c2 .2 3.8-.7 5-2.3l23.1-28.6c1.1-1.5 1.5-3.4 1.3-5.3l-8.3-35.8z"/><path class="st1" d="M84.2 90.8c-.1 0-.2 0-.2-.1s-.2-.1-.4-.1c-.4-.1-.9-.1-1.3-.1-.2 0-.4 0-.7-.1h-.1c-1.2-.1-2.5-.3-3.7-.7-.3-.1-.7-.4-.8-.8.1 0 0 0 0 0l-.9-.2c.4-3.2.2-6.5-.4-9.6-.8-3.2-2.1-6.2-3.8-9l.7-.7v-.1c0-.3.1-.8.3-1 1-.9 2-1.5 3.1-2.2.2-.1.4-.2.7-.3.4-.2.8-.4 1.2-.7.1-.1.2-.1.3-.2.1-.1 0-.1 0-.2 1-.8 1.2-2.1.4-3.1-.3-.4-1-.8-1.5-.8s-1.1.2-1.5.5l-.1.1c-.1.1-.2.2-.3.2-.3.3-.7.7-.9 1-.1.2-.3.3-.4.4-.9 1.1-1.9 1.9-2.9 2.6-.2.1-.4.2-.7.2-.1 0-.3 0-.4-.1h-.1l-.9.5c-.9-.9-1.9-1.8-2.7-2.6-4-3.2-9.1-5.1-14.2-5.7l-.1-.9v.1c-.3-.2-.4-.5-.5-.9 0-1.2 0-2.4.2-3.7v-.1c0-.2.1-.4.1-.7.1-.4.1-.9.2-1.3v-.7c.1-1.1-.8-2.2-1.9-2.3-.7-.1-1.3.2-1.9.8-.4.4-.7 1-.7 1.5v.5c0 .4.1.9.2 1.3.1.2.1.4.1.7v.1c.2 1.2.2 2.4.2 3.7-.1.3-.2.7-.5.9v.2l-.1.9c-1.2.1-2.4.3-3.7.5-5.1 1.1-9.9 3.8-13.5 7.7l-.7-.4h-.1c-.1 0-.2.1-.4.1s-.4-.1-.7-.2c-1-.8-2-1.6-2.7-2.5-.1-.2-.3-.3-.4-.4-.3-.3-.5-.7-.9-1-.1-.1-.2-.1-.3-.2l-.1-.1c-.4-.3-1-.5-1.5-.5-.7 0-1.2.2-1.5.8-.7 1-.4 2.3.4 3.1.1 0 .1.1.1.1s.2.2.3.2c.3.2.8.4 1.2.7.2.1.4.2.7.3 1.1.7 2.2 1.3 3.1 2.2.2.2.4.7.3 1v-.1l.7.7c-.1.2-.2.3-.3.5-3.4 5.4-4.8 11.7-3.8 17.9l-.9.2c0 .1-.1.1-.1.1-.1.3-.4.5-.8.8-1.2.3-2.4.5-3.7.7-.2 0-.4 0-.7.1-.4 0-.9.1-1.3.1-.1 0-.2.1-.4.1-.1 0-.1 0-.2.1-1.2.2-2 1.3-1.8 2.5.2 1 1.2 1.6 2.2 1.5.2 0 .3 0 .5-.1.1 0 .1 0 .1-.1s.3 0 .4 0c.4-.1.9-.3 1.2-.4.2-.1.4-.2.7-.2h.1c1.2-.4 2.3-.8 3.6-1h.1c.3 0 .7.1.9.3.1 0 .1.1.1.1l1-.1c1.6 5 4.7 9.5 9 12.8 1 .8 1.9 1.4 3 2l-.5.8c0 .1.1.1.1.1.2.3.2.8.1 1.1-.4 1.1-1.1 2.2-1.8 3.2v.1c-.1.2-.2.3-.4.5s-.4.7-.8 1.1c-.1.1-.1.2-.2.3 0 0 0 .1-.1.1-.5 1.1-.1 2.4.9 3 .2.1.5.2.8.2.9 0 1.6-.5 2.1-1.3 0 0 0-.1.1-.1 0-.1.1-.2.2-.3.1-.4.3-.8.4-1.2l.2-.7c.3-1.2.9-2.3 1.4-3.4.2-.3.5-.5.9-.7.1 0 .1 0 .1-.1l.4-.9c3.1 1.2 6.2 1.8 9.5 1.8 2 0 3.9-.2 5.9-.8 1.2-.2 2.4-.7 3.5-1l.4.8c.1 0 .1 0 .1.1.3.1.7.3.9.7.5 1.1 1.1 2.2 1.4 3.4v.1l.2.7c.1.4.2.9.4 1.2.1.1.1.2.2.3 0 0 0 .1.1.1.4.8 1.2 1.3 2.1 1.3.3 0 .5-.1.9-.2.4-.2.9-.7 1-1.2.1-.5.1-1.1-.1-1.6 0-.1-.1-.1-.1-.1 0-.1-.1-.2-.2-.3-.2-.4-.4-.8-.8-1.1-.1-.2-.2-.3-.4-.5v-.4c-.8-1-1.3-2.1-1.8-3.2-.1-.3-.1-.8.1-1.1 0-.1.1-.1.1-.1l-.3-.9c5.6-3.4 9.9-8.6 11.8-14.9l.9.1c.1 0 .1-.1.1-.1.2-.2.5-.3.9-.3h.1c1.2.2 2.4.5 3.5 1h.2c.2.1.4.2.7.2.4.2.8.4 1.2.5.1 0 .2.1.4.1.1 0 .1 0 .2.1.2.1.3.1.5.1 1 0 1.9-.7 2.2-1.5-.1-1.1-1-2-2-2.2zm-31.6-3.4l-3 1.4-3-1.4-.8-3.2 2.1-2.6h3.3l2.1 2.6-.7 3.2zm17.9-7.1c.5 2.3.7 4.6.4 6.9l-10.4-3c-1-.2-1.5-1.2-1.3-2.2.1-.3.2-.5.4-.8l8.2-7.4c1.2 2 2.1 4.2 2.7 6.5zm-6-10.6l-9 6.3c-.8.4-1.9.3-2.4-.4-.2-.2-.3-.4-.3-.8l-.7-11.1c4.9.7 9.2 2.8 12.4 6zm-19.8-5.5l2.2-.4-.5 10.9c0 1-.9 1.8-1.9 1.8-.3 0-.5-.1-.9-.2l-9.1-6.5c2.9-2.8 6.4-4.8 10.2-5.6zm-13.3 9.6l8.1 7.2c.8.7.9 1.8.2 2.5-.2.3-.4.4-.9.5l-10.6 3.1c-.3-4.5.8-9.3 3.2-13.3zm-1.9 18.5l10.8-1.9c.9 0 1.8.5 1.9 1.4.1.3.1.8-.1 1.1L38 103c-3.9-2.5-6.9-6.3-8.5-10.7zm24.9 13.6c-1.5.3-3.1.5-4.7.5-2.3 0-4.7-.4-6.9-1.1l5.4-9.7c.5-.7 1.4-.9 2.2-.4.3.2.5.4.9.8l5.3 9.5c-.8 0-1.5.1-2.2.4zm13.3-9.6c-1.6 2.6-3.9 4.9-6.6 6.6l-4.3-10.3c-.2-.9.2-1.8 1-2.1.3-.1.7-.2 1-.2l10.9 1.9c-.4 1.5-1.1 2.9-2 4.1z"/></g><g id="hat"><path class="st2" d="M2.8 19l-1 2.4L9 17.3 2.8 19z"/><path class="st3" d="M9.1 17.3l-7.2 4.1L7 20.1l2.1-2.8z"/><path class="st3" d="M14.1 18.2l.7-2.5-7.9 4.4 7.2-1.9z"/><path class="st3" d="M22.4 16l-2.3-1.8-6 3.9 8.3-2.1z"/><path class="st3" d="M26.7 12.4l-6.6 1.9 2.3 1.8 4.3-3.7z"/><path class="st3" d="M29.3 14.4l-2.6-1.9-4.3 3.5 6.9-1.6z"/><path class="st2" d="M31.3 11.2l-4.7 1.2 2.6 1.9 2.1-3.1z"/><path class="st3" d="M41.9 8.1l-10.6 3.1-2.1 3.1 12.7-6.2zm-3.2 3.8l3.2-3.8-12.6 6.3 9.4-2.5zm13.5-6.4L41.9 8.1l-3.2 3.8 13.5-6.4z"/><path class="st2" d="M98.1 29.1L94.9 23l-11-4.4 14.2 10.5zM94.9 23l-8.2-6.1-2.8 1.7 11 4.4z"/><path class="st3" d="M52.1 8.4V5.5l-13.4 6.4 13.4-3.5z"/><path class="st2" d="M83.9 18.6l2.8-1.7-10.2-5.1 7.4 6.8z"/><path class="st2" d="M83.9 18.6l-7.4-6.9-2.5-.2 9.9 7.1z"/><path class="st2" d="M77.1 9.6l-11-7.9 10.3 10.1.7-2.2z"/><path class="st3" d="M60.5 3.1l-8.4 2.4 13-.6-4.6-1.8z"/><path class="st2" d="M76.5 11.8L65.2 4.9l8.8 6.6 2.5.3z"/><path class="st3" d="M66.1 1.7l-5.6 1.4L65.1 5l1-3.3z"/><path class="st2" d="M76.5 11.8L66.1 1.7l-1 3.2 11.4 6.9z"/><path class="st3" d="M65.2 4.9l-13 .6v2.9l13-3.5zM14.8 15.7l-5.7 1.6-2.2 2.8 7.9-4.4z"/><path class="st2" d="M131.7 53.8l.5-2.9-6.6-4.2 6.1 7.1z"/><path class="st2" d="M125.4 49.1l6.3 4.6-6.1-7.1-.2 2.5z"/><path class="st2" d="M132.2 50.9l-11.1-8.1 4.4 3.9 6.7 4.2zm-11.5-5.3l4.7 3.6.2-2.4-4.9-1.2zm4.8 1.1l-4.4-3.9-.4 2.7 4.8 1.2z"/><path class="st2" d="M120.7 45.6l.4-2.7-6.1-1.3 5.7 4zm.4-2.8l-10.9-8.2 4.7 6.9 6.2 1.3z"/><path class="st2" d="M115 41.6l-4.7-6.9-3.9.5 8.6 6.4zm-8.6-6.5l3.9-.5-3.7-2.8-.6 2.1.4 1.2zm-1.5-4.5l-.1-.1-3.9-2.7-2.8 1.3 6.8 1.5zm-.1.5l.1-.5-6.8-1.5 6.1 4.5.6-2.5z"/><path class="st2" d="M106.4 35.1l-.4-1.3-.2.9.6.4zm-5.5-7.3l-6-4.8 3.3 6.1 2.7-1.3z"/><path class="st3" d="M20.1 14.3l-5.3 1.4-.7 2.5 6-3.9z"/><path class="st2" d="M86.6 16.9L77 9.6l-.6 2.2 10.2 5.1z"/><path class="st0" d="M14.7 28.8l6.1 3.3 1.9-1.3-8-2z"/><path class="st0" d="M20.7 32.1l5.3 3.2-3.3-4.4-2 1.2zm9.1 5.2l1.3-3.9-5.1 1.8 3.8 2.1z"/><path class="st0" d="M26 35.2l5.1-1.7.1-.2-8.5-2.5 3.3 4.4z"/><path class="st0" d="M22.7 30.8l8.5 2.5v-.1l-6.7-5.7-1.8 3.3z"/><path class="st0" d="M31.2 33.2l.7-2-7.3-3.7 6.6 5.7zm-13.9-8.1l-2.6 3.7 8 2-5.4-5.7z"/><path class="st0" d="M22.7 30.8l1.9-3.3-7.3-2.4 5.4 5.7zM1.8 21.4l12.8 7.4 2.6-3.7-15.4-3.7z"/><path class="st0" d="M6.9 20.1l-5.1 1.3 15.5 3.8-10.4-5.1zm17.7 7.4l7.3 3.7.7-2.2-2.2-2.1-5.8.6z"/><path class="st0" d="M32.6 29l.3-.9-2.5-1.2 2.2 2.1zm.3-.9l.3-.8.1-.3.1-.3-3 .2 2.5 1.2zm-26-8l10.4 5-3.2-6.9-7.2 1.9z"/><path class="st0" d="M24.6 27.5l5.8-.6-6-2.7.2 3.3zm-10.5-9.3l3.2 6.9 7.1-.9-10.3-6z"/><path class="st0" d="M17.3 25.1l7.3 2.4-.1-3.3-7.2.9zm16.6.4l.4-.7.9-.7-6-3.5 4.7 4.9z"/><path class="st0" d="M30.4 26.9l3-.2.3-.9.2-.4-4.8-4.9 1.3 6.4zm0 0l-1.3-6.3-4.7 3.6 6 2.7zm-8-10.9l-8.3 2.2 10.3 6-2-8.2z"/><path class="st0" d="M24.4 24.2l4.7-3.6-6.7-4.6 2 8.2zm4.7-3.6l6 3.5.3-.2 2-1.1 1-.3-.6-1.8-8.7-.1z"/><path class="st0" d="M22.4 16l6.7 4.6.2-6.3-6.9 1.7z"/><path class="st0" d="M29.1 20.6h8.7l-8.6-6.2-.1 6.2zm8.8 0l11.9-2-8.3-2.5-3.6 4.5zm-8.6-6.2l8.6 6.2.9-8.7-9.5 2.5z"/><path class="st0" d="M38.7 11.9l-.9 8.7 3.6-4.5-2.7-4.2zm11 6.7l1.8 2.6h.5l7 .8 2.9.6 1.9-1.3-14.1-2.7z"/><path class="st0" d="M49.7 18.6l14.1 2.8L51.5 15l-1.8 3.6zm1.8-3.6l-12.8-3.1 2.7 4.2L51.5 15z"/><path class="st0" d="M41.4 16.1l8.3 2.5 1.8-3.6-10.1 1.1zM51.5 15l12.3 6.4-3.3-8.6-9 2.2z"/><path class="st0" d="M60.5 12.8l-8.4-4.4-.6 6.6 9-2.2z"/><path class="st0" d="M52.1 8.4l-13.4 3.5L51.5 15l.6-6.6zm13.1-3.5l-13 3.5 8.4 4.4 4.6-7.9zM38.5 22.4l1.1-.3-1.7-1.5.6 1.8z"/><path class="st0" d="M39.5 22.1l1.2-.3h.3l-3.1-1.1 1.6 1.4zm-1.6-1.5l3.1 1.1 2.1-.4 2.7-.2h3l2.7.1-1.8-2.6-11.8 2zm24 2.1l2 .4 1.1.3-1.2-2-1.9 1.3zm15.2 4.6l2.1.8 3.1 1.5 1.3-4.2-6.5 1.9z"/><path class="st0" d="M63.8 21.4l1.2 2 5.1 1.4 1.2.4 1.6-3.1-9.1-.7z"/><path class="st0" d="M72.8 22.1l-1.6 3.1 2.4.8 3.4 1.3 6.5-1.9-10.7-3.3zm-9-.7l9.1.7-1.2-4.4-7.9 3.7z"/><path class="st0" d="M60.5 12.8l3.3 8.6 7.8-3.7-11.1-4.9zm12.3 9.3l10.7 3.3.3-6.7-11 3.4zm-1.2-4.4l1.2 4.4 11-3.5-12.2-.9zm12.3.9l-.3 6.7L98.1 29 83.9 18.6z"/><path class="st0" d="M60.5 12.8l11.1 4.9 2.3-6.2-13.4 1.3z"/><path class="st0" d="M71.6 17.7l12.3.9-9.9-7.1-2.4 6.2zm2.3-6.2l-8.8-6.6-4.7 7.9 13.5-1.3zm9.7 13.9l-1.3 4.2 1.3.6 1.7 1.1 6.7 1.1-8.4-7z"/><path class="st0" d="M83.6 25.4l8.4 7.1 6.2-3.3-14.6-3.8zM100.5 55l7.3-.5v-3.2l-7.3 3.7zm7.4-.5l7.1-.1-7.2-3.1.1 3.2zm-5.4-7.1l-.2.9-.6 1.9-1 3.9-.2.8v.1l7.3-3.7-5.3-3.9z"/><path class="st0" d="M107.8 51.3l7.2 3.1-.5-5.5-6.7 2.4zm7.2 3.1l8-.4-8.4-5.1.4 5.5z"/><path class="st0" d="M107.8 51.3l6.7-2.4-9.4-5.1 2.7 7.5zm-4.4-7l-.2.6-.7 2.6 5.3 3.9-2.7-7.5-1.7.4zm22 4.8L123 54l8.7-.3-6.3-4.6z"/><path class="st0" d="M114.5 48.9L123 54l2.4-4.9-10.9-.2z"/><path class="st0" d="M114.5 48.9l10.8.2-4.7-3.6-6.1 3.4zm-10.8-6l-.4 1.4 1.8-.5-1.1-2.1-.3 1.2zm1.4.9l9.4 5.1.5-7.4-9.9 2.3z"/><path class="st0" d="M115 41.6l-.5 7.4 6.2-3.4-5.7-4zm-10.7-1.1l-.3 1.2 1.1 2.1 9.9-2.2-10.4-2.1-.3 1zm.9-3.4l-.6 2.3 10.4 2.1-8.7-6.4-.9.9-.2 1.1zm-19.9-5.8l3.5 2.1L92 36l-.1-3.6-6.6-1.1zm6.6 1.1l4.6 8.4 6-1.8-10.6-6.6z"/><path class="st0" d="M91.9 32.4L92 36l2.1 2.1 1.2 2 .4.9.8-.4-4.6-8.2zm11 6.2l.1-.4.3-1.1.5-1.8.2-.7-12-2.2 10.6 6.6.3-.4zm2.6-2.6l.9-.9-.6-.1-.3 1z"/><path class="st0" d="M105.7 35l.6.1-.6-.4v.3zm-1.5-1.2v-.2l-6.1-4.5-6.2 3.3 12 2.2.3-.8zm-5.5 20.6L94 52.8l-.6 2.5 5-.2.1-.4.2-.3z"/><path class="st0" d="M99.1 52.7l.9-3.5-.3-4-5.2 5.2-.5 2.4 4.7 1.6.4-1.7z"/><path class="st0" d="M100.9 46.2l-1.2-.9.3 4 .1-.4.8-2.7zM96 44.1l-1.5 6.4 5.2-5.2-3.7-1.2z"/><path class="st0" d="M101.2 44.9l-1.6.4 1.2.9.4-1.3z"/><path class="st0" d="M96.6 40.8l-.8.4.5 1.4-.2 1.2-.1.3 3.7 1.2-3.1-4.5zm5.4 1.5l.5-1.9.3-1.1-.2-.4-2.9 6.2 1.6-.4.7-2.4z"/><path class="st0" d="M96.6 40.8l3.1 4.4 2.9-6.2-6 1.8zm6-1.8l.2.4.1-.3-.3-.1z"/><path class="st0" d="M102.9 38.6l-.4.4.3.1.1-.5zm-7.5 19.8l.3 1.2.5-.1-.8-1.1z"/><path class="st0" d="M96.2 60.1l-.1-.6-.5.1.4.8.2-.3zm0-3.3l-.8 1.5 1-.9-.2-.6zm.3.7l-1 .9.7 1.2.3-2.1zm1.2-1.5l-1.5.8.3.7 1.2-1.5z"/><path class="st0" d="M96.3 59.8l-.2-.3.1.6.1-.2v-.1zm4.5.8l.4-1.1-1.3 1.7.9-.6z"/><path class="st0" d="M101.3 59.1l-.3-1.8.2 2.2.1-.4zm-2-3h-1.6l.3.7 1.3-.7z"/><path class="st0" d="M98 56.7l-.3-.7-1.3 1.5 1.6-.8zm3 .6l-.9-.6h-.1l-.2-.1-.3-.2-.3-.2 1.3 1.4.5-.3zm-4.7 2.5l.1-.2-.3-.1.2.3z"/><path class="st0" d="M97.6 58.8v-.9l-1.5 1.6.3.1.1-.1.4-.4.7-.3zm.4-2.1l-1.6.8 1.2.4.4-1.2z"/><path class="st0" d="M96.5 57.5l-.3 2 1.5-1.6-1.2-.4zm4.7 2l-.2-2.2-.6 1.9.8.3zm-1.3 1.7l1.3-1.7-.8-.3-.5 2z"/><path class="st0" d="M100.4 59.2l.6-1.9-.5.2-.1 1.7zm-1 .5l.1.2.1.3-.1.7.3.3.4-2-.8.5z"/><path class="st0" d="M99.6 61.2h.4l-.3-.3-.1.3zm.9-3.7l-1.3-1.4v1.8l1.3-.4z"/><path class="st0" d="M99.3 57.9v-1.8l-1.3.6 1.3 1.2z"/><path class="st0" d="M99.3 57.9L98 56.7l-.4 1.2h1.7z"/><path class="st0" d="M100.5 57.5l-1.3.4 1.1 1.3.2-1.7z"/><path class="st0" d="M98.6 59l.4.2.3-1.3-.8 1 .1.1z"/><path class="st0" d="M99 59.2l.4.3.1.1.9-.5-1.1-1.3-.3 1.4zm-1.4-.4h.5l.3.1.8-1h-1.6v.9zm2 2.5l.4-.1-.4.1z"/><path class="st4" d="M96.3 59.9v-.1.1zm-4.4 22.5l-.2.7-.1.5.3-1.2zM93 84l.1-.2-.1.2z"/><path class="st4" d="M91.9 82.4l-.4 1.2.4.3.2-1.4-.2-.1zm.7.1l-.6 1.4 1-1.2-.4-.2zm.3 1.2l.2-.9-.1-.1-1 1.2 1 .1.1-.2-.2-.1z"/><path class="st4" d="M92.3 82.4l.1-.2-.1.2-.2.1-.1 1.4.6-1.4-.3-.1zM90 83zm.8-.9l.1-.3-.4.8-.1-.1-.2.5H90v.1l.9.5.2-1.4-.3-.1z"/><path class="st4" d="M91.4 82.3l-.6 1.3 1-1.2-.4-.1zm.4.1l-1 1.2.7.1.2-.5.2-.7-.1-.1zm-.8-.3l-.2 1.4.6-1.3-.4-.1zm-.8.9l-.4-.4-.8.3 1 .1h.2z"/><path class="st4" d="M89.9 82.3l-.1.2v.2l.3-.3-.2-.1zm-1 .2l.1.4.8-.2-.9-.2z"/><path class="st4" d="M89.8 82.4l-.1.2-1-.3.2.2.9.1v-.2z"/><path class="st4" d="M89.8 82.6l.4.4.2-.5-.3-.2-.3.3zm3.2 1.2l.2.2 1 .4-1.3-.7.1.1zm.3-.9l-.2-.1-.2.9.4-.8zm.9 1.1l-1.2-.3 1.3.7-.1-.4zm-.5-1.1v.1-.1zm.6 1.5l.1-.4h-.1v.4z"/><path class="st4" d="M93.9 83.8v-.2h-.1l-.1-.5v-.2h-.3l-.5.8 1.3.2-.3-.1zm2.4-23.9v-.2.2zm0 0l-.1.2.1-.2zm-1.4 3.9v.1l.3-.8.1-.4-.4 1.1z"/><path class="st4" d="M94.7 64.4l.2-.5v-.1l-.7 1.8.1-.1.4-1.1z"/><path class="st4" d="M94.1 66.2l.2-.5v-.2l-.9 2.6.3-.5.4-1.4z"/><path class="st4" d="M94.3 65.5l-.1.1v.2l.1-.3zm-.8 2.5l.1-.4-.3.5h.1l.1-.1zm-.1.2l-.6 1.2.2-.3.4-.9zm-.5 1.3h-.1l-.4 1.1.3-.3.2-.8zm.2-.4l-.2.3h.1l.1-.3z"/><path class="st4" d="M92.6 70.2l-.3.3-.4 1.1.4-.6.3-.8z"/><path class="st4" d="M92.3 70.9l-.4.6h.1l.3-.6zm-.2.7H92l-.5 1.2.4-.5.2-.7z"/><path class="st4" d="M91.8 72.3l-.4.5h.2l.2-.5z"/><path class="st4" d="M91.7 72.7h-.2v.5l.2-.5zm-.7 1.8l.5-1.3v-.5l-1 3 .3-.6.2-.6zm-.4 1.2h-.1L90 77l.4-.5.2-.8z"/><path class="st4" d="M90.8 75.1l-.3.6h.1l.2-.6zm-.7 1.8l.2-.3v-.1l-.3.5.1-.1zm0 .1l-.8 1.8.2-.3.6-1.5z"/><path class="st4" d="M89.5 78.5l-.2.3h.1l.1-.3zm-.2.5l.1-.1h-.1l-.6 1.5.3-.4.3-1z"/><path class="st4" d="M88.8 80.6l.1-.3h-.2l-.6 1.9.2-.4.5-1.2zm.2-.8l-.3.4h.2l.1-.4z"/><path class="st4" d="M89 82.1h-.9l.6.2 1 .3-.7-.5z"/><path class="st4" d="M88.3 81.8l-.2.4h.9l-.7-.4zm6.1 2.3l.2.1.8.2-.8-.3h-.2zm-.2-.1l-.3-.2.3.2z"/><path class="st4" d="M94.6 84.1l.8.3-.3-.3h-.5zm-.4-.2v-.1h-.3l.3.1z"/><path class="st4" d="M95.1 84.1l.3.3.1-.4-.4.1zm-1.2-.3h.3v-.2h-.3v.2zm3-24.7l-.4.4-.1.1-.1.2v.2l-.1.2-.1.3-.3.7 1.1-2.1z"/><path class="st4" d="M96.3 61l-.5.1-.5 1.5-.1.4 1.1-2zm.2-.7l.4-1.2-1.1 2 .5-.1.2-.7zm-.2.7l-1.1 2.1.4-.1.7-2z"/><path class="st4" d="M95.2 63.1l-.3.8-.2.5.8-1.4-.3.1zm.4-.1l.1-.2.6-1.7-.8 2 .1-.1z"/><path class="st4" d="M95.5 63l-.8 1.4.3.2.5-1.6z"/><path class="st4" d="M94.7 64.4l-.4 1.1-.1.3-.2.5 1-1.7-.3-.2zm.9-1.4h-.1l-.5 1.6v.1l.6-1.7zm-1.1 3.4l.6-1.7v-.1l-.9 2.6.3-.3v-.5zm-.4-.2l-.5 1.4-.1.4.7-.9-.1-.9z"/><path class="st4" d="M95 64.6l-1 1.7.1.9.9-2.6z"/><path class="st4" d="M94.1 67.2l.1.1.1-.4-.2.3z"/><path class="st4" d="M94.3 67.2l-.1-.1-.7.9.6-.3.2-.5z"/><path class="st4" d="M94.1 67.7l-.6.3.4.4.2-.7z"/><path class="st4" d="M93.5 68l-.1.2-.3.9-.1.4.2.3.3-1.8zm-.6 1.5l-.3.7-.3.7-.3.7 1.1-1.8-.2-.3z"/><path class="st4" d="M93.6 69.4l.3-1-.4-.4-.3 1.7.4-.3zm-.4.4l-1.1 1.8.4-.1.7-1.7z"/><path class="st4" d="M92.1 71.6l-.3.7-.1.4-.2.6 1-1.8-.4.1zm1.3-1.9l.1-.3-.4.4v.6l.3-.7z"/><path class="st4" d="M93.2 70.4v-.6l-.7 1.7h.3l.4-1.1z"/><path class="st4" d="M92.7 71.5h-.3l-.4 1.2.4-.3.3-.9zm-1.2 1.8l-.5 1.2 1-1.8-.5.6z"/><path class="st4" d="M92.5 71.5l-1 1.8.6-.6.4-1.2z"/><path class="st4" d="M92.4 72.3l-.4.4h.2l.2-.4zM91 74.5l-.2.6-.2.6-.2.7v.1l.8-1.3-.2-.7z"/><path class="st4" d="M92 72.7l-1 1.8.1.8.9-2.6zm.1.4l.1-.4H92v1l.1-.6z"/><path class="st4" d="M92 73.7v-1.1l-.9 2.6.4-.2.5-1.3zm-.5 1.4l-.4.2.2.4.2-.6zm-.4.2l-.8 1.3-.2.3h.4l.6-1.6z"/><path class="st4" d="M91.4 75.7l-.2-.4-.6 1.6.6-.5.2-.7zm-1.3 1.2l-.6 1.6-.1.3-.1.2 1.2-2-.4-.1z"/><path class="st4" d="M91 77l.1-.5v-.1l-.6.5.5.1zm-.5-.1l-1.2 2 .5-.3.7-1.7z"/><path class="st4" d="M90.9 77.1l-.4-.2-.7 1.8.9-1 .2-.6zm-1.1 1.6l.5.1.4-1.1-.9 1z"/><path class="st4" d="M89.3 79l-.3.8-.1.4-.1.3 1.1-1.9-.6.4z"/><path class="st4" d="M90.2 79.1l.1-.3-.5-.1-1.1 1.9 1.3-1.3.2-.2zm-1.9 2.7l.7.3.2-.3h-.9z"/><path class="st4" d="M89.3 81.6l.5-1.4.3-1-1.3 1.3.4 1.2.1-.1zm.3.5l-.3-.4-.1.1.5.7.1-.2.1-.2h-.3zm-.8-1.5l-.5 1.2.9.1-.4-1.3zm.5 1.1l-.1.1.1-.1zm10.4-21.5l-.1-.3-.1 1.9.1.4.1-2zm-.6 1.5l.5-1.8-.1-.2-.1-.1-.3 2.1zm.3.2l-.2.7.3-.5-.1-.4v.2z"/><path class="st4" d="M99 63.9l.2.3.4-2.1-.3.5-.3 1.3zm-.1.1l-.2 1 .4-.8-.2-.2z"/><path class="st4" d="M98.6 65.5h.3l.3-1.4-.4.8-.2.6z"/><path class="st4" d="M98.6 65.6l-.3 1.3.6-1.4-.3.1zm-.4 1.8l.3.1.4-2-.6 1.4-.1.5zm-.1.4v1.6l.3-1.9-.3-.1v.4zm-.5 1.1v.6h.1l.2-1.2-.3.5v.1z"/><path class="st4" d="M98 68.2l-.1.1-.2 1.2.4-.2v-1.6l-.1.5zm-.4 1.5l.1-.2h-.1v.2zm0 .8v.3l.6-1.4-.4.2-.2.9z"/><path class="st4" d="M97.6 70.5l.2-1-.1.2-.1.8zm-.1.4h.4l.2-1.5-.6 1.4v.1z"/><path class="st4" d="M97.5 70.9v.2l.1 1.9.3-2.2-.4.1zm-.1.8l-.3 3 .2-.2.3-1.4-.1-1.9-.1.5zm-.5 2.8l.2.2-.1-.5-.1.3z"/><path class="st4" d="M97 74v.2l.2.5.3-3-.2 1.1L97 74zm-.1.8l.3-.1-.2-.2-.1.3z"/><path class="st4" d="M97.1 76.3l.3-1.8-.2.2-.1 1.6z"/><path class="st4" d="M96.8 75.3l.3 1 .1-1.6-.4.6z"/><path class="st4" d="M96.8 75.3l.4-.6-.3.1-.1.5zm-.2 3.6l.3-1.7-.4 1 .1.7zm-.1-.8l.4-1 .1-.8-.3-1-.2 2.8z"/><path class="st4" d="M96.2 78l.3.2.2-2.8-.3 1.4-.2 1.2z"/><path class="st4" d="M96.2 78.4l.4-.3-.4-.1v.4z"/><path class="st4" d="M96.3 79l.3-.1-.1-.8-.2.9z"/><path class="st4" d="M96.1 78.7l.2.3.3-.9-.4.3-.1.3z"/><path class="st4" d="M96 79.3l.3-.3-.2-.3-.1.6zm-.1 1.6l.8-2-.4.1-.4 1.9z"/><path class="st4" d="M96.3 81.1l.3-2.2-.8 2 .5.2z"/><path class="st4" d="M95.9 80.3l-.1.6.1.1.4-1.9-.3.2-.1 1zm-.2.9l.2-.2-.1-.1-.1.3zm-1.5 2.4v.4-.4z"/><path class="st4" d="M95.7 82.2l.7-1.1-.5-.2-.2 1.3zm-.2-.1h.2l.2-1.2-.2.2-.2 1z"/><path class="st4" d="M96.1 83l.3-1.9-.7 1.1.4.8zm-1.9 1h.9l.3-.1.2-.1-1.4.2zm1.5-.1l.3-.9-.4-.8.1 1.7z"/><path class="st4" d="M94.2 84l1.6-.1-.9-.1-.7.2zm.6-.2l.1-.2h-.1v.2zm.6-1.5l-.2.7.4-.8h-.2v.1z"/><path class="st4" d="M95.2 83l-.2.6h-.1l-.1.2.9.1-.1-1.7-.4.8zm-.4.6h-.5l-.1.4.6-.3v-.1zm.9-15.8l-.1.2.1.2.4-1.3-.4.9z"/><path class="st4" d="M95.9 67.8l-.3.4.2.1.1-.5zm.1-.3l.3-1.3-.3.7-.4 1.3.3-.4.1-.3zm-.8 1.1l.4-.5V68l-.4.6z"/><path class="st4" d="M95.6 68.8l.1-.6-.2-.1-.4 1.3.3-.3.2-.3z"/><path class="st4" d="M95.3 69.4l.4-1.3-.4.5-.1.2-.1.6h.2zm.3-.2l-.3.3.2.1.1-.4z"/><path class="st4" d="M95.3 70.3l.2-.7-.2-.1-.3 1 .3-.2zm-.2-.9l-.1.4.3-.4h-.2z"/><path class="st4" d="M95 70.5l.3-1.1-.3.4v.1l-.2.7.2-.1zm-.1 1.2l.2-.7-.4.6.2.1z"/><path class="st4" d="M95.1 71l.2-.7-.3.2-.3 1.1.4-.6z"/><path class="st4" d="M95 70.5l-.2.2-.3.9h.1l.4-1.1z"/><path class="st4" d="M94.5 71.5l-.1.2.2-.2h-.1zm.2.9l-.4.4.3.1.1-.5z"/><path class="st4" d="M94.9 71.7l-.2-.1-.4 1.2.4-.4.2-.7z"/><path class="st4" d="M94.5 71.8l-.1.3-.2.7h.2l.4-1.2-.3.2zm-.2 1l.2.6.1-.5v-.1h-.3z"/><path class="st4" d="M94 73.2l-.1.2.4-.6h-.2l-.1.4z"/><path class="st4" d="M94.5 73.4l-.2-.6-.9 3 .8-1.1.3-1.3z"/><path class="st4" d="M93.9 73.4l-.7 1.8.2.6.9-3-.4.6zm-.5 2.4l.5.2.2-.9.1-.5-.8 1.2z"/><path class="st4" d="M92.7 76.2l-.2.7 1-1.1-.7.2-.1.2zm.5-.9l-.4.7.6-.2-.2-.5z"/><path class="st4" d="M92.5 76.9v.1l1-1.2-1 1.1zm.6.2l.5.3.3-1v-.1l-.8.8z"/><path class="st4" d="M93.9 76l-.5-.2-.4 1.3.8-.9.1-.2z"/><path class="st4" d="M92.4 77l.6.1.4-1.3-1 1.2zm.7.1l-.7 1.7 1.2-1.4v-.1l-.5-.2z"/><path class="st4" d="M92.4 77v1.8l.7-1.7-.7-.1zm0 .4V77v.4zm-.6 2l.5-.6v-1.3l-.5 1.9z"/><path class="st4" d="M93.6 77.4l-1.2 1.4.7.5v-.2l.5-1.7zm-2.7 4.4l-.1.3.2-.5-.1.2zm1.9-1.2l.1-.5-.1.5zm0 .1zm-.7-.3l1-1-.7-.5-.3 1.5z"/><path class="st4" d="M91.7 79.7l.4.7.3-1.6-.5.6-.2.3z"/><path class="st4" d="M92.8 80.7l.1-.5.2-.8-1 1 .7.3zm0 0l-.4 1.7.1-.2.3-1.5zm-2 1.4l.2.1.4.1.3.1h.1l.2.1-.9-.4h-.3z"/><path class="st4" d="M92.2 82.5l.1-.1-1-.2.9.3zm-.6-2.3l-.6 1.3-.2.5.5.1.3-1.9zm-.3 1.9l1.5-1.5-.6-.3-.9 1.8z"/><path class="st4" d="M91.3 82.1l1 .2.4-1.7-1.4 1.5z"/><path class="st4" d="M91.7 79.7l-.1.4v.1l-.3 2 .8-1.8-.4-.7zm4-16.9l.7-1.8.1-.7-.2.7-.6 1.8z"/><path class="st4" d="M96.4 61l1.2-2.2-.7.3-.5 1.9z"/><path class="st4" d="M96.4 61l.5-1.9-.4 1.2-.1.7z"/><path class="st4" d="M97.1 61.1l.5-2.2-1.2 2.1.7.1z"/><path class="st4" d="M97.1 61.1l.3-.1.1-.5.4-1.7h-.3l-.5 2.3zm0 0l-.7-.1-.6 2 1.3-1.9z"/><path class="st4" d="M96.4 61l-.7 1.8v.2l.7-2zm.7 1.2l.3-1.3-.3.1v1.2zm0-1.1L95.8 63l.7.1.6-2z"/><path class="st4" d="M96.4 63l.5.1V63l.2-.8V61l-.7 2zm-.6 0l-.7 1.7.3-.4.4-1.3zm.6 0h-.6l-.4 1.3 1-1.3z"/><path class="st4" d="M95.1 64.7l-.6 1.7.8-2.1-.2.4zm1.7-1.2l.1-.4-.5-.1-.5 1.6.9-1.1z"/><path class="st4" d="M96.4 63l-1.1 1.2.6.3.5-1.5zm.3 1.3l.2-.8-.9 1.1.7-.2v-.1zm-.2.8l-.2.4v.3l.1-.4.1-.3z"/><path class="st4" d="M96.6 64.4l-.7.2.4.8.3-.8v-.2z"/><path class="st4" d="M96.6 64.6l-.3.8.2-.4.1-.4zm-1.3-.3l-.8 2.1.2-.2.6-1.9zm0 0l-.6 1.9 1.1-1.5-.5-.4zm-.8 2.1l-.1.4-.1.4-.2.5-.2.7.3-.5.3-1.5z"/><path class="st4" d="M94.5 66.4l-.3 1.5.6-1.8-.3.3zm1.5.5l.3-.7v-.1l-.7 1.5.1.3.3-1zm.3-1.1v-.3l-.7 2.1.7-1.5v-.3zm-2.1 2.1l-.3.5-.3 1-.1.3.7-1.8zm1.7-3.3l-.9 2.6 1.2-1.7-.3-.9z"/><path class="st4" d="M94.7 66.1l-.6 1.8.9-.7-.3-1.1z"/><path class="st4" d="M95 67.2l.5.4.7-2.1-1.2 1.7z"/><path class="st4" d="M95 67.2l-.9.7 1.4-.4-.5-.3zm-.3-1.1l.3 1 .9-2.6-1.2 1.6zm.9 1.4l-1.4.4.9.9.5-1.3z"/><path class="st4" d="M95.6 68l.1-.2-.1-.3-.4 1.3.1-.2.3-.6zm-1.4-.1l-.7 1.8.3-.4.4-1.4z"/><path class="st4" d="M94.2 69.8v-1.9l-.5 1.4.5.5z"/><path class="st4" d="M95.1 68.8l-.9-.9v1.9l.9-1zm-1.4.5l-.8 2.1 1.2-1.6-.4-.5z"/><path class="st4" d="M93.7 69.3l-.3.4-.5 1.7.8-2.1z"/><path class="st4" d="M93.4 69.7l-.2.7-.4 1.1-.3.8-.2.4-.1.4.8-1.7.4-1.7zm1.7-.9l-1 .9.1 1.9.9-2.8zm-.6 3l.1-.2.3-.9.1-.7-.7 1.7.1.4.1-.3z"/><path class="st4" d="M95 70v-.1l.1-.4.1-.6-.9 2.8.7-1.7zm-2.1 1.4l.6.2.6-1.7-1.2 1.5z"/><path class="st4" d="M92.9 71.4l-.8 1.7 1.4-1.5-.6-.2zm1.3-1.6l-.6 1.7.7.1-.1-1.8zm0 2.9l.2-.7-.5.8.1.3.2-.4z"/><path class="st4" d="M94.3 71.7l-.4 1.2.5-.8-.1-.4zm-.7-.2l-.4 1.2 1.1-1-.7-.2z"/><path class="st4" d="M94.3 71.7l-1.1 1 .7.2.4-1.2zm-.7-.2L92.2 73l1-.4.4-1.1zm-1.5 1.6l-.1.6v.1l-.1.7.2-1.4zm1.1-.4l-1 .4-.2 1.3 1.2-1.7z"/><path class="st4" d="M92 73.7l-.5 1.4-.2.6-.3.8v.1l.9-2.1.1-.8zm1.2 1.5l.7-1.8.1-.2-.9 1.8.1.2zm.6-2.3l-.7-.2V75l.7-2.1z"/><path class="st4" d="M93.8 72.9l-.7 2.1.9-1.8-.2-.3zm-1.9 1.5l-.9 2.1 1.2-1.2-.3-.9zm0 0l.4.9.9-2.6-1.3 1.7z"/><path class="st4" d="M93.2 72.7l-.9 2.6.8-.3.1-2.3z"/><path class="st4" d="M93.1 75l-.8.3.4.8.4-1.1zm.1.3l-.1-.3-.4 1.1.1-.2.4-.6z"/><path class="st4" d="M91.1 76.6l.1.3 1.2-1.5-1.3 1.2z"/><path class="st4" d="M91 77l.2-.2-.1-.3-.1.5z"/><path class="st4" d="M91 77l-.3.7-.4 1.1-.1.3.9-2.3-.1.2zm1.4 0v-.1l-.1.3.1.3V77z"/><path class="st4" d="M92.7 76.2l-.9.8.6.3.1-.3.2-.8zm-.4-.9l-1.2 1.5.6.1.6-1.6zm0 0l-.5 1.6.9-.8-.4-.8z"/><path class="st4" d="M91.1 76.8l-.7 2 1.4-1.9-.7-.1zm-.9 2.3l-.1.2-.3 1 .6-1.4-.2.2z"/><path class="st4" d="M91.1 76.8l-.9 2.3.2-.2.7-2.1zm.7 2.6l.6-1.9-.7 1.4-.2 1.2.1-.4.2-.3z"/><path class="st4" d="M91.8 78.9l.7-1.4-.1-.3-.6 1.7zm-.1-2l-1.4 1.9.8-.1.6-1.8z"/><path class="st4" d="M91.1 78.7l.6.2.5-1.7-1.1 1.5z"/><path class="st4" d="M91.1 78.7l1.2-1.5-.6-.3-.6 1.8zm-1.8 2.9l.3.5.3.1.2.1.3.2.1.1-1.2-1zm1.1-2.7l-.3 1.7 1.1-1.8-.8.1z"/><path class="st4" d="M89.8 80.3l-.5 1.4.8-1-.3-.4zm.3.3l1.7-1.6-.6-.2-1.1 1.8z"/><path class="st4" d="M90.4 78.9l-.6 1.4.3.3.3-1.7zm-1.1 2.7l1.3 1V82l-1.3-.4z"/><path class="st4" d="M90.1 80.6l.5 1.4 1.2-3-1.7 1.6zm1.5-.4l-1 1.8v.6l.4-.8.1-.2.5-1.4z"/><path class="st4" d="M89.3 81.6l1.3.3-.5-1.4-.8 1.1zm1.3.4l1-1.9.2-1.2-1.2 3.1zm6.9-21.5l.6-1.3v-.4h-.2l-.4 1.7zm.4-.2l1-1.1-.3-.2-.7 1.3z"/><path class="st4" d="M97.7 61.7l.3-1.4.1-1.1-.6 1.3.2 1.2zm-.6.5l-.2.8.7-1v-.2l-.2-1.2v.4l-.3 1.2zm.3 1.3l.2-1.2.1-.4-.7 1 .3.7.1-.1zm-.7.8l.5-.6-.3-.7v.1l-.1.4-.1.8z"/><path class="st4" d="M96.6 64.6l-.1.5-.1.3.8-1.7-.5.6v.1l-.1.2zm.3.9l.3-1.8-.8 1.7.5.1z"/><path class="st4" d="M97 65.5l.4-2-.2.1-.2 1.9zm-.1 0l-.5-.1-.1.4v.3l-.3 1.4.9-2z"/><path class="st4" d="M96.4 67.5l.5-2-.9 2h.4z"/><path class="st4" d="M96.4 67.5l.2-.3.1-.3.2-1.3-.1-.1-.4 2zm-.5.3l-.1.5-.1.6.8-1.3H96l-.1.2zm.7 0l.1-.6-.2.3.1.3z"/><path class="st4" d="M95.6 68.8l.8-.2.1-.9-.1-.3-.8 1.4zm.3.8l.4-.5v-.2l.1-.3-.8.2.3.8zm.3.1l.1-.5-.4.5h.3z"/><path class="st4" d="M95.4 69.6l-.2.7-.1.7-.2.7 1.1-2-.3-.8-.1.3-.2.4z"/><path class="st4" d="M95.4 71.7l.5-2.1-1.1 2 .6.1z"/><path class="st4" d="M95.4 71.7l.6-.9.1-.5.1-.6-.3-.1-.5 2.1zm.5-.3l.1-.5-.6.9.5-.4z"/><path class="st4" d="M94.7 72.4l-.1.4v.1l.8-1.2-.5-.1-.2.8z"/><path class="st4" d="M95.7 71.9l.1-.5-.5.4.4.1z"/><path class="st4" d="M95.1 73l.3-1.2-.8 1.2h.5z"/><path class="st4" d="M95.1 73l.5-.5v-.2l.1-.5-.3-.1-.3 1.3z"/><path class="st4" d="M95.5 73.1l.1-.6-.5.5.4.1zm-.9-.1l-.1.5-.3 1.3-.1.5 1-2.2-.5-.1z"/><path class="st4" d="M94.1 75.1h.5l.5-2.2-1 2.2zm.5.1l.7-1 .1-.7.1-.4-.4-.1-.5 2.2z"/><path class="st4" d="M94.1 75.1l-.2.9v.3l.8-1.2h-.6z"/><path class="st4" d="M95 76.1l.2-1.5.1-.5-.7 1 .4 1zm-.1.2h-1.1l-.3 1v.1l1.3-1 .1-.1z"/><path class="st4" d="M94.6 75.2l-.8 1.2h1.1v-.2l-.3-1zm.3 1.2l-1.3 1h.5l.8-1zm0 .3v-.2l-.8.9.6.1.2-.8zm-1.3.7l-.4 1.7.9-1.7h-.5zm.8 1.6l-.2.4.1.1.1-.5zm.2-.9l-.4 1.3.2-.4.2-.9z"/><path class="st4" d="M94.6 78l.1-.4-.6-.1.1 1.9.4-1.4zm-1.4 1.2l.3.9.6-2.6-.9 1.7z"/><path class="st4" d="M94.1 77.4l-.6 2.6.7-.7-.1-1.9z"/><path class="st4" d="M93.2 79.2v.2l-.2.8-.1.5v.1l-.4 1.5-.1.2 1.2-2.3-.4-1zm1.1.3l-.1-.1-.2 1.4.1-.7.2-.6z"/><path class="st4" d="M94.1 80.7l.2-1.4-.7.7.5.9v-.2zm-.8 2l-1-.3.2.1.4.2.1.1.2.1.1-.2zm.5.2l-.5-.2.1.2h.4zm-.3-2.8l-1.2 2.3 1 .3.2-2.6z"/><path class="st4" d="M93.9 81.4l.1-.4-.7 1.6.6-.8v-.4zm0 .5l-.6.8.5.2.1-1z"/><path class="st4" d="M94 80.9l-.5-.9-.2 2.7.7-1.6v-.2zm3.9-20.6l.7-1.3h-.1l-.3-.1v.4l-.3 1z"/><path class="st4" d="M97.9 60.3l.5.2.5-1.3-1 1.1z"/><path class="st4" d="M97.7 61.7v.2l-.1.4.9-1.9-.5-.2-.3 1.5zm1.4 0l.3-2.1-.4-.4.1 2.5z"/><path class="st4" d="M99.1 61.7l.3.3v-.2l.1-1.9-.4 1.8z"/><path class="st4" d="M98.5 60.5l.6 1.2-.1-2.5-.5 1.3z"/><path class="st4" d="M98.5 60.5l-.5 2.6 1.1-1.4-.6-1.2zm-1.1 3l.6-.5-.4-.7-.2 1.2z"/><path class="st4" d="M97.6 62.4l.4.7.5-2.6-.9 1.9zm1 1.3l.7-1.7-.3-.3-.4 2zm.3.3l.3-1.3.2-.7-.7 1.7.2.3z"/><path class="st4" d="M98.6 63.7l.4-2-1 1.4.6.6zM97 65.3v.2l1-2.4-.6.5-.4 1.7zm1.6.3l.1-.6.2-1-.5 1 .2.6z"/><path class="st4" d="M98.4 65l.6-1.1-.3-.3-.3 1.4zm-.8 0l1-1.3-.6-.6-.4 1.9z"/><path class="st4" d="M98.4 65l.3-1.3-1 1.3h.7zm-.8 0l.4-2-1 2.4.6-.4zm-.6.5l-.2 1.3.9-1.8-.7.5zm1 2.7l.1-.4.1-.4.1-.5.3-1.3L98 67v1.2z"/><path class="st4" d="M98 67l.6-1.4-.2-.6-.4 2z"/><path class="st4" d="M97.3 66.9l1.1-1.8h-.7l-.4 1.8z"/><path class="st4" d="M98 67l.4-2-1.1 1.8.7.2z"/><path class="st4" d="M97.3 66.9l.3-1.8-.9 1.8h.6zm-.6.3l-.1.6-.1.9-.1.3.9-2.1h-.6v.3zm.9 1.6l.1-.4-.1.4.3-.5.1-.1V67l-.4 1.8z"/><path class="st4" d="M97.6 68.8l.1-.4-.1.4v.1-.1z"/><path class="st4" d="M97.6 68.8L98 67l-.7-.1.3 1.9zm-.7.2l.4-2.2-.9 2.2h.5z"/><path class="st4" d="M96.9 69l.7-.2-.3-2-.4 2.2zm-.6.2l-.1.5-.1.6.8-1.3h-.5l-.1.2z"/><path class="st4" d="M97.6 69.5v-.7l-.3 1.5.2.6v-1.4zm-1 .8l1-1.5-.7.2-.3 1.3z"/><path class="st4" d="M96.6 70.3l.3-1.3-.8 1.3h.5zm.7 0l.3-1.5-1 1.5h.7zm-1.3.5l-.1.5-.1.5-.1.5 1-2h-.5l-.2.5zm1 1.7l.6-1.5-.2-.6-.4 2.1z"/><path class="st4" d="M97.3 72.8l.2-1.1.1-.5V71l-.6 1.5.3.3zm-.3-.3l.4-2.2h-.7l.3 2.2zm-.8 1.5l.7-1.5-.3-2.1-.4 3.6zm-.6-1.5l-.1.6-.1.4.8.6-.6-1.7v.1z"/><path class="st4" d="M95.3 74.1l-.1.5 1-.6-.8-.6-.1.7zm2-1.3l-.3-.3-.8 1.5 1.1-1.2z"/><path class="st4" d="M97 74l.2-1.2-1 1.2h.8zm-.8 0l.4-3.7-1 2 .6 1.7zm-.4.6l.4-.6-1 .6h.6zm-.8 1.5v.6l.9-2.1h-.6l-.3 1.5zm1.9-1.3l.1-.3.1-.3V74l-.7 1.6.1 1.1.3-1.4v-.1l.1-.4z"/><path class="st4" d="M95.8 74.6l.5 1.1-.1-1.7-.4.6z"/><path class="st4" d="M96.3 75.7L97 74h-.8l.1 1.7zm.2 1l-.1-1.1-.8 2 .9-.9zm-1 1l.8-2-.5-1.1-.3 3.1z"/><path class="st4" d="M94.7 77.6l-.1.4.9-.3-.7-1-.1.9z"/><path class="st4" d="M95.5 77.7l.3-3.1-.9 2.1.6 1zm-.3.3l.4-.3-1 .3h.6z"/><path class="st4" d="M95.9 78.2l.6-1.4-.9.9.3.5z"/><path class="st4" d="M95.9 78.2l-.3-.5-.4.3.7.2zm.3.2l.1-.4.2-1.2-.6 1.4.3.2zm-1.6-.4l-.2 1-.1.5-.1.6 1-2.1h-.6z"/><path class="st4" d="M94.8 80.2l1.1-2-.7-.2-.4 2.2zm-.6-.1l-.1.7v.3l-.1.4.8-1.2-.6-.2z"/><path class="st4" d="M94.2 80.1l.6.1.4-2.2-1 2.1zm1.3.2l.7-1.9-.3-.3-.4 2.2zm.4 0l.2-1 .1-.6v-.2l-.7 1.9.4-.1z"/><path class="st4" d="M95.5 80.3l.4-2.1-1.1 2 .7.1z"/><path class="st4" d="M94.8 80.2l-.2 1.2 1-1.1-.8-.1zm-.9 1.2h.6l.2-1.2-.8 1.2z"/><path class="st4" d="M95.4 82.3v-.1l.2-1 .1-.3.1-.6h-.3l-.1 2z"/><path class="st4" d="M94.5 81.4l.9.9.1-1.9-1 1z"/><path class="st4" d="M93.9 81.4v.5l-.1.9v.2l.8-1.7-.7.1zm-.1 2.2H95l-.4-.5-.8.5z"/><path class="st4" d="M94.7 83.1l.7-.8-.9-.9.2 1.7zm-.9 0l.1.5.9-.5h-1z"/><path class="st4" d="M94.5 81.4l-.8 1.7h.9l-.1-1.7zm.2 1.7l.4.5.2-.6.2-.7-.8.8zm-5.7-1l.7.5-.5-.7-.2.2zM95.8 63v-.2l-.2.2-.6 1.6.8-1.6zm-3.5-4.9l-.2-.2-.3-.6-.3-.4-.5-.8-1.2 6.3.7 1.2zm-12-9.8l-3 5.6 5.6 3z"/><path class="st4" d="M92.5 60l-.1-.6-.1-1.3-1.8 5.4.6 1 1.4-4.5zM91 56.1l-.2-.3-1.4-1.4-.3-.3-.8-.6-2.3-1.8-.4-.3-.9-.6-1-.6-.8 6.7.8-6.7-1.3-.7-1.3-.7-.8-.5 2.6 8.6 4.2 2.9 2.7 2.6zM36.5 38l-2.6.4-.9.2-1.9.7-1 .4-.2.1-1.3 1.1-.1.2-.9 3.7.9-3.7-1.3 4.9 2.5-1.1.2-4.8-.2 4.8 5-1z"/><path class="st4" d="M34.7 43.9h3.9L36.5 38z"/><path class="st4" d="M41.3 37.9l-.7.1h-4.1l2.1 5.9z"/><path class="st4" d="M43.8 38.1l-2.5-.1v-.1l-2.7 6 6.3.6 3.5.5-2.7-6.8zm8.5 1.1l-1.4-.2-4.4-.7-.8-.1 2.7 6.8zM76 46.3l-1-.4-1.8-.7-5.1-1.9-.8 6.6 3.4 1.2 5.3-4.8-5.3 4.8 6.6 2.8 3-5.6-1.4-.7zm-12.6 2.2l3.9 1.4.8-6.6z"/><path class="st4" d="M48.4 45l7.4 1.5-3.5-7.3zm18-2.2l-.9-.3-5.6-1.7 3.5 7.7 4.7-5.2z"/><path class="st4" d="M59.9 40.8l-1.1-.2L56 40l-2.9-.6-.8-.2 3.5 7.3 7.6 2z"/><path class="st1" d="M33.4 26.8l-.1.2-.1.3.5-1.4-.3.9zm59.7 29.7l.3-1.2.6-2.5.5-2.3 1.5-6.4.1-.2.2-1.2-2.4 9.3-.8 4.5z"/><path class="st1" d="M37.4 22.7l-2 1.1-.3.2-.9.7-.4.7-.2.4L31 38.3l6.4-15.6z"/><path class="st1" d="M30.1 39.7l1-1.4 2.6-12.4-.5 1.4-.3.8-.3.9-.7 2.2-.7 2v.1l-.1.2-1.3 3.9-1.2 3.6 1.2-1.2.3-.1zm63.8 12.2l2.4-9.3-2.2 3.2-.2 6.1z"/><path class="st1" d="M96.3 42.6l-.5-1.4-.4-.9-1.3 5.6 2.2-3.3zm-.9-2.4l-1.2-2-.1 7.6 1.3-5.6zm-1.5 11.7l.2-6.1-1.6 8.1 1.4-2z"/><path class="st1" d="M92.1 57.9l.1.2.2 1.3.7-2.9.7-4.6-1.7 6z"/><path class="st1" d="M91.8 57.3l.3.6 1.8-6-1.4 2-.7 3.4zM36.3 32.8l1.1-10.1L31 38.3l5.3-5.5z"/><path class="st1" d="M43.1 21.4l-2.1.3h-.3l-1.2.3-1.1.3-1 .3-1.1 10.1 6.8-11.3zM31 38.3l-1 1.4 1-.4v-1z"/><path class="st1" d="M33 38.6l.9-.1 2.4-5.6-5.3 5.4.1 1 1.9-.7zm58.8 18.7l.7-3.5-1 3.1.3.4z"/><path class="st1" d="M94.1 45.8l-3.6 4.4 2 3.7 1.6-8.1z"/><path class="st1" d="M94.1 45.8l.1-7.6-3.6 12 3.5-4.4zM48.8 21.1h-3l-2.7.2-.3 10.3 6-10.5zm-6.1 10.5l.3-10.3-6.8 11.4 6.5-1.1zm51.4 6.6L89.6 45l.8 5.1 3.7-11.9zM36.5 38h.4l-.6-5.3-2.4 5.6 2.6-.3zm1.2 0l5.1-6.4-6.4 1.2.6 5.3.7-.1z"/><path class="st1" d="M48.8 29.3v-8.2l-6.1 10.5 6.1-2.3zm3.2-8h-.5l-2.7-.1v8.2l3.2-8.1zm37.4 33.1l1.3 1.4 1.8-1.9-2-3.7-1.4 3.9.3.3z"/><path class="st1" d="M91.5 56.9l1-3.1-1.8 1.9.3.3.5.9zM40.6 38l2.1-6.3-5 6.3h2.9zm49.9 12.2l-.8-5.1-3.4 4.1 4.2 1z"/><path class="st1" d="M89.7 45.1l-.9-11.6-2.5 15.7 3.4-4.1zm-.6 9l1.4-3.9-2.2 3.3.8.6z"/><path class="st1" d="M84.3 44.4l2.1 4.7 2.5-15.7-4.6 11zM55.4 29.9L52 21.3l-3.2 8.1 6.6.5z"/><path class="st1" d="M59 22.1l-7-.8 3.4 8.7 3.6-7.9zm4.9 1l-2-.4-2.9-.6 4.5 6.2.4-5.2z"/><path class="st1" d="M63.5 28.3L59 22.1 55.4 30l8.1-1.7zm6.6-3.5L65 23.4l-1.1-.3-.4 5.2 6.6-3.5zm9.1 3.3l-2.1-.8-3.4-1.3 3 9.4 2.5-7.3z"/><path class="st1" d="M83.6 30.2l-1.3-.6-3.1-1.5-2.5 7.3 6.9-5.2zM73.7 26l-2.4-.8-1.2-.4.6 7.3 3-6.1z"/><path class="st1" d="M76.6 35.4l-3-9.4-3 6.1 6 3.3z"/><path class="st1" d="M70.7 32.1l-.6-7.3-6.6 3.5 7.2 3.8zm-25 6.1l.7.1 2.3-9-6.1 2.3 1.1 6.5 2 .1z"/><path class="st1" d="M41.3 37.9l2.5.1-1.1-6.5-2.1 6.5.7-.1zm9.6 1.1l2.8-2.5-4.9-7.1-2.3 9 4.4.6zm32.8 11.2l1 .6 1.6-1.7-2.1-4.7-1.8 5.1 1.3.7zm-3.8-6.7l-3.2-8.2-2 9.3 5.2-1.1zM63.5 28.3l-8.1 1.6 5.6 6.6 2.5-8.2zm7.2 3.8l-7.2-3.8-2.5 8.2 9.7-4.4zm-15.3-2.2l-6.6-.6 4.9 7.1 1.7-6.5z"/><path class="st1" d="M82.4 49.5l1.8-5.1-3.2 4.3 1.4.8z"/><path class="st1" d="M80.3 48.3l.8.4 3.2-4.3-4.4-.9-1 4.1 1.4.7z"/><path class="st1" d="M75 45.9l1 .4 2.9 1.4 1-4.1-5.2 1.1.3 1.2zm-5.6-5.4l1.3-8.3-9.6 4.4 8.3 3.9z"/><path class="st1" d="M74.7 44.7l2-9.3-7.3 5.1 5.3 4.2zm1.9-9.3l-5.9-3.2-1.3 8.3 7.2-5.1zm-15.5 1.2L55.5 30l-1.8 6.5 7.4.1zm-8 2.8l.5-2.9-2.7 2.5 1.4.2.8.2zm2.9.6l-2.3-3.5-.5 2.9 2.8.6zm3.9.8l5.6 1.7-4.5-5.9-2.2 4 1.1.2zm8.2 2.5l1.2-2.8-3.8 2 2.6.8z"/><path class="st1" d="M68.1 43.3l5 1.9 1.5-.5-5.3-4.2-1.2 2.8z"/><path class="st1" d="M75 45.9l-.4-1.2-1.5.5 1.9.7zm-16.2-5.3l2.2-4-7.4-.1L56 40l2.8.6zm21.1 2.9l3.7-13.3-6.9 5.1 3.2 8.2z"/><path class="st1" d="M84.3 44.4l4.5-11-3.5-2.1-1.7-1.1.7 14.2zm0 0l-.7-14.2-3.7 13.3 4.4.9zm7.7-8.3l-2.3 9 4.5-6.8-2.2-2.2zm0-.1l-3.2-2.6.9 11.6 2.3-9zm-3.7 17.5l2.2-3.3-4.2-1.1-.3 2.6 2.3 1.8z"/><path class="st1" d="M86 51.7l.3-2.6-1.6 1.7.9.6.4.3zM61.1 36.6l8.3 3.9-3.8 2-4.5-5.9z"/><path class="st4" d="M100.5 55zm0 0v-.1.1zm3-25.5l1 .7.3-.4-1.3-.3zm1.3.4l-.3.4.3.2h.1l-.1-.6z"/><path class="st4" d="M105.1 29.1l-1.5.5 1.3.4.2-.9zm-3.1-.6l1.5 1 1.5-.5-3-.5zm3.9-.3l-3.9.3 3.1.5.8-.8zm.3 1.1l-1.1-.2-.2 1.5v.1l-.1.5 1.4-1.9zm0 0l-.3-1.1-.8.8 1.1.3z"/><path class="st4" d="M107.1 29.6l-1.2-1.4.3 1.1.9.3z"/><path class="st4" d="M106.7 30l.4-.4-.9-.3.5.7zm-1.9 1.1l1.8-1.1-.5-.7-1.3 1.8z"/><path class="st4" d="M106.6 31.7l.5-2.1-.4.4-.1 1.7zm-2.1 1.7l.3-2.3-.6 2.5v.2l.3-.4zm.3-2.3l.4 1 1.4-2.1-1.8 1.1z"/><path class="st4" d="M106.2 31.7l-.2 2.2.6-2.1v-.1h-.4zm-1.2 1.6l-.2-2.2-.3 2.3.5-.1z"/><path class="st4" d="M105 33.3l1 .6.2-2.2-1.2 1.6z"/><path class="st4" d="M105.3 32.1l-.4-1 .2 2.2.2-1.2z"/><path class="st4" d="M105.3 32.1l-.3 1.2 1.7-3.3-1.4 2.1zm-.8 1.3l-.3.4-.2.9-.2.7.7-2z"/><path class="st4" d="M105 33.3l-.5.1-.7 1.9 1.2-2zm.5 1.1l.5-.5-1-.6.5 1.1z"/><path class="st4" d="M105.2 37.1l.3-1.1.2-1 .1-.3.2-.9-.5.5-.3 2.8z"/><path class="st4" d="M104.6 35.1l.9-.7-.5-1.1-.4 1.8z"/><path class="st4" d="M105 33.3l-1.2 2.1.8-.2.4-1.9z"/><path class="st4" d="M104.6 35.1l-.8.2 1.1.8-.3-1z"/><path class="st4" d="M103.8 35.3l-.5 1.8 1.6-1-1.1-.8zm1.1.9l.3.9.3-2.7-.6 1.8z"/><path class="st4" d="M104.6 35.1l.3 1 .6-1.8-.9.8zm-.9 3.2l1.2-2.2-1.6 1 .4 1.2z"/><path class="st4" d="M103.7 38.3l-.7-.1-.1.4-.1.5-.1.3-.3 1.1 1.3-2.2z"/><path class="st4" d="M103.7 38.3l-.4-1.1-.3 1.1h.7zm1.2-2.1l-1.2 2.2.6 2.2.6-4.4z"/><path class="st4" d="M104.9 36.2l-.6 4.3.3-1.1.6-2.3-.3-.9z"/><path class="st4" d="M103.7 38.3l-.2 1.9.9.3-.7-2.2zm-1.2 2.2l-.5 1.9.8-1-.3-.9z"/><path class="st4" d="M103.7 38.3l-1.2 2.1.3.9.9-3zm-1.4 5l-.3-.9-.7 2.5 1-1.6zm.5-2l-.8 1 .3.9.5-1.9zm.2 2.2l1.3-3-.9-.3-.4 3.3z"/><path class="st4" d="M103.5 40.2l.2-1.9-.9 3 .7-1.1zm-.5 3.3l.2 1.4.2-.6.4-1.4-.8.6zm0 0l.8-.6.3-1.1.3-1.2-1.4 2.9z"/><path class="st4" d="M102.3 43.3l.7.2-.2-2.2-.5 2zm0 0l-1 1.6h.4l.6-1.6zm.7.2l-1 2.7 1.2-1.3-.2-1.4z"/><path class="st4" d="M102.3 43.3l-.6 1.5.3 1.3.3-2.8zm-.7 1.5h-.4l.7 1.3-.3-1.3z"/><path class="st4" d="M102 46.1l1-2.7-.7-.2-.3 2.9zm-.2 1.8l.5.4.2-.9.7-2.6-1.4 3.1z"/><path class="st4" d="M101.8 47.9l1.4-3.1-1.2 1.3-.2 1.8z"/><path class="st4" d="M102 46.1l-1.1 2.4 1-.6.1-1.8zm-.8-1.2l-.4 1.3-.7 2.6.7-.3.4-3.6zm.8 1.2l-.7-1.3-.4 3.6 1.1-2.3zm-1.1 2.4l-.7.3-.1.4-.9 3.5 1.7-4.2zm.1 1.7l1.4-1.9-.5-.4-.9 2.3z"/><path class="st4" d="M101 50.2l-.1-1.7-1.8 4.2 1.9-2.5z"/><path class="st4" d="M101 50.2l.9-2.3-1 .6.1 1.7z"/><path class="st4" d="M101.7 50.2l.6-1.9-1.4 2 .8-.1zm-1.3 2.6l.6-2.5-1.9 2.5h1.3z"/><path class="st4" d="M100.4 52.8l1.3-2.5h-.8l-.5 2.5z"/><path class="st4" d="M100.7 54.1l1-3.9-1.3 2.5.3 1.4zm-.6.6l.6-.6-.3-1.3-.3 1.9zm-.6-.6l-.4-1.4-.4 1.7-.1.3.9-.6z"/><path class="st4" d="M100.4 52.8l-.9 1.3.6.7.3-2z"/><path class="st4" d="M100.4 52.8h-1.3l.4 1.4.9-1.4zm.1 2.1l.2-.8-.6.6-.1 1.9h.1l.4-1.7z"/><path class="st4" d="M99.4 55l.7-.3-.6-.7-.1 1z"/><path class="st4" d="M99.5 54.1l-1 .6.8.3.2-.9zm.6.6l-.7.3.4 1.5.2.1.1-1.9z"/><path class="st4" d="M99.4 55l-.8-.3-.2 1.3h.4l.6-1z"/><path class="st4" d="M98.6 54.7l-.1.4-.3.9h.2l.2-1.3zm.8.3l.1 1.3.3.2-.4-1.5z"/><path class="st4" d="M99.4 55l-.6 1.1h.5l.1-1.1z"/><path class="st4" d="M99.4 55l-.2 1.1.3.2-.1-1.3zm5.4-25.1l.1.6.2-1.5-.3.9zm1.4 1.8h.4l.1-1.7-.5 1.7zm-1.2 1.6l1.2-1.6.5-1.7-1.7 3.3zm-1.5 6.9l-.7 1.1.2 2.2.5-3.3zm3.4-11.2l-1.1-.8 1.2 1.4-.1-.6z"/></g></svg>