<svg width="744" height="748" fill="none" xmlns="http://www.w3.org/2000/svg"><g filter="url(#filter0_d)"><g filter="url(#filter1_d)"><path d="M181.798 328.248c-8.029-4.657-18.589-6.97-29.128-6.97-10.54 0-21.117 2.314-29.179 6.97l-38.05 21.961c-8.073 4.612-12.22 10.799-12.22 17.099 0 6.299 4.146 12.508 12.218 17.164l30.35 17.547c3.472 2 5.096 4.565 5.096 7.027 0 2.463-1.625 5.028-5.097 7.028l-34.784 20.084c-8.072 4.612-12.22 10.799-12.22 17.099 0 6.299 4.147 12.509 12.218 17.164l38.751 22.073 15.981-9.205.751-.432-.751-.434-38.25-22.072c-3.474-2.011-5.098-4.576-5.098-7.039s1.624-5.027 5.097-7.038l.001-.001 34.785-20.239c8.059-4.655 12.202-10.837 12.202-17.12 0-6.283-4.143-12.465-12.202-17.12L96.822 367.23c-3.005-2.827 1.624-5.027 5.097-7.038l38.04-21.844a28.19 28.19 0 0125.372 0l24.51 14.097.25.144.25-.144 15.98-9.227.752-.433-.753-.433-24.52-14.103" stroke="#017EFE"/></g><g filter="url(#filter2_d)"><path d="M539.686 257.075a1.512 1.512 0 01-1.091-.438 1.527 1.527 0 01-.454-1.085v-62.818a1.546 1.546 0 011.534-1.729 1.544 1.544 0 011.534 1.729v62.818a1.522 1.522 0 01-1.523 1.523z" fill="#5793CE"/><path d="M545.116 188.782h-10.904v23.552h10.904v-23.552z" fill="#5793CE"/><path d="M543.526 214.563a8.61 8.61 0 01-7.703 0 2.337 2.337 0 010-4.414 8.472 8.472 0 017.703 0 2.337 2.337 0 010 4.414zm4.99-58.601h-17.68v36.927h17.68v-36.927z" fill="#5793CE"/><path d="M534.212 192.645v7.969a14.023 14.023 0 0010.926 0v-7.969a14.227 14.227 0 00-10.926 0z" fill="#396CAA"/><path d="M545.933 196.509a13.889 13.889 0 01-12.515 0c-3.443-2.009-3.443-5.231 0-7.218a13.754 13.754 0 0112.515 0c3.444 1.987 3.444 5.209 0 7.218zm55.004 95.02a1.522 1.522 0 01-1.523-1.523v-62.773a1.52 1.52 0 011.523-1.523 1.522 1.522 0 011.523 1.523v62.817a1.522 1.522 0 01-1.523 1.479z" fill="#5793CE"/><path d="M606.388 223.238h-10.904v23.551h10.904v-23.551z" fill="#5793CE"/><path d="M604.799 249.019a8.529 8.529 0 01-7.725 0 2.368 2.368 0 01-1.105-3.548 2.362 2.362 0 011.105-.867 8.656 8.656 0 017.725 0 2.36 2.36 0 010 4.415zm4.967-58.603h-17.68v36.927h17.68v-36.927z" fill="#5793CE"/><path d="M595.396 227.233v7.968a14.16 14.16 0 0010.904 0v-7.968a14.152 14.152 0 00-10.904 0z" fill="#396CAA"/><path d="M607.184 230.963a13.71 13.71 0 01-12.493 0c-3.466-1.987-3.466-5.231 0-7.218a13.843 13.843 0 0112.493 0c3.465 1.987 3.465 5.231 0 7.218zm53.304 20.748l23.705-13.972-22.58-28.186-5.937 9.712 4.812 32.446zM488.302 97.007l37.854-21.786-1.39 21.786-21.719 6.621-14.745-6.621z" fill="#5793CE"/><path d="M667.065 180.881a23.766 23.766 0 00-8.189-3.024c-3.818-20.063-17.768-41.363-34.388-50.965a33.745 33.745 0 00-14.082-4.767c-2.208-24.28-19.181-51.914-39.73-63.767-10.595-6.246-20.417-6.975-27.591-3.178l-.353.198c-.176.116-.361.22-.552.31L519.887 68.93l7.394 5.849c-6.621 2.913-10.859 10.374-10.859 21.41 0 20.35 14.303 45.093 31.916 55.18l118.727 84.78c13.244 7.637 23.971 1.457 23.971-13.839 0-15.296-10.727-33.837-23.971-41.43z" fill="#5793CE"/><path d="M517.525 87.163l51.23-29.886c-9.954-5.187-18.938-5.607-25.67-2.053l-.353.199a4.4 4.4 0 01-.552.309l-22.293 13.243 7.394 5.85a17.907 17.907 0 00-9.756 12.338zm94.58 88.023l37.369-21.917a72.353 72.353 0 00-24.986-26.487 45.27 45.27 0 00-3.841-1.965l-47.522 27.856 38.98 22.513z" fill="#5793CE"/><path d="M530.415 71.292l16.643 9.624 30.503-17.967a61.38 61.38 0 00-6.864-4.635 42.819 42.819 0 00-10.639-4.415l-29.643 17.393zm114.953 75.509l-29.842 17.658 10.374 11.566 27.083-16.003a87.869 87.869 0 00-7.615-13.221z" fill="#D4ECFF"/><path d="M643.646 194.633a23.956 23.956 0 00-8.188-3.024c-3.819-20.064-17.658-41.364-34.411-50.965a33.634 33.634 0 00-14.082-4.768c-2.207-24.279-19.159-51.914-39.73-63.767-22.073-12.735-39.973-2.405-39.973 23.066v2.627c-16.135-7.483-28.694.949-28.694 20.063 0 20.351 14.281 45.094 31.916 55.181L643.58 249.88c13.244 7.637 23.949 1.456 23.949-13.84s-10.661-33.77-23.883-41.407z" fill="#D4ECFF"/><path d="M507.372 97.801v-2.736c-8.828-3.466-16.576-1.943-21.388 3.62 5.165-4.305 12.758-4.901 21.388-.884zm138.216 94.933a23.762 23.762 0 00-8.255-3.024c-3.818-20.064-17.658-41.364-34.41-50.965a33.568 33.568 0 00-14.061-4.768c-2.207-24.279-19.18-51.914-39.73-63.766-13.751-7.947-25.868-6.91-33.108 1.147 7.328-6.268 18.541-6.621 31.122.75 20.527 11.854 37.523 39.466 39.73 63.767a33.648 33.648 0 0114.082 4.768c16.643 9.602 30.592 30.901 34.411 50.965a23.96 23.96 0 018.189 3.024c13.243 7.637 23.948 26.222 23.948 41.496a19.867 19.867 0 01-3.686 12.758c3.598-2.759 5.783-7.77 5.783-14.656-.044-15.274-10.771-33.859-24.015-41.496z" fill="#fff"/><path d="M504.57 103.871l9.998 4.635-.507-11.036v-2.207c0-9.823 2.957-16.952 8.343-20.064 5.386-3.112 13.067-2.207 21.565 2.803 18.32 10.573 34.3 36.309 36.375 58.602l.529 5.606 5.629.442a27.042 27.042 0 0111.257 3.884c14.545 8.388 27.656 27.922 31.166 46.352l.883 4.635 4.657.729a16.87 16.87 0 015.871 2.207c11.191 6.445 20.616 22.801 20.616 35.691 0 4.834-1.325 8.387-3.664 9.734-2.34 1.346-6.07.728-10.264-1.678L513.928 167.35c-15.45-8.828-28.561-31.585-28.561-49.464 0-7.019 2.075-12.36 5.672-14.678a9.786 9.786 0 015.32-1.412 20.06 20.06 0 018.211 2.075z" fill="#017EFE"/><path d="M570.985 187.282l3.532-1.766-3.465-2.626-.067 4.392zm-10.528-47.433l3.399-1.721.066 1.787-3.465-.066zm20.549 36.353l3.553-1.788-6.842-6.511 3.289 8.299z" fill="#5793CE"/><path d="M573.478 185.406l-16.62-9.8a3.528 3.528 0 01-1.523-2.781v-19.247l19.688 11.588v19.247c-.022 1.037-.706 1.501-1.545.993z" fill="#5793CE"/><path d="M563.834 138.149l-17.967 11.544c-.75.508-.154 2.318 1.015 3.002l18.342 10.815 18.32 10.794c1.17.684 1.788-.42 1.038-1.81l-17.879-32.623c-.728-1.413-2.097-2.229-2.869-1.722z" fill="#5793CE"/><path d="M569.925 187.194l-16.642-9.778a3.579 3.579 0 01-1.523-2.803v-19.247l19.666 11.588v19.247c.022 1.06-.662 1.501-1.501.993z" fill="#D4ECFF"/><path d="M560.257 139.937l-17.834 11.565c-.773.486-.155 2.318.993 3.002l18.342 10.794 18.188 10.793c1.147.684 1.788-.419 1.015-1.788l-17.812-32.645c-.729-1.39-2.119-2.207-2.892-1.721zm-22.248 68.315c0 1.081-.773 1.522-1.7.971a3.715 3.715 0 01-1.699-2.936c0-1.081.75-1.523 1.699-.993a3.848 3.848 0 011.7 2.958zm61.405 34.961c0 1.082-.773 1.523-1.7.971a3.713 3.713 0 01-1.699-2.935c0-1.082.75-1.523 1.699-.972a3.76 3.76 0 011.7 2.936z" fill="#D4ECFF"/><path d="M154.702 490.644l-17.658 10.175a8.109 8.109 0 00-2.603 2.738 8.105 8.105 0 00-1.083 3.619c0 2.339 1.655 3.288 3.686 2.207l17.658-10.175a8.177 8.177 0 003.664-6.446c0-2.339-1.656-3.288-3.664-2.118zm33.24-164.771a2.5 2.5 0 00-2.736.133l-17.658 10.175a8.095 8.095 0 00-3.664 6.357 2.62 2.62 0 00.949 2.207l18.872 11.036 22.8-19.158-18.563-10.75z" fill="#5793CE"/><path d="M272.678 465.106l-91.512-52.178c-3.333-1.943-2.914-5.32.949-7.549l52.642-30.394a14.463 14.463 0 0113.045-.529l91.556 52.156c3.355 1.943 2.936 5.32-.949 7.549l-52.687 30.394a14.532 14.532 0 01-13.044.551z" fill="#001735" fill-opacity=".23"/><path d="M138.743 479.585a2.493 2.493 0 00-2.737.133l-17.658 10.175a8.128 8.128 0 00-3.686 6.357 2.623 2.623 0 00.949 2.207l18.894 11.036 22.801-19.159-18.563-10.749z" fill="#5793CE"/><path d="M347.481 409.064V195.448l-84.934-22.227-15.65-9.027a15.563 15.563 0 00-13.993.574l-14.59 8.431h-45.293l13.398 206.2a4.09 4.09 0 002.406 3.752l84.758 64.01a15.565 15.565 0 0013.994-.574l56.483-32.601c2.383-1.479 3.553-3.267 3.421-4.922z" fill="#396CAA"/><path d="M240.409 162.804a16.297 16.297 0 00-7.505 1.964l-14.59 8.432h-45.292v214.101a4.04 4.04 0 002.406 3.752l98.155 56.02c2 1.036 4.241 1.516 6.489 1.39l1.016-215.514-40.679-70.145z" fill="#D4ECFF"/><path d="M274.488 447.514a16.021 16.021 0 0011.19-.111V230.389h-11.19v217.125z" fill="#5793CE"/><path d="M273.583 232.971l-98.155-55.975c-3.598-2.075-3.157-5.695.993-8.078l56.483-32.623a15.559 15.559 0 0113.994-.574l98.177 55.975c3.576 2.075 3.134 5.695-1.015 8.079l-56.483 32.622a15.563 15.563 0 01-13.994.574z" fill="#D4ECFF"/><path d="M344.06 195.802l-56.483 32.623a15.565 15.565 0 01-13.994.574l-98.155-55.976a5.368 5.368 0 01-1.81-1.589 3.778 3.778 0 00-.416 3.211 3.78 3.78 0 002.226 2.351l98.155 55.976a15.565 15.565 0 0013.994-.574l56.483-32.623c3.222-1.854 4.194-4.414 2.803-6.489a7.924 7.924 0 01-2.803 2.516z" fill="#FAFDFF"/><path d="M276.363 210.281l-65.356-37.876c-1.677-.971-1.478-2.671.464-3.796l26.487-15.252a7.262 7.262 0 016.621-.265l65.356 37.876c1.678.971 1.479 2.671-.463 3.774l-26.487 15.274a7.212 7.212 0 01-6.622.265z" fill="#173D7A"/><path d="M241.071 174.105l-3.775-2.207c-.242-.132-.22-.375 0-.53l3.664-2.207a1.018 1.018 0 01.905 0l3.797 2.207c.221.133.199.375 0 .53l-3.664 2.097a1.02 1.02 0 01-.927.11zm12.647 7.261l-3.774-2.207c-.243-.132-.199-.353 0-.508l3.641-2.207a1.018 1.018 0 01.905 0l3.797 2.207c.243.155.199.376 0 .53l-3.664 2.207a.947.947 0 01-.905-.022zm12.647 7.285l-3.774-2.208c-.243-.132-.199-.375 0-.529l3.664-2.097a1.012 1.012 0 01.905 0l3.774 2.207c.243.133.199.375 0 .53l-3.642 2.207a1.055 1.055 0 01-.927-.11zm12.67 7.284l-3.797-2.208c-.221-.132-.198-.375 0-.529l3.664-2.208a.955.955 0 01.905 0l3.775 2.208c.242.132.22.353 0 .507l-3.642 2.207a1.012 1.012 0 01-.905.023z" fill="#D4ECFF"/><path d="M211.008 172.405c.124-.101.257-.189.398-.265l26.486-15.274a7.337 7.337 0 016.556-.265l65.29 37.832c1.545-1.103 1.611-2.604 0-3.509l-65.29-37.832a7.268 7.268 0 00-6.622.265l-26.487 15.252c-1.809 1.236-2.008 2.825-.331 3.796z" fill="#5793CE"/><path d="M298.613 275.284l37.147-21.278a8.997 8.997 0 003.797-7.217v-13.244c0-2.803-1.7-4.083-3.797-2.869l-37.147 21.278a9.04 9.04 0 00-3.797 7.239v13.244c0 2.781 1.7 4.061 3.797 2.847z" fill="#173D7A"/><path d="M337.615 230.235a3.718 3.718 0 01.949 2.759v13.243a9.085 9.085 0 01-3.796 7.24l-37.148 21.278a2.877 2.877 0 01-1.854.397 2.209 2.209 0 002.847 0l37.148-21.278a9.004 9.004 0 003.797-7.217v-13.244c0-1.765-.795-2.979-1.943-3.178z" fill="#fff"/><path d="M309.782 260.849l3.421-1.964a2.009 2.009 0 00.816-1.568v-3.597c0-.618-.375-.883-.816-.64l-3.421 1.986a1.999 1.999 0 00-.817 1.567v3.708c0 .508.375.773.817.508z" fill="#396CAA"/><path d="M321.193 254.271l3.399-1.964a1.944 1.944 0 00.816-1.567v-3.642c0-.618-.353-.905-.816-.64l-3.399 1.986a1.9 1.9 0 00-.839 1.567v3.708c0 .53.375.817.839.552z" fill="#fff"/><path d="M298.613 371.299l37.147-21.256a9.095 9.095 0 003.797-7.24V329.56c0-2.781-1.7-4.084-3.797-2.87l-37.147 21.278a9.054 9.054 0 00-3.797 7.24v13.243c0 2.781 1.7 4.062 3.797 2.848z" fill="#173D7A"/><path d="M337.615 326.249a3.767 3.767 0 01.949 2.759v13.244a9.04 9.04 0 01-3.796 7.24l-37.148 21.277a2.87 2.87 0 01-1.854.398 2.208 2.208 0 002.847 0l37.148-21.256a9.098 9.098 0 003.797-7.24v-13.243c0-1.81-.795-2.87-1.943-3.179z" fill="#fff"/><path d="M309.782 356.863l3.421-1.964a2.008 2.008 0 00.816-1.567v-3.642c0-.618-.375-.883-.816-.618l-3.421 1.964a2.008 2.008 0 00-.817 1.567v3.642c0 .618.375.883.817.618z" fill="#396CAA"/><path d="M321.193 350.286l3.399-1.965a1.947 1.947 0 00.816-1.567v-3.642c0-.618-.353-.883-.816-.618l-3.399 1.965a1.963 1.963 0 00-.839 1.567v3.642c0 .618.375.883.839.618z" fill="#fff"/><path d="M298.613 419.261l37.147-21.277a9.095 9.095 0 003.797-7.24v-13.243c0-2.781-1.7-4.062-3.797-2.87l-37.147 21.278a9.098 9.098 0 00-3.797 7.24v13.243c0 2.869 1.7 4.128 3.797 2.869z" fill="#173D7A"/><path d="M337.615 374.257a3.763 3.763 0 01.949 2.759v13.243a9.04 9.04 0 01-3.796 7.24l-37.148 21.277c-.551.35-1.208.49-1.854.398a2.205 2.205 0 002.847.11l37.148-21.278a9.097 9.097 0 003.797-7.239v-13.244c0-1.898-.795-3.068-1.943-3.266z" fill="#fff"/><path d="M309.782 404.893l3.421-1.987a1.983 1.983 0 00.816-1.567v-3.642c0-.596-.375-.883-.816-.618l-3.421 1.964a2.008 2.008 0 00-.817 1.568v3.642c0 .618.375.882.817.64z" fill="#396CAA"/><path d="M321.193 398.293l3.399-1.965a1.94 1.94 0 00.816-1.567v-3.642c0-.618-.353-.882-.816-.618l-3.399 1.965a1.952 1.952 0 00-.839 1.567v3.642c0 .618.375.883.839.618z" fill="#fff"/><path d="M298.613 323.291l37.147-21.277a9.009 9.009 0 003.797-7.218v-13.243c0-2.804-1.7-4.084-3.797-2.87l-37.147 21.278a9.05 9.05 0 00-3.797 7.24v13.243c0 2.781 1.7 4.061 3.797 2.847z" fill="#173D7A"/><path d="M337.615 278.242a3.728 3.728 0 01.949 2.759v13.244a9.085 9.085 0 01-3.796 7.239l-37.148 21.278a2.864 2.864 0 01-1.854.397 2.209 2.209 0 002.847 0l37.148-21.277a9.016 9.016 0 003.797-7.218v-13.243c0-1.81-.795-2.98-1.943-3.179z" fill="#fff"/><path d="M309.782 308.9l3.421-1.964a2.008 2.008 0 00.816-1.567v-3.642c0-.618-.375-.883-.816-.618l-3.421 1.964a2.008 2.008 0 00-.817 1.567v3.642c0 .618.375.839.817.618z" fill="#396CAA"/><path d="M321.193 302.279l3.399-1.964a1.944 1.944 0 00.816-1.567v-3.642c0-.618-.353-.883-.816-.64l-3.399 1.986a1.952 1.952 0 00-.839 1.567v3.642c0 .618.375.883.839.618z" fill="#fff"/><path d="M266.52 261.688l-85.817-49.486a8.347 8.347 0 01-3.466-6.622v-16.377c0-2.561 1.545-3.731 3.466-2.627l85.817 49.486a8.305 8.305 0 013.465 6.622v16.355c-.088 2.583-1.633 3.753-3.465 2.649z" fill="#5793CE"/><path opacity=".4" d="M263.96 255.927l-80.785-46.617a4.191 4.191 0 01-1.766-3.377v-12.294c0-1.28.773-1.876 1.766-1.324l80.785 46.66a4.202 4.202 0 011.765 3.355v12.295c0 1.302-.794 1.898-1.765 1.302z" fill="#D4ECFF"/><path d="M199.994 212.82l-12.051-6.975a4.05 4.05 0 01-1.241-1.43 4.052 4.052 0 01-.459-1.837c0-1.258.751-1.832 1.7-1.28l12.051 6.953a4.099 4.099 0 011.722 3.267c0 1.258-.772 1.832-1.722 1.302z" fill="#D4ECFF"/><path d="M210.28 216.462c0 1.258-.883 1.765-1.986 1.147a4.412 4.412 0 01-1.965-3.421c0-1.258.883-1.766 1.965-1.148a4.413 4.413 0 011.986 3.422zm6.974 4.149c0 1.258-.883 1.766-1.987 1.126a4.416 4.416 0 01-1.964-3.421c0-1.258.883-1.766 1.964-1.148a4.41 4.41 0 011.987 3.443z" fill="#173D7A"/><path d="M224.229 224.518c0 1.258-.883 1.766-1.986 1.148a4.409 4.409 0 01-1.965-3.421c0-1.28.883-1.788 1.965-1.148a4.41 4.41 0 011.986 3.421z" fill="#D4ECFF"/><path d="M231.204 228.535c0 1.259-.883 1.788-1.986 1.148a4.409 4.409 0 01-1.965-3.421c0-1.258.883-1.766 1.965-1.148a4.422 4.422 0 011.986 3.421zm29.356 20.571l-4.062-2.339a2.634 2.634 0 01-1.015-2.097v-4.194c0-.795.486-1.17 1.082-.817l4.061 2.34a2.586 2.586 0 011.103 2.207v4.415c-.066.463-.551.838-1.169.485z" fill="#173D7A"/><path d="M266.52 290.514l-85.817-49.486a8.338 8.338 0 01-3.466-6.621v-16.378c0-2.56 1.545-3.73 3.466-2.626l85.817 49.508a8.276 8.276 0 013.465 6.621v16.356c-.088 2.56-1.633 3.73-3.465 2.626z" fill="#5793CE"/><path opacity=".4" d="M263.96 284.776l-80.785-46.639a4.2 4.2 0 01-1.766-3.377v-12.294c0-1.281.773-1.877 1.766-1.325l80.785 46.661a4.193 4.193 0 011.765 3.355v12.294c0 1.303-.794 1.899-1.765 1.325z" fill="#D4ECFF"/><path d="M199.994 241.646l-12.051-6.975a4.056 4.056 0 01-1.7-3.266c0-1.258.751-1.832 1.7-1.303l12.051 6.975a4.099 4.099 0 011.722 3.267c0 1.258-.772 1.832-1.722 1.302z" fill="#D4ECFF"/><path d="M210.28 245.288c0 1.258-.883 1.766-1.986 1.148a4.418 4.418 0 01-1.965-3.422c0-1.258.883-1.787 1.965-1.147a4.41 4.41 0 011.986 3.421z" fill="#fff"/><path d="M217.254 249.305c0 1.281-.883 1.788-1.987 1.148a4.418 4.418 0 01-1.964-3.355c0-1.258.883-1.766 1.964-1.148a4.411 4.411 0 011.987 3.355z" fill="#173D7A"/><path d="M224.229 253.344c0 1.259-.883 1.766-1.986 1.148a4.416 4.416 0 01-1.965-3.443c0-1.258.883-1.766 1.965-1.126a4.41 4.41 0 011.986 3.421z" fill="#D4ECFF"/><path d="M231.204 257.361c0 1.258-.883 1.766-1.986 1.148a4.418 4.418 0 01-1.965-3.422c0-1.258.883-1.765 1.965-1.147a4.413 4.413 0 011.986 3.421zm29.356 20.638l-4.061-2.34a2.618 2.618 0 01-1.081-2.207v-4.282c0-.794.485-1.17 1.081-.817l4.061 2.362a2.588 2.588 0 011.104 2.207v4.305c0 .772-.486 1.059-1.104.772z" fill="#173D7A"/><path d="M266.52 319.341l-85.817-49.486a8.347 8.347 0 01-3.466-6.622v-16.377c0-2.561 1.545-3.73 3.466-2.627l85.817 49.508a8.28 8.28 0 013.465 6.622v16.356c-.088 2.56-1.633 3.73-3.465 2.626z" fill="#5793CE"/><path opacity=".4" d="M263.96 313.601l-80.785-46.638a4.203 4.203 0 01-1.766-3.377v-12.295c0-1.302.773-1.898 1.766-1.324l80.785 46.639a4.256 4.256 0 011.765 3.377v12.294c0 1.302-.794 1.898-1.765 1.324z" fill="#D4ECFF"/><path d="M199.994 270.472l-12.051-6.975a4.082 4.082 0 01-1.7-3.156c0-1.258.751-1.832 1.7-1.302l12.051 6.974a4.108 4.108 0 011.722 3.157c0 1.258-.772 1.832-1.722 1.302z" fill="#D4ECFF"/><path d="M210.28 274.115c0 1.258-.883 1.765-1.986 1.147a4.409 4.409 0 01-1.965-3.421c0-1.258.883-1.788 1.965-1.148a4.413 4.413 0 011.986 3.422z" fill="#fff"/><path d="M217.254 278.132c0 1.28-.883 1.787-1.987 1.147a4.416 4.416 0 01-1.964-3.421c0-1.258.883-1.766 1.964-1.148a4.406 4.406 0 011.987 3.422z" fill="#173D7A"/><path d="M224.229 282.171c0 1.258-.883 1.766-1.986 1.126a4.418 4.418 0 01-1.965-3.422c0-1.258.883-1.765 1.965-1.125a4.413 4.413 0 011.986 3.421z" fill="#D4ECFF"/><path d="M231.204 286.187c0 1.259-.883 1.766-1.986 1.148a4.409 4.409 0 01-1.965-3.421c0-1.258.883-1.766 1.965-1.148a4.422 4.422 0 011.986 3.421zm29.357 20.507l-4.061-2.208a2.663 2.663 0 01-1.082-2.207v-4.414c0-.817.486-1.17 1.082-.839l4.061 2.362a2.577 2.577 0 011.104 2.097v4.414c0 .795-.486 1.214-1.104.795z" fill="#173D7A"/><path d="M266.52 348.167l-85.817-49.508a8.272 8.272 0 01-3.466-6.622v-16.245c0-2.56 1.545-3.73 3.466-2.627l85.817 49.376a8.344 8.344 0 013.465 6.622v16.355c-.088 2.583-1.633 3.753-3.465 2.649z" fill="#5793CE"/><path opacity=".4" d="M263.96 342.428l-80.785-46.639a4.191 4.191 0 01-1.766-3.377v-12.206c0-1.302.773-1.898 1.766-1.324l80.785 46.639a4.256 4.256 0 011.765 3.377v12.294c0 1.214-.794 1.81-1.765 1.236z" fill="#D4ECFF"/><path d="M199.994 299.299l-12.051-6.975a4.086 4.086 0 01-1.7-3.267c0-1.258.751-1.832 1.7-1.302l12.051 6.975a4.057 4.057 0 011.722 3.267c0 1.258-.772 1.832-1.722 1.302z" fill="#D4ECFF"/><path d="M210.28 302.941c0 1.258-.883 1.765-1.986 1.147a4.409 4.409 0 01-1.965-3.421c0-1.28.883-1.788 1.965-1.148a4.413 4.413 0 011.986 3.422zm6.974 4.017c0 1.258-.883 1.788-1.987 1.148a4.416 4.416 0 01-1.964-3.421c0-1.258.883-1.766 1.964-1.148a4.41 4.41 0 011.987 3.421z" fill="#173D7A"/><path d="M224.229 311.108c0 1.258-.883 1.766-1.986 1.125a4.412 4.412 0 01-1.965-3.421c0-1.258.883-1.766 1.965-1.125a4.413 4.413 0 011.986 3.421z" fill="#D4ECFF"/><path d="M231.204 315.014c0 1.258-.883 1.766-1.986 1.148a4.409 4.409 0 01-1.965-3.421c0-1.258.883-1.788 1.965-1.148a4.422 4.422 0 011.986 3.421z" fill="#173D7A"/><path d="M260.561 335.586l-4.061-2.406a2.663 2.663 0 01-1.082-2.207v-4.414c0-.817.486-1.17 1.082-.839l4.061 2.362a2.573 2.573 0 011.104 2.207v4.282c0 .993-.486 1.368-1.104 1.015z" fill="#D4ECFF"/><path d="M266.52 376.993l-85.817-49.508a8.269 8.269 0 01-3.466-6.621v-16.378c0-2.56 1.545-3.73 3.466-2.627l85.817 49.509a8.335 8.335 0 013.465 6.621v16.356c-.088 2.582-1.633 3.752-3.465 2.648z" fill="#5793CE"/><path opacity=".4" d="M263.96 371.255l-80.785-46.661a4.129 4.129 0 01-1.766-3.355V308.9c0-1.302.773-1.898 1.766-1.324l80.785 46.639a4.256 4.256 0 011.765 3.377v12.294c0 1.324-.794 1.942-1.765 1.369z" fill="#D4ECFF"/><path d="M199.994 328.103l-12.051-6.952a4.095 4.095 0 01-1.7-3.267c0-1.258.751-1.832 1.7-1.302l12.051 6.974a4.06 4.06 0 011.722 3.267c0 1.258-.772 1.943-1.722 1.28z" fill="#D4ECFF"/><path d="M210.28 331.767c0 1.258-.883 1.765-1.986 1.147a4.403 4.403 0 01-1.965-3.443c0-1.258.883-1.766 1.965-1.126a4.413 4.413 0 011.986 3.422z" fill="#173D7A"/><path d="M217.254 335.784c0 1.258-.883 1.788-1.987 1.148a4.416 4.416 0 01-1.964-3.421c0-1.258.883-1.766 1.964-1.148a4.41 4.41 0 011.987 3.421z" fill="#fff"/><path d="M224.229 339.801c0 1.258-.883 1.766-1.986 1.126a4.409 4.409 0 01-1.965-3.421c0-1.258.883-1.766 1.965-1.126a4.417 4.417 0 011.986 3.421z" fill="#D4ECFF"/><path d="M231.204 343.841c0 1.258-.883 1.766-1.986 1.148a4.418 4.418 0 01-1.965-3.422c0-1.258.883-1.787 1.965-1.147a4.413 4.413 0 011.986 3.421z" fill="#fff"/><path d="M260.561 364.412l-4.061-2.339a2.674 2.674 0 01-1.082-2.208v-4.304c0-.816.486-1.192 1.082-.838l4.061 2.361a2.559 2.559 0 011.104 2.208v4.282c0 .816-.486 1.191-1.104.838z" fill="#D4ECFF"/><path d="M266.52 405.819l-85.817-49.508a8.294 8.294 0 01-3.466-6.622v-16.355c0-2.56 1.545-3.73 3.466-2.627l85.817 49.486a8.347 8.347 0 013.465 6.622v16.356c-.088 2.582-1.633 3.752-3.465 2.648z" fill="#5793CE"/><path opacity=".4" d="M263.96 400.081l-80.785-46.661a4.126 4.126 0 01-1.766-3.355v-12.294c0-1.302.773-1.898 1.766-1.324l80.785 46.639a4.251 4.251 0 011.765 3.377v12.294c0 1.28-.794 1.876-1.765 1.324z" fill="#D4ECFF"/><path d="M199.994 356.93l-12.051-6.953a4.077 4.077 0 01-1.7-3.267c0-1.258.751-1.854 1.7-1.302l12.051 6.975a4.057 4.057 0 011.722 3.267c0 1.258-.772 1.809-1.722 1.28z" fill="#D4ECFF"/><path d="M210.28 360.593c0 1.258-.883 1.766-1.986 1.148a4.406 4.406 0 01-1.965-3.443c0-1.258.883-1.766 1.965-1.126a4.41 4.41 0 011.986 3.421zm6.974 4.018c0 1.258-.883 1.766-1.987 1.148a4.425 4.425 0 01-1.964-3.422c0-1.258.883-1.765 1.964-1.147a4.41 4.41 0 011.987 3.421z" fill="#173D7A"/><path d="M224.229 368.65c0 1.258-.883 1.765-1.986 1.125a4.409 4.409 0 01-1.965-3.421c0-1.258.883-1.766 1.965-1.148a4.424 4.424 0 011.986 3.444z" fill="#D4ECFF"/><path d="M231.204 372.667c0 1.258-.883 1.766-1.986 1.148a4.409 4.409 0 01-1.965-3.421c0-1.281.883-1.788 1.965-1.148a4.413 4.413 0 011.986 3.421zm29.357 20.572l-4.061-2.34a2.663 2.663 0 01-1.082-2.207v-4.304c0-.817.486-1.192 1.082-.839l4.061 2.362a2.564 2.564 0 011.104 2.097v4.282c0 .927-.486 1.302-1.104.949z" fill="#173D7A"/><path d="M266.52 434.712l-85.817-49.574a8.297 8.297 0 01-3.466-6.622V362.16c0-2.56 1.545-3.73 3.466-2.626l85.817 49.486a8.305 8.305 0 013.465 6.622v16.355c-.088 2.561-1.633 3.752-3.465 2.715z" fill="#5793CE"/><path opacity=".4" d="M263.96 428.908l-80.785-46.661a4.12 4.12 0 01-1.766-3.355v-12.294c0-1.302.773-1.898 1.766-1.324l80.785 46.638a4.256 4.256 0 011.765 3.377v12.295c0 1.28-.794 1.876-1.765 1.324z" fill="#D4ECFF"/><path d="M199.994 385.756l-12.051-6.952a4.095 4.095 0 01-1.7-3.267c0-1.258.751-1.854 1.7-1.302l12.051 6.974a4.06 4.06 0 011.722 3.267c0 1.258-.772 1.832-1.722 1.28z" fill="#D4ECFF"/><path d="M212.487 390.965c0 2.384-1.678 3.355-3.731 2.207a8.208 8.208 0 01-3.73-6.467c0-2.384 1.656-3.333 3.73-2.207a8.302 8.302 0 013.731 6.467z" fill="#fff"/><path d="M226.923 399.396c0 1.258-.883 1.788-1.965 1.148a4.417 4.417 0 01-1.986-3.421c0-1.258.883-1.766 1.986-1.148a4.409 4.409 0 011.965 3.421z" fill="#173D7A"/><path d="M233.896 403.457c0 1.259-.882 1.766-1.986 1.126a4.419 4.419 0 01-1.964-3.421c0-1.258.882-1.766 1.964-1.126a4.41 4.41 0 011.986 3.421z" fill="#D4ECFF"/><path d="M240.872 407.475c0 1.258-.883 1.766-1.986 1.148a4.409 4.409 0 01-1.965-3.421c0-1.258.883-1.788 1.965-1.148a4.417 4.417 0 011.986 3.421z" fill="#173D7A"/><path d="M260.561 422.066l-4.061-2.34a2.674 2.674 0 01-1.082-2.207v-4.304c0-.817.486-1.192 1.082-.839l4.061 2.472a2.619 2.619 0 011.104 2.207v4.282c0 .706-.486 1.082-1.104.729z" fill="#D4ECFF"/><path d="M410.607 544.323L319.118 492.1c-3.355-1.92-2.936-5.297.927-7.526l52.642-30.394a14.574 14.574 0 0113.067-.552l91.489 52.179c3.355 1.943 2.936 5.298-.927 7.549l-52.642 30.438a14.507 14.507 0 01-13.067.529z" fill="#001735" fill-opacity=".23"/><path d="M485.41 488.282V274.667l-84.934-22.227-15.627-9.028a15.45 15.45 0 00-14.016.596l-14.59 8.41h-45.292l13.42 206.221a4.018 4.018 0 002.406 3.752l84.735 64.01a15.607 15.607 0 0014.016-.574l56.461-32.623a5.514 5.514 0 003.421-4.922z" fill="#396CAA"/><path d="M378.338 242.021a16.04 16.04 0 00-7.505 1.987l-14.59 8.409h-45.292v214.101a4.04 4.04 0 002.406 3.752l98.155 55.976a12.844 12.844 0 006.512 1.39l.993-215.535-40.679-70.08z" fill="#D4ECFF"/><path d="M412.417 526.754a15.892 15.892 0 0011.191-.133V309.629h-11.191v217.125z" fill="#5793CE"/><path d="M411.512 312.189l-98.155-55.953c-3.598-2.075-3.134-5.695.993-8.101l56.483-32.6a15.611 15.611 0 0114.016-.574l98.156 55.953c3.597 2.075 3.134 5.695-1.016 8.101l-56.549 32.6a15.442 15.442 0 01-13.928.574z" fill="#D4ECFF"/><path d="M481.989 275.041l-56.55 32.601a15.449 15.449 0 01-14.016.574l-98.067-55.953a5.563 5.563 0 01-1.788-1.59c-.307.469-.506 1-.582 1.555a3.751 3.751 0 002.37 4.008l98.156 55.953a15.447 15.447 0 0014.016-.574l56.461-32.601c3.222-1.854 4.215-4.414 2.803-6.511a7.767 7.767 0 01-2.803 2.538z" fill="#FAFDFF"/><path d="M414.404 289.521l-65.466-37.898c-1.678-.971-1.479-2.649.463-3.775l26.487-15.252a7.267 7.267 0 016.622-.286l65.333 37.898c1.7.971 1.479 2.648-.463 3.774l-26.487 15.252a7.261 7.261 0 01-6.489.287z" fill="#173D7A"/><path d="M379.089 253.323l-3.775-2.208c-.242-.132-.198-.353 0-.507l3.642-2.207a1.052 1.052 0 01.927 0l3.775 2.207c.243.132.198.375 0 .529l-3.664 2.208a.957.957 0 01-.905-.022zm12.581 7.283l-3.797-2.207c-.243-.132-.198-.375 0-.53l3.664-2.207a1.018 1.018 0 01.905 0l3.775 2.207c.242.133.198.376 0 .53l-3.642 2.097a1.012 1.012 0 01-.905.11zm12.647 7.285l-3.796-2.208c-.221-.154-.199-.375 0-.529l3.664-2.208a.95.95 0 01.905 0l3.774 2.208c.243.132.221.353 0 .507l-3.664 2.208a1.027 1.027 0 01-.883.022zm12.647 7.26l-3.796-2.207c-.221-.132-.199-.375 0-.53l3.664-2.207a1.01 1.01 0 01.905 0l3.796 2.207c.221.133.199.376 0 .53l-3.664 2.207a1.012 1.012 0 01-.905 0z" fill="#D4ECFF"/><path d="M348.938 251.623l.375-.265 26.487-15.252a7.262 7.262 0 016.621-.265l65.268 37.832c1.545-1.104 1.633-2.627 0-3.51l-65.29-37.853a7.26 7.26 0 00-6.621.286l-26.487 15.252c-1.832 1.126-2.031 2.804-.353 3.775z" fill="#5793CE"/><path d="M436.476 354.524l37.236-21.344a9.086 9.086 0 003.774-7.239v-13.244c0-2.781-1.699-4.061-3.774-2.847l-37.236 21.278a9.083 9.083 0 00-3.775 7.239v13.244c.067 2.825 1.744 4.105 3.775 2.913z" fill="#173D7A"/><path d="M475.544 309.452a3.803 3.803 0 01.95 2.781v13.243a9.01 9.01 0 01-3.797 7.218l-37.147 21.277a2.558 2.558 0 01-1.832.398 2.206 2.206 0 002.825 0l37.169-21.19a9.1 9.1 0 003.775-7.239v-13.244c0-1.876-.795-3.046-1.943-3.244z" fill="#fff"/><path d="M447.711 340.088l3.421-1.964a1.961 1.961 0 00.817-1.589v-3.642c0-.596-.354-.883-.817-.618l-3.421 1.964a2.033 2.033 0 00-.817 1.589v3.642c0 .596.375.883.817.618z" fill="#396CAA"/><path d="M459.123 333.511l3.399-1.964a1.993 1.993 0 00.839-1.589v-3.642c0-.596-.376-.883-.839-.618l-3.399 1.964a1.986 1.986 0 00-.839 1.589v3.62c0 .618.375.905.839.64z" fill="#fff"/><path d="M436.476 450.538l37.17-21.278a9.096 9.096 0 003.774-7.239v-13.244c0-2.781-1.7-4.061-3.774-2.847l-37.17 21.233a9.01 9.01 0 00-3.775 7.218v13.243c.067 2.848 1.744 4.128 3.775 2.914z" fill="#173D7A"/><path d="M475.544 405.489a3.714 3.714 0 01.95 2.759v13.243a9.098 9.098 0 01-3.797 7.24l-37.147 21.255a2.718 2.718 0 01-1.832.42 2.206 2.206 0 002.825 0l37.169-21.278a9.1 9.1 0 003.775-7.24v-13.243c0-1.788-.795-2.958-1.943-3.156z" fill="#fff"/><path d="M447.712 436.103l3.421-1.965a1.962 1.962 0 00.794-1.633v-3.642c0-.596-.353-.883-.816-.618l-3.422 1.964a2.04 2.04 0 00-.816 1.59v3.642c.022.64.397.927.839.662z" fill="#396CAA"/><path d="M459.123 429.526l3.399-1.965a1.984 1.984 0 00.839-1.589v-3.642c0-.596-.376-.883-.839-.618l-3.399 1.965a1.986 1.986 0 00-.839 1.589v3.642c0 .596.375.883.839.618z" fill="#fff"/><path d="M436.476 498.545l37.17-21.278a9.06 9.06 0 003.774-7.218v-13.243c0-2.803-1.7-4.083-3.774-2.869l-37.17 21.233a9.01 9.01 0 00-3.775 7.218v13.243c.067 2.848 1.744 4.128 3.775 2.914z" fill="#173D7A"/><path d="M475.544 453.496a3.718 3.718 0 01.95 2.759v13.243a9.102 9.102 0 01-3.797 7.24l-37.147 21.278a2.826 2.826 0 01-1.832.397 2.206 2.206 0 002.825 0l37.169-21.278a9.052 9.052 0 003.775-7.217v-13.244c0-1.81-.795-2.98-1.943-3.178z" fill="#fff"/><path d="M447.711 484.11l3.421-1.965a1.949 1.949 0 00.817-1.567v-3.642c0-.618-.354-.905-.817-.64l-3.421 1.965a2.03 2.03 0 00-.817 1.589v3.642c0 .596.375.883.817.618z" fill="#396CAA"/><path d="M459.123 477.533l3.399-1.964a1.996 1.996 0 00.839-1.59v-3.642c0-.596-.376-.882-.839-.618l-3.399 1.965a1.986 1.986 0 00-.839 1.589v3.642c0 .596.375.883.839.618z" fill="#fff"/><path d="M436.476 402.531l37.17-21.278a9.096 9.096 0 003.774-7.24V360.77c0-2.781-1.7-4.061-3.774-2.847l-37.17 21.211a9.083 9.083 0 00-3.775 7.24v13.243c.067 2.848 1.744 4.194 3.775 2.914z" fill="#173D7A"/><path d="M475.544 357.459a3.786 3.786 0 01.95 2.781v13.243a9.013 9.013 0 01-3.797 7.218l-37.147 21.278a2.563 2.563 0 01-1.832.397 2.206 2.206 0 002.825 0l37.169-21.278a9.1 9.1 0 003.775-7.239v-13.244c0-1.765-.795-2.957-1.943-3.156z" fill="#fff"/><path d="M447.711 388.096l3.421-1.965a1.961 1.961 0 00.817-1.589V380.9c0-.596-.354-.883-.817-.618l-3.421 1.964a2.033 2.033 0 00-.817 1.59v3.642c0 .595.375.882.817.618z" fill="#396CAA"/><path d="M459.123 381.518l3.399-1.964a1.984 1.984 0 00.839-1.589v-3.642c0-.596-.376-.883-.839-.618l-3.399 1.964a1.992 1.992 0 00-.839 1.59v3.641c0 .596.375.839.839.618z" fill="#fff"/><path d="M404.362 340.927l-85.729-49.508a8.292 8.292 0 01-3.465-6.621v-16.334c0-2.56 1.545-3.73 3.465-2.626l85.729 49.486a8.315 8.315 0 013.487 6.621v16.356c-.066 2.538-1.567 3.708-3.487 2.626z" fill="#5793CE"/><path opacity=".4" d="M401.911 335.189l-80.807-46.661a4.193 4.193 0 01-1.766-3.355v-12.294c0-1.302.795-1.898 1.766-1.324l80.807 46.638a4.23 4.23 0 011.743 3.377v12.295c0 1.28-.772 1.876-1.743 1.324z" fill="#D4ECFF"/><path d="M337.945 292.037l-12.073-6.953a4.152 4.152 0 01-1.7-3.266c0-1.259.773-1.855 1.7-1.303l12.073 6.975a4.063 4.063 0 011.7 3.267c0 1.258-.75 1.832-1.7 1.28z" fill="#D4ECFF"/><path d="M348.187 295.657c0 1.258-.882 1.766-1.964 1.126a4.41 4.41 0 01-1.986-3.422c0-1.258.882-1.765 1.986-1.125a4.419 4.419 0 011.964 3.421zm6.997 4.062c0 1.258-.883 1.766-1.964 1.148a4.416 4.416 0 01-1.987-3.422c0-1.258.883-1.787 1.987-1.147a4.416 4.416 0 011.964 3.421z" fill="#173D7A"/><path d="M362.158 303.735c0 1.281-.882 1.788-1.964 1.148a4.413 4.413 0 01-1.986-3.421c0-1.258.882-1.766 1.986-1.148a4.419 4.419 0 011.964 3.421z" fill="#D4ECFF"/><path d="M369.133 307.775c0 1.258-.883 1.766-1.986 1.148a4.416 4.416 0 01-1.965-3.443c0-1.258.883-1.766 1.965-1.126a4.41 4.41 0 011.986 3.421zm29.379 20.571l-3.973-2.34a2.619 2.619 0 01-1.104-2.207v-4.415c0-.816.486-1.191 1.104-.838l4.061 2.339a2.674 2.674 0 011.082 2.208v4.282c-.089.949-.574 1.39-1.17.971z" fill="#173D7A"/><path d="M404.362 369.731l-85.729-49.486a8.305 8.305 0 01-3.465-6.622V297.29c0-2.561 1.545-3.731 3.465-2.627l85.729 49.552a8.327 8.327 0 013.487 6.622v16.333c-.066 2.495-1.567 3.687-3.487 2.561z" fill="#5793CE"/><path opacity=".4" d="M401.911 364.081l-80.807-46.661a4.205 4.205 0 01-1.766-3.355v-12.294c0-1.302.795-1.898 1.766-1.324l80.807 46.638a4.247 4.247 0 011.743 3.378v12.272c0 1.346-.772 1.832-1.743 1.346z" fill="#D4ECFF"/><path d="M337.945 320.864l-12.073-6.953a4.146 4.146 0 01-1.7-3.267c0-1.258.773-1.854 1.7-1.302l12.073 6.953a4.126 4.126 0 011.7 3.288c0 1.259-.75 1.832-1.7 1.281z" fill="#D4ECFF"/><path d="M348.187 324.528c0 1.258-.882 1.765-1.964 1.125a4.413 4.413 0 01-1.986-3.421c0-1.258.882-1.766 1.986-1.126a4.406 4.406 0 011.964 3.422z" fill="#fff"/><path d="M355.184 328.544c0 1.258-.883 1.766-1.964 1.148a4.407 4.407 0 01-1.987-3.421c0-1.258.883-1.788 1.987-1.148a4.416 4.416 0 011.964 3.421z" fill="#173D7A"/><path d="M362.158 332.562c0 1.28-.882 1.788-1.964 1.148a4.41 4.41 0 01-1.986-3.421c0-1.259.882-1.766 1.986-1.148a4.419 4.419 0 011.964 3.421z" fill="#D4ECFF"/><path d="M369.133 336.601c0 1.258-.883 1.766-1.986 1.126a4.418 4.418 0 01-1.965-3.422c0-1.258.883-1.765 1.965-1.125a4.413 4.413 0 011.986 3.421zm29.379 20.572l-3.973-2.34a2.619 2.619 0 01-1.104-2.207v-4.282c0-.817.486-1.192 1.104-.839l4.061 2.34a2.675 2.675 0 011.082 2.096v4.415c-.089.795-.574 1.104-1.17.817z" fill="#173D7A"/><path d="M404.362 398.557l-85.729-49.486a8.292 8.292 0 01-3.465-6.621v-16.334c0-2.56 1.545-3.73 3.465-2.626l85.729 49.42a8.315 8.315 0 013.487 6.621v16.334c-.066 2.626-1.567 3.818-3.487 2.692z" fill="#5793CE"/><path opacity=".4" d="M401.911 392.775l-80.807-46.661a4.205 4.205 0 01-1.766-3.355v-12.228c0-1.302.795-1.898 1.766-1.346l80.807 46.661a4.235 4.235 0 011.743 3.377v12.272c0 1.28-.772 1.898-1.743 1.28z" fill="#D4ECFF"/><path d="M337.945 349.69l-12.073-6.953a4.152 4.152 0 01-1.7-3.266c0-1.28.773-1.854 1.7-1.303l12.073 6.953a4.074 4.074 0 011.7 3.289c0 1.258-.75 1.832-1.7 1.28z" fill="#D4ECFF"/><path d="M348.187 353.353c0 1.258-.882 1.766-1.964 1.126a4.41 4.41 0 01-1.986-3.421c0-1.259.882-1.766 1.986-1.148a4.406 4.406 0 011.964 3.443z" fill="#fff"/><path d="M355.184 357.46c0 1.258-.883 1.766-1.964 1.148a4.416 4.416 0 01-1.987-3.421c0-1.281.883-1.788 1.987-1.148a4.416 4.416 0 011.964 3.421z" fill="#173D7A"/><path d="M362.158 361.389c0 1.258-.882 1.788-1.964 1.147a4.413 4.413 0 01-1.986-3.421c0-1.258.882-1.766 1.986-1.148a4.406 4.406 0 011.964 3.422z" fill="#D4ECFF"/><path d="M369.133 365.427c0 1.258-.883 1.766-1.986 1.125a4.406 4.406 0 01-1.965-3.421c0-1.258.883-1.765 1.965-1.125a4.413 4.413 0 011.986 3.421zm29.379 20.572l-3.973-2.362a2.559 2.559 0 01-1.103-2.207v-4.105c0-.817.485-1.192 1.103-.839l4.062 2.34a2.675 2.675 0 011.081 2.096v4.415c-.088.64-.574 1.015-1.17.662z" fill="#173D7A"/><path d="M404.362 427.384l-85.729-49.486a8.305 8.305 0 01-3.465-6.622v-16.333c0-2.561 1.545-3.73 3.465-2.627l85.729 49.486a8.327 8.327 0 013.487 6.622v16.333c-.066 2.561-1.567 3.753-3.487 2.627z" fill="#5793CE"/><path opacity=".4" d="M401.911 421.667l-80.807-46.55a4.209 4.209 0 01-1.766-3.355v-12.294c0-1.303.795-1.899 1.766-1.347l80.807 46.661a4.22 4.22 0 011.743 3.377v12.272c0 1.192-.772 1.788-1.743 1.236z" fill="#D4ECFF"/><path d="M337.945 378.516l-12.073-6.953a4.146 4.146 0 01-1.7-3.267c0-1.28.773-1.854 1.7-1.302l12.073 6.953a4.073 4.073 0 011.7 3.266c0 1.28-.75 1.854-1.7 1.303z" fill="#D4ECFF"/><path d="M348.187 382.18c0 1.258-.882 1.766-1.964 1.125a4.413 4.413 0 01-1.986-3.421c0-1.258.882-1.766 1.986-1.147a4.41 4.41 0 011.964 3.443zm6.997 3.973c0 1.258-.883 1.766-1.964 1.148a4.419 4.419 0 01-1.987-3.443c0-1.258.883-1.766 1.987-1.126a4.416 4.416 0 011.964 3.421z" fill="#173D7A"/><path d="M362.158 390.215c0 1.258-.882 1.788-1.964 1.148a4.417 4.417 0 01-1.986-3.421c0-1.258.882-1.766 1.986-1.148a4.419 4.419 0 011.964 3.421z" fill="#D4ECFF"/><path d="M369.133 394.253c0 1.259-.883 1.766-1.986 1.126a4.409 4.409 0 01-1.965-3.421c0-1.258.883-1.766 1.965-1.126a4.41 4.41 0 011.986 3.421z" fill="#173D7A"/><path d="M398.512 414.847l-3.973-2.384a2.556 2.556 0 01-1.103-2.097v-4.348c0-.817.485-1.192 1.103-.839l4.061 2.34a2.666 2.666 0 011.082 2.097v4.414c-.088.817-.574 1.126-1.17.817z" fill="#D4ECFF"/><path d="M404.362 456.21l-85.729-49.486a8.292 8.292 0 01-3.465-6.621v-16.334c0-2.56 1.545-3.752 3.465-2.626l85.729 49.486a8.315 8.315 0 013.487 6.621v16.334c-.066 2.56-1.567 3.73-3.487 2.626z" fill="#5793CE"/><path opacity=".4" d="M401.911 450.494l-80.807-46.683a4.22 4.22 0 01-1.766-3.377v-12.272c0-1.303.795-1.899 1.766-1.347l80.807 46.661a4.196 4.196 0 011.743 3.355v12.294c0 1.324-.772 1.92-1.743 1.369z" fill="#D4ECFF"/><path d="M337.945 407.343l-12.073-6.953a4.143 4.143 0 01-1.7-3.289c0-1.258.773-1.832 1.7-1.28l12.073 6.953a4.073 4.073 0 011.7 3.266c0 1.28-.75 1.854-1.7 1.303z" fill="#D4ECFF"/><path d="M348.187 410.984c0 1.281-.882 1.788-1.964 1.148a4.414 4.414 0 01-1.986-3.421c0-1.258.882-1.766 1.986-1.148a4.419 4.419 0 011.964 3.421z" fill="#173D7A"/><path d="M355.184 415.024c0 1.258-.883 1.766-1.964 1.148a4.41 4.41 0 01-1.987-3.443c0-1.258.883-1.766 1.987-1.126a4.416 4.416 0 011.964 3.421z" fill="#fff"/><path d="M362.158 419.041c0 1.258-.882 1.766-1.964 1.148a4.41 4.41 0 01-1.986-3.422c0-1.258.882-1.765 1.986-1.147a4.41 4.41 0 011.964 3.421z" fill="#D4ECFF"/><path d="M369.133 423.081c0 1.258-.883 1.765-1.986 1.125a4.412 4.412 0 01-1.965-3.421c0-1.258.883-1.766 1.965-1.148a4.424 4.424 0 011.986 3.444z" fill="#fff"/><path d="M398.512 443.652l-3.973-2.318a2.586 2.586 0 01-1.103-2.097v-4.282c0-.817.485-1.192 1.103-.839l4.061 2.34a2.664 2.664 0 011.082 2.097v4.304c-.088.684-.574 1.126-1.17.795z" fill="#D4ECFF"/><path d="M404.362 485.037l-85.729-49.486a8.305 8.305 0 01-3.465-6.622V412.64c0-2.56 1.545-3.752 3.465-2.627l85.729 49.487a8.315 8.315 0 013.487 6.621v16.334c-.066 2.516-1.567 3.686-3.487 2.582z" fill="#5793CE"/><path opacity=".4" d="M401.911 479.32l-80.807-46.661a4.223 4.223 0 01-1.766-3.377v-12.228c0-1.302.795-1.898 1.766-1.346l80.807 46.66a4.205 4.205 0 011.743 3.355v12.295c0 1.258-.772 1.854-1.743 1.302z" fill="#D4ECFF"/><path d="M337.945 436.169l-12.073-6.953a4.195 4.195 0 01-1.7-3.288c0-1.258.773-1.832 1.7-1.281l12.073 6.953a4.084 4.084 0 011.7 3.267c0 1.258-.75 1.854-1.7 1.302z" fill="#D4ECFF"/><path d="M348.187 439.811c0 1.258-.882 1.788-1.964 1.148a4.41 4.41 0 01-1.986-3.422c0-1.258.882-1.765 1.986-1.147a4.419 4.419 0 011.964 3.421zm6.997 4.039c0 1.258-.883 1.766-1.964 1.126a4.407 4.407 0 01-1.987-3.421c0-1.258.883-1.766 1.987-1.126a4.416 4.416 0 011.964 3.421z" fill="#173D7A"/><path d="M362.158 447.955c0 1.258-.882 1.766-1.964 1.148a4.417 4.417 0 01-1.986-3.421c0-1.258.882-1.788 1.986-1.148a4.419 4.419 0 011.964 3.421z" fill="#D4ECFF"/><path d="M369.133 451.907c0 1.258-.883 1.766-1.986 1.126a4.409 4.409 0 01-1.965-3.421c0-1.258.883-1.766 1.965-1.148a4.42 4.42 0 011.986 3.443zm29.379 20.549l-3.973-2.428a2.577 2.577 0 01-1.103-2.096v-4.415c0-.795.485-1.17 1.103-.817l4.061 2.34a2.666 2.666 0 011.082 2.097v4.304c-.088 1.015-.574 1.369-1.17 1.015z" fill="#173D7A"/><path d="M404.362 513.863l-85.729-49.486a8.305 8.305 0 01-3.465-6.622v-16.422c0-2.56 1.545-3.752 3.465-2.626l85.729 49.486a8.327 8.327 0 013.487 6.622v16.333c-.066 2.649-1.567 3.819-3.487 2.715z" fill="#5793CE"/><path opacity=".4" d="M401.911 508.124l-80.807-46.638a4.278 4.278 0 01-1.282-1.48 4.271 4.271 0 01-.484-1.897v-12.361c0-1.302.795-1.898 1.766-1.346l80.807 46.66a4.205 4.205 0 011.743 3.355v12.295c0 1.39-.772 1.986-1.743 1.412z" fill="#D4ECFF"/><path d="M337.945 464.996l-12.073-6.975a4.111 4.111 0 01-1.7-3.267c0-1.258.773-1.832 1.7-1.28l12.073 6.953a4.076 4.076 0 011.7 3.267c0 1.258-.75 1.92-1.7 1.302z" fill="#D4ECFF"/><path d="M350.394 470.204c0 2.384-1.678 3.355-3.73 2.208a8.286 8.286 0 01-3.731-6.468c0-2.383 1.678-3.354 3.731-2.207a8.286 8.286 0 013.73 6.467z" fill="#fff"/><path d="M364.851 478.659c0 1.258-.883 1.765-1.964 1.147a4.411 4.411 0 01-1.987-3.443c0-1.258.883-1.766 1.987-1.126a4.419 4.419 0 011.964 3.422z" fill="#173D7A"/><path d="M371.827 482.675c0 1.258-.883 1.766-1.964 1.148a4.41 4.41 0 01-1.987-3.421c0-1.259.883-1.766 1.987-1.148a4.416 4.416 0 011.964 3.421z" fill="#D4ECFF"/><path d="M378.801 486.715c0 1.258-.883 1.766-1.964 1.126a4.416 4.416 0 01-1.987-3.421c0-1.259.883-1.766 1.987-1.126a4.416 4.416 0 011.964 3.421z" fill="#173D7A"/><path d="M398.512 501.282l-3.973-2.34a2.577 2.577 0 01-1.103-2.097v-4.414c0-.795.485-1.17 1.103-.817l4.061 2.34a2.617 2.617 0 011.082 2.207v4.304c-.088.795-.574 1.17-1.17.817zm104.314-240.808l-3.708-2.207v-5.253a19.881 19.881 0 00-8.829-15.451l-28.032-16.068c-4.922-2.87-8.829-.53-8.829 5.165v57.388l-3.929-54.254v-5.32c0-8.056 5.673-11.323 12.647-7.305l28.032 16.068a28.03 28.03 0 0112.648 21.918v5.319z" fill="#D4ECFF"/><path d="M490.178 267.735l12.647-7.261-2.56-8.829-3.532-8.829s-6.092-6.776-6.621-6.909c-.53-.132-16.996-9.557-16.996-9.557l-13.795-9.933-6.622.243-12.206 6.997 8.829 3.642s4.966 2.472 6.092 2.781a41.748 41.748 0 016.136 4.988l6.004 2.45 1.28-.22 10.749 7.548 3.466 1.523 1.986 2.936 2.869 8.012 2.274 10.418z" fill="#D4ECFF"/><path d="M453.207 283.914l-12.626 7.284s-.816-60.147-.816-60.235c0-.088 2.759-3.973 2.759-3.973l6.842-1.325 5.43 4.106-1.7-.684-.728.419.839 1.324v53.084z" fill="#396CAA"/><path d="M490.179 267.735l-3.686-2.207v-5.187a19.87 19.87 0 00-8.962-15.451l-28.01-16.068c-4.922-2.847-8.828-.53-8.828 5.165v57.388l-3.709-2.208V231.78c0-8.057 5.673-11.346 12.648-7.306l27.899 16.002a27.995 27.995 0 0112.648 22.072v5.187z" fill="#5793CE"/><path d="M544.829 608.444l-64.208-36.574c-2.34-1.368-2.053-3.73.662-5.297l36.905-21.3a10.085 10.085 0 019.138-.375l64.164 36.574c2.34 1.346 2.031 3.708-.662 5.275l-36.905 21.322a10.272 10.272 0 01-9.094.375z" fill="#001735" fill-opacity=".23"/><path d="M623.34 515.409V301.793l-84.912-22.227-15.65-9.027a15.446 15.446 0 00-13.993.574l-14.612 8.431H448.88l13.42 206.222a4.041 4.041 0 002.406 3.752l84.736 64.01a15.61 15.61 0 0014.016-.574l56.483-32.623a5.524 5.524 0 003.399-4.922z" fill="#396CAA"/><path d="M516.289 269.17a15.69 15.69 0 00-7.504 1.964l-14.612 8.432H448.88v214.101a4.09 4.09 0 002.406 3.752l98.156 55.975a12.669 12.669 0 006.511 1.391l1.015-215.536-40.679-70.079z" fill="#D4ECFF"/><path d="M550.347 553.903a15.892 15.892 0 0011.191-.133V336.734h-11.191v217.169z" fill="#5793CE"/><path d="M549.442 339.316l-98.155-55.975c-3.576-2.075-3.134-5.695 1.015-8.101l56.483-32.556a15.566 15.566 0 0113.994-.574l98.155 55.975c3.598 2.075 3.135 5.695-.993 8.079l-56.483 32.6a15.598 15.598 0 01-14.016.552z" fill="#D4ECFF"/><path d="M619.94 302.147l-56.483 32.6a15.443 15.443 0 01-14.016.596l-98.155-55.975a5.539 5.539 0 01-1.788-1.589 3.773 3.773 0 00.417 4.632c.382.408.851.725 1.371.93l98.155 55.975a15.594 15.594 0 0014.016-.596l56.483-32.6c3.223-1.854 4.194-4.415 2.781-6.49a7.835 7.835 0 01-2.781 2.517z" fill="#FAFDFF"/><path d="M552.223 316.626l-65.356-37.876c-1.678-.971-1.457-2.671.485-3.796l26.487-15.252a7.257 7.257 0 016.622-.265l65.356 37.876c1.677.971 1.457 2.67-.486 3.774l-26.486 15.274a7.335 7.335 0 01-6.622.265z" fill="#173D7A"/><path d="M516.952 280.449l-3.797-2.207c-.22-.132-.198-.375 0-.53l3.664-2.207a.956.956 0 01.905 0l3.775 2.207c.243.133.22.354 0 .508l-3.642 2.207a1.012 1.012 0 01-.905.022zm12.647 7.262l-3.796-2.208c-.221-.132-.199-.375 0-.529l3.664-2.208a1.024 1.024 0 01.905 0l3.796 2.208c.221.132.199.375 0 .529l-3.664 2.208a1.01 1.01 0 01-.905 0zm12.647 7.284l-3.796-2.207c-.221-.133-.199-.375 0-.53l3.664-2.207a1.012 1.012 0 01.905 0l3.796 2.207c.221.132.199.353 0 .508l-3.664 2.207a1.01 1.01 0 01-.905.022zm12.648 7.284l-3.775-2.207c-.243-.133-.22-.353 0-.508l3.642-2.207a1.018 1.018 0 01.905 0l3.797 2.207c.22.133.198.375 0 .53l-3.664 2.207a1.017 1.017 0 01-.905-.022z" fill="#D4ECFF"/><path d="M486.867 278.75c.124-.108.257-.204.398-.287l26.486-15.252a7.27 7.27 0 016.622-.265l65.268 37.832c1.545-1.104 1.633-2.627 0-3.509l-65.29-37.832a7.255 7.255 0 00-6.622.265l-26.486 15.252c-1.832 1.125-2.053 2.825-.376 3.796z" fill="#5793CE"/><path d="M574.472 381.739l37.169-21.277a9.046 9.046 0 003.775-7.24v-13.244c0-2.781-1.678-4.061-3.775-2.847l-37.169 21.278a9.05 9.05 0 00-3.775 7.217v13.244c0 2.693 1.7 3.973 3.775 2.869z" fill="#173D7A"/><path d="M613.473 336.579a3.64 3.64 0 01.95 2.759v13.243a9.144 9.144 0 01-3.775 7.24l-37.17 21.255c-.54.356-1.19.504-1.832.42a2.211 2.211 0 002.826 0l37.169-21.278a9.046 9.046 0 003.775-7.24v-13.243c0-1.788-.773-2.958-1.943-3.156z" fill="#fff"/><path d="M585.663 367.193l3.399-1.965a1.983 1.983 0 00.839-1.589v-3.642c0-.596-.375-.883-.839-.618l-3.399 1.965a1.983 1.983 0 00-.839 1.589v3.642c0 .596.375.883.839.618z" fill="#396CAA"/><path d="M597.052 360.615l3.421-1.964a2.033 2.033 0 00.817-1.589v-3.642c0-.596-.375-.883-.817-.618l-3.421 1.964a1.961 1.961 0 00-.817 1.589v3.642c0 .596.353.883.817.618z" fill="#fff"/><path d="M574.472 477.643l37.169-21.278a9.007 9.007 0 003.775-7.217v-13.244c0-2.803-1.678-4.083-3.775-2.869l-37.169 21.278a9.064 9.064 0 00-3.775 7.239v13.244c0 2.781 1.7 4.061 3.775 2.847z" fill="#173D7A"/><path d="M613.473 432.505a3.64 3.64 0 01.95 2.759v13.243a9.144 9.144 0 01-3.775 7.24l-37.17 21.277a2.78 2.78 0 01-1.832.398 2.211 2.211 0 002.826 0l37.169-21.278a9.01 9.01 0 003.775-7.218v-13.243c0-1.722-.773-2.891-1.943-3.178z" fill="#fff"/><path d="M585.663 463.207l3.399-1.964a1.966 1.966 0 00.839-1.568v-3.641c0-.618-.375-.883-.839-.641l-3.399 1.987a1.947 1.947 0 00-.839 1.567v3.642c0 .596.375.817.839.618z" fill="#396CAA"/><path d="M597.052 456.63l3.421-1.964a1.999 1.999 0 00.817-1.567v-3.642c0-.618-.375-.905-.817-.64l-3.421 1.964a1.964 1.964 0 00-.817 1.589v3.642c0 .596.353.883.817.618z" fill="#fff"/><path d="M574.472 525.65l37.169-21.277a9.01 9.01 0 003.775-7.218v-13.243c0-2.804-1.678-4.084-3.775-2.87l-37.169 21.278a9.1 9.1 0 00-3.775 7.24v13.243c0 2.781 1.7 4.061 3.775 2.847z" fill="#173D7A"/><path d="M613.473 480.6a3.644 3.644 0 01.95 2.759v13.244a9.14 9.14 0 01-3.775 7.239l-37.17 21.366a2.78 2.78 0 01-1.832.398 2.211 2.211 0 002.826 0l37.169-21.278a9.01 9.01 0 003.775-7.218v-13.243c0-1.898-.773-3.068-1.943-3.267z" fill="#fff"/><path d="M585.663 511.215l3.399-1.964a1.966 1.966 0 00.839-1.567v-3.642c0-.618-.375-.883-.839-.618l-3.399 1.964a1.972 1.972 0 00-.839 1.567v3.642c0 .618.375.883.839.618z" fill="#396CAA"/><path d="M597.052 504.638l3.421-1.965a2.005 2.005 0 00.817-1.567v-3.642c0-.618-.375-.905-.817-.64l-3.421 1.987a1.876 1.876 0 00-.817 1.567v3.642c0 .596.354.882.817.618zm-2.516 24.522l3.399-1.986a1.873 1.873 0 00.817-1.567v-3.642c0-.596-.353-.883-.817-.618l-3.399 1.964a1.972 1.972 0 00-.839 1.567v3.642c0 .618.376.905.839.64z" fill="#fff"/><path d="M574.472 429.636l37.169-21.278a9.01 9.01 0 003.775-7.217v-13.244c0-2.803-1.678-4.083-3.775-2.869l-37.169 21.277a9.05 9.05 0 00-3.775 7.218v13.243c0 2.804 1.7 4.084 3.775 2.87z" fill="#173D7A"/><path d="M613.473 384.586a3.64 3.64 0 01.95 2.759v13.243a9.14 9.14 0 01-3.775 7.24l-37.17 21.278c-.546.34-1.193.48-1.832.397a2.211 2.211 0 002.826 0l37.169-21.278a9.01 9.01 0 003.775-7.217v-13.244c0-1.81-.773-2.98-1.943-3.178z" fill="#fff"/><path d="M585.663 415.201l3.399-1.965a1.972 1.972 0 00.839-1.567v-3.642c0-.618-.375-.905-.839-.64l-3.399 1.965a1.983 1.983 0 00-.839 1.589v3.642c0 .596.375.883.839.618z" fill="#396CAA"/><path d="M597.052 408.622l3.421-1.964a2.033 2.033 0 00.817-1.589v-3.642c0-.596-.375-.883-.817-.618l-3.421 1.964a1.964 1.964 0 00-.817 1.589v3.642c0 .596.353.883.817.618z" fill="#fff"/><path d="M542.291 368.032l-85.707-49.508a8.275 8.275 0 01-3.487-6.622v-16.245c0-2.56 1.567-3.73 3.487-2.627l85.707 49.486a8.376 8.376 0 013.487 6.622v16.356c0 2.472-1.567 3.642-3.487 2.538z" fill="#5793CE"/><path opacity=".4" d="M539.841 362.293l-80.807-46.639a4.256 4.256 0 01-1.765-3.377v-12.206c0-1.302.794-1.898 1.765-1.324l80.807 46.639a4.27 4.27 0 011.766 3.377v12.294c0 1.214-.795 1.81-1.766 1.236z" fill="#D4ECFF"/><path d="M475.875 319.164l-12.051-6.975a4.105 4.105 0 01-1.722-3.266c0-1.258.773-1.832 1.722-1.303l12.051 6.975a4.07 4.07 0 011.722 3.267c0 1.258-.773 1.832-1.722 1.302z" fill="#D4ECFF"/><path d="M486.161 322.806c0 1.258-.905 1.766-1.987 1.148a4.413 4.413 0 01-1.986-3.421c0-1.281.905-1.788 1.986-1.148a4.407 4.407 0 011.987 3.421zm6.952 4.017c0 1.258-.883 1.788-1.964 1.148a4.416 4.416 0 01-1.987-3.421c0-1.258.883-1.766 1.987-1.148a4.416 4.416 0 011.964 3.421z" fill="#173D7A"/><path d="M500.089 330.973c0 1.258-.883 1.765-1.965 1.125a4.413 4.413 0 01-1.986-3.421c0-1.258.883-1.766 1.986-1.125a4.406 4.406 0 011.965 3.421z" fill="#D4ECFF"/><path d="M507.108 334.879c0 1.258-.883 1.766-1.965 1.148a4.41 4.41 0 01-1.986-3.421c0-1.258.883-1.788 1.986-1.148a4.409 4.409 0 011.965 3.421zm29.333 20.572l-4.061-2.406a2.64 2.64 0 01-.802-.917 2.643 2.643 0 01-.302-1.18v-4.415c0-.816.486-1.17 1.104-.838l4.061 2.361a2.623 2.623 0 011.104 2.208v4.282c0 .882-.508 1.258-1.104.905z" fill="#173D7A"/><path d="M542.291 396.858l-85.707-49.508a8.267 8.267 0 01-3.487-6.621v-16.378c0-2.56 1.567-3.73 3.487-2.627l85.707 49.486a8.376 8.376 0 013.487 6.622v16.356c0 2.604-1.567 3.774-3.487 2.67z" fill="#5793CE"/><path opacity=".4" d="M539.841 391.12l-80.807-46.661a4.192 4.192 0 01-1.765-3.355v-12.339c0-1.302.794-1.898 1.765-1.324l80.807 46.639a4.27 4.27 0 011.766 3.377v12.294c0 1.324-.795 1.92-1.766 1.369z" fill="#D4ECFF"/><path d="M475.875 347.968l-12.051-6.953a4.105 4.105 0 01-1.722-3.266c0-1.258.773-1.832 1.722-1.303l12.051 6.975a4.07 4.07 0 011.722 3.267c0 1.258-.773 1.942-1.722 1.28z" fill="#D4ECFF"/><path d="M486.161 351.632c0 1.258-.905 1.766-1.987 1.148a4.42 4.42 0 01-1.986-3.443c0-1.258.905-1.766 1.986-1.126a4.407 4.407 0 011.987 3.421z" fill="#fff"/><path d="M493.113 355.65c0 1.258-.883 1.765-1.964 1.147a4.404 4.404 0 01-1.987-3.421c0-1.258.883-1.766 1.987-1.148a4.425 4.425 0 011.964 3.422z" fill="#173D7A"/><path d="M500.089 359.667c0 1.258-.883 1.766-1.965 1.125a4.411 4.411 0 01-2.052-3.332c0-1.259.883-1.766 1.986-1.126a4.41 4.41 0 012.031 3.333z" fill="#D4ECFF"/><path d="M507.108 363.705c0 1.258-.883 1.766-1.965 1.148a4.417 4.417 0 01-1.986-3.421c0-1.28.883-1.788 1.986-1.148a4.409 4.409 0 011.965 3.421zm29.333 20.572l-4.061-2.339a2.631 2.631 0 01-1.104-2.208v-4.304c0-.816.486-1.192 1.104-.839l4.061 2.362a2.623 2.623 0 011.104 2.207v4.282c0 .817-.508 1.192-1.104.839z" fill="#173D7A"/><path d="M542.291 425.684l-85.707-49.508a8.327 8.327 0 01-3.487-6.622v-16.355c0-2.561 1.567-3.73 3.487-2.627l85.707 49.486a8.327 8.327 0 013.487 6.622v16.356c0 2.582-1.567 3.752-3.487 2.648z" fill="#5793CE"/><path opacity=".4" d="M539.841 419.946l-80.807-46.661a4.19 4.19 0 01-1.765-3.355v-12.294c0-1.302.794-1.898 1.765-1.324l80.807 46.638a4.273 4.273 0 011.766 3.378v12.294c0 1.28-.795 1.876-1.766 1.324z" fill="#D4ECFF"/><path d="M475.875 376.795l-12.051-6.953a4.109 4.109 0 01-1.722-3.267c0-1.258.773-1.854 1.722-1.302l12.051 6.975a4.067 4.067 0 011.722 3.267c0 1.258-.773 1.809-1.722 1.28z" fill="#D4ECFF"/><path d="M486.161 380.459c0 1.258-.905 1.765-1.987 1.125a4.41 4.41 0 01-1.986-3.421c0-1.258.905-1.766 1.986-1.126a4.406 4.406 0 011.987 3.422z" fill="#fff"/><path d="M493.113 384.476c0 1.258-.883 1.766-1.964 1.148a4.407 4.407 0 01-1.987-3.421c0-1.258.883-1.766 1.987-1.148a4.416 4.416 0 011.964 3.421z" fill="#173D7A"/><path d="M500.089 388.515c0 1.258-.883 1.766-1.965 1.126a4.419 4.419 0 01-2.052-3.487c0-1.259.883-1.766 1.986-1.148a4.4 4.4 0 011.442 1.508c.354.61.556 1.297.589 2.001z" fill="#D4ECFF"/><path d="M507.108 392.532c0 1.258-.883 1.766-1.965 1.148a4.41 4.41 0 01-1.986-3.422c0-1.28.883-1.787 1.986-1.147a4.412 4.412 0 011.965 3.421zm29.333 20.572l-4.061-2.34a2.619 2.619 0 01-1.104-2.207v-4.304c0-.817.486-1.192 1.104-.839l4.061 2.34a2.688 2.688 0 011.104 2.207v4.282c0 .839-.508 1.214-1.104.861z" fill="#173D7A"/><path d="M542.291 454.577l-85.707-49.508a8.327 8.327 0 01-3.487-6.622v-16.333c0-2.561 1.567-3.73 3.487-2.627l85.707 49.486a8.327 8.327 0 013.487 6.622v16.356c0 2.472-1.567 3.664-3.487 2.626z" fill="#5793CE"/><path opacity=".4" d="M539.841 448.773l-80.807-46.661a4.183 4.183 0 01-1.283-1.467 4.183 4.183 0 01-.482-1.888v-12.294c0-1.303.794-1.898 1.765-1.325l80.807 46.639a4.27 4.27 0 011.766 3.377v12.272c0 1.303-.795 1.899-1.766 1.347z" fill="#D4ECFF"/><path d="M475.875 405.621l-12.051-6.953a4.105 4.105 0 01-1.722-3.266c0-1.258.773-1.854 1.722-1.302l12.051 6.974a4.07 4.07 0 011.722 3.267c0 1.258-.773 1.832-1.722 1.28z" fill="#D4ECFF"/><path d="M486.161 409.285c0 1.258-.905 1.766-1.987 1.125a4.41 4.41 0 01-1.986-3.421c0-1.258.905-1.766 1.986-1.125a4.41 4.41 0 011.987 3.421zm6.952 4.018c0 1.258-.883 1.765-1.964 1.147a4.404 4.404 0 01-1.987-3.421c0-1.258.883-1.788 1.987-1.148a4.416 4.416 0 011.964 3.422z" fill="#173D7A"/><path d="M500.089 417.32c0 1.28-.883 1.787-1.965 1.147a4.413 4.413 0 01-1.986-3.421c0-1.258.883-1.766 1.986-1.148a4.418 4.418 0 011.965 3.422z" fill="#D4ECFF"/><path d="M507.108 421.469c0 1.258-.883 1.765-1.965 1.147a4.411 4.411 0 01-1.986-3.443c0-1.258.883-1.766 1.986-1.126a4.418 4.418 0 011.965 3.422z" fill="#173D7A"/><path d="M536.441 441.93l-4.061-2.339a2.631 2.631 0 01-1.104-2.208v-4.282c0-.816.486-1.192 1.104-.838l4.061 2.339a2.688 2.688 0 011.104 2.207v4.282c0 .817-.508 1.192-1.104.839z" fill="#D4ECFF"/><path d="M542.291 483.272l-85.707-49.442a8.327 8.327 0 01-3.487-6.622v-16.333c0-2.56 1.567-3.73 3.487-2.627l85.707 49.486a8.327 8.327 0 013.487 6.622v16.334c0 2.582-1.567 3.752-3.487 2.582z" fill="#5793CE"/><path opacity=".4" d="M539.841 477.599l-80.807-46.661a4.215 4.215 0 01-1.765-3.354v-12.295c0-1.302.794-1.898 1.765-1.324l80.807 46.639a4.27 4.27 0 011.766 3.377v12.272c0 1.302-.795 1.898-1.766 1.346z" fill="#D4ECFF"/><path d="M475.875 434.448l-12.051-6.953a4.109 4.109 0 01-1.722-3.267c0-1.258.773-1.854 1.722-1.302l12.051 6.953a4.146 4.146 0 011.722 3.289c0 1.258-.773 1.832-1.722 1.28z" fill="#D4ECFF"/><path d="M486.161 438.111c0 1.258-.905 1.766-1.987 1.126a4.404 4.404 0 01-1.397-1.476 4.407 4.407 0 01-.589-1.945c0-1.258.905-1.766 1.986-1.126a4.41 4.41 0 011.987 3.421z" fill="#173D7A"/><path d="M493.113 442.129c0 1.258-.883 1.766-1.964 1.148a4.416 4.416 0 01-1.987-3.421c0-1.258.883-1.788 1.987-1.148a4.416 4.416 0 011.964 3.421z" fill="#fff"/><path d="M500.089 446.146c0 1.28-.883 1.788-1.965 1.147a4.413 4.413 0 01-1.986-3.421c0-1.258.883-1.765 1.986-1.147a4.406 4.406 0 011.965 3.421z" fill="#D4ECFF"/><path d="M507.108 450.163c0 1.258-.883 1.765-1.965 1.125a4.413 4.413 0 01-1.986-3.421c0-1.258.883-1.766 1.986-1.126a4.418 4.418 0 011.965 3.422z" fill="#fff"/><path d="M536.441 470.757l-4.061-2.34a2.619 2.619 0 01-1.104-2.207v-4.282c0-.817.486-1.192 1.104-.839l4.061 2.34a2.687 2.687 0 011.104 2.097v4.502c0 .707-.508 1.082-1.104.729z" fill="#D4ECFF"/><path d="M542.291 512.142l-85.707-49.486a8.327 8.327 0 01-3.487-6.622V439.7c0-2.56 1.567-3.73 3.487-2.626l85.707 49.486a8.333 8.333 0 012.53 2.896 8.333 8.333 0 01.957 3.726v16.333c0 2.56-1.567 3.752-3.487 2.627z" fill="#5793CE"/><path opacity=".4" d="M539.841 506.426l-80.807-46.661a4.219 4.219 0 01-1.765-3.355v-12.294c0-1.303.794-1.899 1.765-1.347l80.807 46.661a4.217 4.217 0 011.766 3.377v12.272c0 1.302-.795 1.898-1.766 1.347z" fill="#D4ECFF"/><path d="M475.875 463.274l-12.051-6.953a4.105 4.105 0 01-1.722-3.266c0-1.28.773-1.854 1.722-1.302l12.051 6.952a4.116 4.116 0 011.722 3.289c0 1.258-.773 1.832-1.722 1.28z" fill="#D4ECFF"/><path d="M486.161 466.939c0 1.258-.905 1.765-1.987 1.125a4.41 4.41 0 01-1.986-3.421c0-1.258.905-1.766 1.986-1.148a4.414 4.414 0 011.987 3.444zm6.952 4.016c0 1.258-.883 1.766-1.964 1.148a4.407 4.407 0 01-1.987-3.421c0-1.28.883-1.788 1.987-1.148a4.416 4.416 0 011.964 3.421z" fill="#173D7A"/><path d="M500.089 474.972c0 1.258-.883 1.788-1.965 1.148a4.417 4.417 0 01-1.986-3.421c0-1.258.883-1.766 1.986-1.148a4.409 4.409 0 011.965 3.421z" fill="#D4ECFF"/><path d="M507.108 479.011c0 1.258-.883 1.766-1.965 1.126a4.41 4.41 0 01-1.986-3.421c0-1.259.883-1.766 1.986-1.126a4.409 4.409 0 011.965 3.421zm29.333 20.572l-4.061-2.362a2.556 2.556 0 01-1.104-2.097v-4.282c0-.816.486-1.192 1.104-.838l4.061 2.339a2.698 2.698 0 011.104 2.097v4.282c0 .839-.508 1.214-1.104.861z" fill="#173D7A"/><path d="M542.291 540.968l-85.707-49.486a8.32 8.32 0 01-3.487-6.621v-16.334c0-2.56 1.567-3.73 3.487-2.627l85.707 49.486a8.327 8.327 0 013.487 6.622v16.444c0 2.45-1.567 3.642-3.487 2.516z" fill="#5793CE"/><path opacity=".4" d="M539.841 535.251l-80.807-46.66a4.228 4.228 0 01-1.281-1.468 4.2 4.2 0 01-.484-1.887v-12.295c0-1.302.794-1.898 1.765-1.346l80.807 46.661a4.222 4.222 0 011.766 3.377v12.272c0 1.302-.795 1.898-1.766 1.346z" fill="#D4ECFF"/><path d="M475.875 492.101l-12.051-6.953a4.1 4.1 0 01-1.722-3.267c0-1.28.773-1.854 1.722-1.302l12.051 6.953a4.109 4.109 0 011.722 3.267c0 1.302-.773 1.854-1.722 1.302z" fill="#D4ECFF"/><path d="M488.346 497.309c0 2.384-1.656 3.355-3.731 2.207a8.284 8.284 0 01-3.73-6.467c0-2.384 1.678-3.355 3.73-2.207a8.201 8.201 0 013.731 6.467z" fill="#fff"/><path d="M502.803 505.762c0 1.258-.882 1.766-1.986 1.148a4.419 4.419 0 01-1.964-3.421c0-1.258.882-1.788 1.964-1.148a4.41 4.41 0 011.986 3.421z" fill="#173D7A"/><path d="M509.778 509.758c0 1.28-.883 1.788-1.986 1.147a4.412 4.412 0 01-1.965-3.421c0-1.258.883-1.766 1.965-1.148a4.423 4.423 0 011.986 3.422z" fill="#D4ECFF"/><path d="M516.731 513.819c0 1.258-.883 1.766-1.964 1.126a4.416 4.416 0 01-1.987-3.422c0-1.258.883-1.765 1.987-1.125a4.416 4.416 0 011.964 3.421z" fill="#173D7A"/><path d="M536.441 528.41l-4.061-2.362a2.564 2.564 0 01-1.104-2.097v-4.282c0-.817.486-1.192 1.104-.839l4.061 2.34a2.688 2.688 0 011.104 2.207v4.304c0 .706-.508 1.06-1.104.729z" fill="#D4ECFF"/><path d="M247.14 692.958L56.06 582.597c-5.407-3.112-4.723-8.564 1.523-12.184l130.095-75.046c6.246-3.62 15.693-3.995 21.101-.883l191.057 110.362c5.408 3.112 4.724 8.564-1.523 12.161l-130.094 75.046c-6.246 3.642-15.671 4.039-21.079.905z" fill="#001735" fill-opacity=".23"/><path d="M444.599 409.417L253.52 299.056a7.715 7.715 0 00-6.468-.795l-.331.133-6.908 2.649 6.202 3.023a1.84 1.84 0 000 .332L214.893 446.08c-1.567 7.085 1.545 15.45 6.953 18.474l186.489 107.669-.685 7.901 7.549-2.935a10.545 10.545 0 005.408-7.681l31.122-141.66c1.39-7.019-1.744-15.208-7.13-18.431z" fill="#173D7A"/><path d="M444.598 409.417L253.519 299.056a7.715 7.715 0 00-6.468-.795l-.331.133-6.908 2.649 6.202 3.023a1.84 1.84 0 000 .332l-20.527 93.365 93.498 72.839 131.639-53.548a14.858 14.858 0 00-6.026-7.637z" fill="#396CAA"/><path d="M437.382 431.202L451.927 425a18.202 18.202 0 00-5.893-14.568l-23.022 9.69 14.37 11.08z" fill="#274F89"/><path d="M400.852 579.441L209.772 469.08c-5.408-3.113-8.52-11.39-6.953-18.497l31.122-141.682c1.545-7.085 7.196-10.308 12.604-7.173l191.057 110.361c5.408 3.134 8.52 11.411 6.975 18.496l-31.122 141.66c-1.567 7.086-7.195 10.352-12.603 7.196z" fill="#D4ECFF"/><path d="M439.434 411.427L248.376 301.065a7.616 7.616 0 00-7.527-.331 7.946 7.946 0 015.695 1.016l191.058 110.361c5.407 3.134 8.52 11.411 6.974 18.497l-31.121 141.659a10.837 10.837 0 01-1.715 4.31 10.797 10.797 0 01-3.362 3.195c3.223-.684 5.915-3.62 6.909-8.167l31.121-141.66c1.546-7.129-1.567-15.406-6.974-18.518z" fill="#fff"/><path d="M396.746 568.889L217.055 465.15c-4.944-2.848-7.813-10.419-6.379-16.908l28.474-129.63c1.434-6.49 6.621-9.447 11.543-6.622l179.691 103.74c4.944 2.847 7.813 10.418 6.379 16.907l-28.474 129.631c-1.478 6.533-6.643 9.491-11.543 6.621z" fill="#fff"/><path d="M396.746 568.889L217.055 465.15c-4.944-2.848-7.813-10.419-6.379-16.908l28.474-129.63c1.434-6.49 6.621-9.447 11.543-6.622l179.691 103.74c4.944 2.847 7.813 10.418 6.379 16.907l-28.474 129.631c-1.478 6.533-6.643 9.491-11.543 6.621z" fill="#017EFE"/><path d="M398.269 568.249l-179.69-103.74c-4.944-2.847-7.814-10.418-6.379-16.907l28.473-129.631a9.952 9.952 0 014.415-6.82 9.158 9.158 0 00-6.092 7.46l-28.473 129.631c-1.435 6.489 1.434 14.06 6.378 16.907l179.691 103.74a6.927 6.927 0 007.019.265 7.244 7.244 0 01-5.342-.905z" fill="#5793CE"/><path d="M403.479 584.23l-26.111-3.443-168.589-97.339c-5.407-3.112-14.854-2.715-21.101.883L68.223 553.285l-15.804-2.097v8.961a6.157 6.157 0 003.62 5.54l191.08 110.362c5.408 3.112 14.833 2.715 21.079-.883l130.094-75.046c3.532-2.03 5.275-4.635 5.165-7.085l.022-8.807z" fill="#173D7A"/><path d="M276.806 522.736l-11.985-6.908H133.138l-64.915 37.523-15.804-2.164v8.962a6.156 6.156 0 003.62 5.54L247.12 676.05a19.858 19.858 0 0010.882 2.031l18.805-155.345z" fill="#396CAA"/><path d="M59.438 552.114l-7.019-.927v8.961a6.157 6.157 0 003.62 5.541l3.377 1.942.022-15.517z" fill="#5793CE"/><path d="M249.061 676.889a24.515 24.515 0 0017.922-1.103v-19.998h-17.922v21.101z" fill="#274F89"/><path d="M247.14 667.045L56.06 556.684c-5.407-3.113-4.723-8.565 1.523-12.162l130.095-75.046c6.246-3.598 15.693-3.995 21.101-.883l191.057 110.361c5.408 3.113 4.724 8.564-1.523 12.184l-130.094 75.046c-6.246 3.598-15.671 3.995-21.079.861z" fill="#D4ECFF"/><path d="M398.314 587.806l-130.095 75.045c-6.246 3.62-15.671 3.995-21.079.883L56.06 553.373a7.131 7.131 0 01-3.354-3.664c-.839 2.538.242 5.143 3.355 6.93L247.14 667.001c5.408 3.134 14.833 2.737 21.079-.861l130.095-75.046c4.215-2.428 5.871-5.694 4.877-8.498a10.046 10.046 0 01-4.877 5.21z" fill="#fff"/><path d="M137.331 520.221l-8.653-4.989c-.684-.397-.595-1.103.199-1.567l10.198-5.893a3.018 3.018 0 012.714 0l8.653 4.988c.684.397.596 1.104-.199 1.567l-10.197 5.894a3.034 3.034 0 01-2.715 0zm13.353 7.703l-8.652-4.923c-.684-.397-.596-1.103.198-1.567l10.198-5.893a3.018 3.018 0 012.715-.11l8.652 4.988c.684.397.596 1.104-.199 1.567l-10.197 5.893a3.03 3.03 0 01-2.715.045zm13.355 7.703l-8.653-4.988c-.684-.397-.596-1.104.199-1.567l10.197-5.894a3.023 3.023 0 012.715-.11l8.652 4.988c.685.42.596 1.104-.198 1.568l-10.22 5.893a2.983 2.983 0 01-2.692.11zm18.451-6.357l-8.674-4.988c-.706-.398-.618-1.104.177-1.567l8.652-4.945a3.03 3.03 0 012.715 0l8.652 4.989c.684.397.596 1.103-.198 1.567l-8.564 4.944a3.024 3.024 0 01-2.76 0zm13.398 7.703l-8.652-4.988c-.684-.398-.596-1.104.198-1.567l8.454-4.945a3.036 3.036 0 012.715-.11l8.652 4.988c.685.398.596 1.104-.198 1.568l-8.564 4.944a3.031 3.031 0 01-2.605.11zm13.244 7.703l-8.653-4.988c-.684-.398-.595-1.104.199-1.568l8.564-4.944a3.023 3.023 0 012.715-.11l8.652 4.988c.685.398.596 1.104-.198 1.567l-8.564 4.945a3.036 3.036 0 01-2.715.11zm13.42 7.703l-8.653-4.988c-.684-.397-.596-1.081.199-1.545l8.564-4.966a3.113 3.113 0 012.715 0l8.63 5.01c.707.398.618 1.082-.176 1.545l-8.564 4.944a2.956 2.956 0 01-2.715 0zm13.354 7.726l-8.652-4.988c-.684-.42-.618-1.104.199-1.567l8.564-4.945a2.965 2.965 0 012.715 0l8.63 4.989c.706.397.618 1.103-.199 1.567l-8.564 4.944a2.982 2.982 0 01-2.693 0zm13.354 7.704l-8.653-5.077c-.706-.397-.618-1.104.199-1.567l8.564-4.944a2.973 2.973 0 012.693-.111l8.652 4.989c.706.397.618 1.103-.199 1.567l-8.564 4.944a2.979 2.979 0 01-2.692.199zm13.331 7.702l-8.631-4.988c-.706-.397-.618-1.104.199-1.567l8.564-4.944a2.977 2.977 0 012.693-.111l8.652 4.989c.685.397.596 1.103-.198 1.567l-8.564 4.944a3.023 3.023 0 01-2.715.11zm13.354 7.703l-8.63-5.032c-.706-.398-.618-1.104.176-1.568l8.564-4.944a3.03 3.03 0 012.715 0l8.653 4.989c.684.419.596 1.103-.199 1.567l-8.564 4.944a2.957 2.957 0 01-2.715.044zm13.354 7.725l-8.653-5.01c-.684-.397-.596-1.082.199-1.545l8.564-4.944a3.043 3.043 0 012.715-.133l8.652 5.011c.684.397.596 1.081-.198 1.545l-8.565 4.944a3.039 3.039 0 01-2.714.132zm13.353 7.705L294 593.633c-.685-.419-.596-1.103.198-1.567l8.564-4.944a3.023 3.023 0 012.715-.11l8.652 4.988c.685.397.596 1.104-.198 1.567l-8.564 4.944a3.02 3.02 0 01-2.715.133zm-100.495-73.016l-8.63-5.011c-.706-.397-.618-1.081.199-1.545l8.564-4.9a3.006 3.006 0 012.693-.132l8.564 4.966c.684.397.618 1.082-.199 1.545l-8.564 4.944a3.047 3.047 0 01-2.627.133zm-13.53-7.836l-8.653-4.988c-.706-.397-.618-1.104.199-1.567l8.564-4.944a2.976 2.976 0 012.693-.111l8.652 4.989c.706.397.618 1.103-.199 1.567l-8.564 4.944a2.97 2.97 0 01-2.692.11zm-13.575-7.835l-18.629-10.75c-.684-.397-.596-1.103.199-1.567l8.564-4.944a3.015 3.015 0 012.714-.11l18.607 10.749c.707.397.618 1.104-.198 1.567l-8.564 4.856a2.987 2.987 0 01-2.693.199zm9.491-9.535l-15.119-8.829c-.706-.397-.618-1.104.199-1.567l8.608-4.834a3.018 3.018 0 012.715-.11l15.097 8.829c.706.419.618 1.103-.199 1.567l-8.564 4.944a2.913 2.913 0 01-2.737 0zm30.968 32.909l-8.587-4.989c-.706-.419-.618-1.103.177-1.567l8.652-4.944a2.91 2.91 0 012.693-.11l8.653 4.988c.684.397.596 1.104-.199 1.567l-8.564 4.944a3.028 3.028 0 01-2.825.111zm13.353 7.703l-8.696-4.988c-.707-.398-.618-1.104.176-1.567l8.653-4.856a3.033 3.033 0 011.344-.378c.471-.019.941.073 1.37.267l8.653 4.989c.684.397.596 1.103-.199 1.567l-8.564 4.944a3.02 3.02 0 01-2.737.022zm13.376 7.704l-8.653-4.988c-.684-.398-.596-1.104.199-1.567l8.454-4.945a3.03 3.03 0 012.715 0l8.652 4.989c.684.397.596 1.103-.199 1.567l-8.564 4.944a3.02 3.02 0 01-2.604 0zm13.243 7.703l-8.652-4.989c-.684-.397-.596-1.103.199-1.567l8.564-4.944a3.018 3.018 0 012.715-.11l8.63 4.988c.706.419.618 1.104-.177 1.567l-8.564 4.944a2.951 2.951 0 01-2.715.111zm13.443 7.725l-8.652-5.01c-.684-.398-.596-1.082.199-1.545l8.564-4.945a3.051 3.051 0 012.715-.132l8.63 5.01c.706.398.618 1.082-.177 1.546l-8.586 4.966a3.04 3.04 0 01-2.693.11zm13.354 7.704l-8.653-4.989c-.706-.397-.618-1.103.199-1.567l8.564-4.944a2.977 2.977 0 012.693-.11l8.652 4.988c.707.397.618 1.104-.198 1.567l-8.564 4.944a2.977 2.977 0 01-2.693.111zm13.331 7.703l-8.63-4.989c-.707-.397-.618-1.103.198-1.567l8.564-4.944a2.982 2.982 0 012.693 0l8.653 4.988c.684.398.618 1.104-.199 1.567l-8.564 4.945a3.03 3.03 0 01-2.715 0zm13.354 7.703l-8.63-4.988c-.706-.398-.618-1.104.176-1.568l8.587-4.944a2.98 2.98 0 012.692 0l8.653 4.989c.684.397.596 1.103-.199 1.567l-8.564 4.944a3.018 3.018 0 01-2.715 0zm13.354 7.703l-8.652-4.988c-.685-.398-.596-1.104.198-1.568l8.564-4.944a3.023 3.023 0 012.715-.11l8.652 4.988c.685.42.596 1.104-.198 1.567l-8.564 4.944a2.946 2.946 0 01-2.715.111zm23.661 13.708l-18.85-10.882c-.706-.397-.618-1.104.199-1.567l8.564-4.944a2.976 2.976 0 012.693-.111l18.871 10.882c.685.397.619 1.103-.198 1.567l-8.564 4.944a3.023 3.023 0 01-2.715.111zm26.067-15.054l-15.914-9.182c-.706-.398-.618-1.104.199-1.567l8.564-4.945a2.98 2.98 0 012.693 0l15.914 9.072c.684.419.596 1.104-.199 1.567l-8.63 5.055a2.961 2.961 0 01-2.627 0zM238.908 531.83l-8.652-4.989c-.707-.397-.618-1.103.198-1.567l8.564-4.944a2.977 2.977 0 012.693-.11l8.653 4.988c.706.419.618 1.104-.199 1.567l-8.564 4.944a2.915 2.915 0 01-2.693.111zm-13.685-7.901l-8.653-5.011c-.684-.397-.618-1.081.199-1.545l8.564-4.966a3.112 3.112 0 012.715 0l8.63 5.01c.706.397.618 1.082-.199 1.545l-8.564 4.944a3 3 0 01-2.692.023zm-13.685-7.902l-8.652-5.01c-.684-.398-.596-1.082.199-1.545l8.564-4.945a2.964 2.964 0 012.715 0l8.63 4.989c.706.397.618 1.103-.177 1.545l-8.586 4.966a2.969 2.969 0 01-2.693 0zm-13.686-7.902l-8.586-4.988c-.684-.42-.596-1.104.199-1.568l8.564-4.944a2.957 2.957 0 012.715-.11l8.63 4.988c.707.398.618 1.104-.176 1.567l-8.564 4.945a3.035 3.035 0 01-2.782.11zm54.387 31.409l-8.63-4.989c-.706-.419-.618-1.103.199-1.567l8.564-4.944a2.906 2.906 0 012.692-.11l8.653 4.988c.684.397.596 1.103-.199 1.545l-8.564 4.966a3.018 3.018 0 01-2.715.111zm13.353 7.747l-8.63-4.988c-.706-.398-.618-1.104.177-1.567l8.564-4.945a3.018 3.018 0 012.715-.11l8.652 4.988c.684.398.596 1.104-.199 1.567l-8.564 4.945a3.018 3.018 0 01-2.715.11zm13.354 7.659l-8.652-4.989c-.685-.397-.596-1.103.198-1.567l8.564-4.944a3.03 3.03 0 012.715 0l8.653 4.989c.684.397.596 1.103-.199 1.567l-8.564 4.944a3.032 3.032 0 01-2.715 0zm13.354 7.791l-8.652-4.988c-.684-.397-.596-1.104.199-1.567l8.564-4.944a3.033 3.033 0 011.344-.378c.471-.019.941.073 1.371.267l8.652 4.989c.684.397.596 1.103-.199 1.567l-8.564 4.944a3.018 3.018 0 01-2.715.11zm13.354 7.616l-8.653-4.988c-.684-.398-.595-1.104.199-1.546l8.564-4.966a3.023 3.023 0 012.715-.11l8.63 5.01c.707.398.618 1.082-.176 1.545l-8.476 4.945a2.965 2.965 0 01-2.803.11zm13.354 7.835l-8.653-4.988c-.684-.419-.618-1.104.199-1.567l8.564-4.944a2.97 2.97 0 011.344-.386c.472-.019.943.076 1.371.275l8.696 4.989c.707.397.618 1.103-.198 1.567l-8.63 4.834a2.984 2.984 0 01-2.693.22zm13.354 7.593l-8.653-4.988c-.706-.398-.618-1.104.199-1.568l8.564-4.944a2.984 2.984 0 012.693 0l8.652 4.989c.706.397.618 1.103-.199 1.567l-8.564 4.944a2.98 2.98 0 01-2.692 0zm13.331 7.703l-8.542-4.988c-.706-.397-.618-1.103.199-1.567l8.564-4.944a2.97 2.97 0 012.692-.111l8.653 4.989c.684.397.596 1.103-.199 1.567l-8.564 4.944a3.014 3.014 0 01-2.803.11zm13.353 7.703l-8.652-4.988c-.706-.397-.618-1.103.177-1.567l8.564-4.944a3.018 3.018 0 012.714-.111l8.653 4.989c.684.419.596 1.103-.199 1.567l-8.564 4.944a3.027 3.027 0 01-2.693.11zm-127.18-88.421l-8.652-4.988c-.684-.42-.596-1.104.199-1.568l8.564-4.944a2.954 2.954 0 012.715-.11l8.652 4.988c.684.397.596 1.104-.199 1.567l-8.564 4.944a3.02 3.02 0 01-2.715.111zm-13.287-7.681l-8.63-4.988c-.707-.398-.618-1.104.176-1.567l8.564-4.945a3.032 3.032 0 012.715 0l8.653 4.989c.684.397.595 1.103-.199 1.567l-8.564 4.944a3.019 3.019 0 01-2.715 0zm-13.288-7.66l-8.63-4.988c-.706-.419-.618-1.104.199-1.567l8.564-4.944a2.905 2.905 0 012.692 0l8.653 4.988c.684.397.596 1.104-.199 1.567l-8.564 4.944a3.018 3.018 0 01-2.715 0zm-13.265-7.68l-8.652-4.989c-.706-.397-.618-1.103.198-1.567l8.565-4.944a2.97 2.97 0 012.692-.11l8.653 4.988c.706.397.618 1.104-.199 1.567l-8.564 4.944a2.973 2.973 0 01-2.693.111zm13.64-7.881l-8.63-4.988c-.706-.397-.618-1.104.199-1.567l2.825-1.634a3.018 3.018 0 012.715-.11l8.564 4.988c.706.398.618 1.104-.199 1.568l-2.825 1.633a3.028 3.028 0 01-2.649.11zm17.349 10l-8.652-4.988c-.685-.398-.596-1.104.198-1.568l2.825-1.633a3.023 3.023 0 012.715-.11l8.653 4.988c.684.419.596 1.104-.199 1.567l-2.847 1.633a2.91 2.91 0 01-2.693.111zm13.222 7.637l-8.653-4.989c-.684-.397-.595-1.103.199-1.567l2.847-1.633a2.976 2.976 0 012.693 0l8.653 4.988c.684.419.596 1.104-.199 1.567l-2.825 1.634a2.968 2.968 0 01-2.715 0zm13.22 7.637l-8.63-4.989c-.706-.397-.618-1.103.199-1.567l2.825-1.633a3.019 3.019 0 012.715 0l8.63 4.988c.707.419.618 1.104-.198 1.567l-2.826 1.634a2.964 2.964 0 01-2.715 0zm13.244 7.637l-8.652-5.01c-.684-.398-.596-1.104.198-1.546l2.826-1.655a3.018 3.018 0 012.715-.11l8.652 4.988c.684.419.596 1.104-.199 1.567l-2.825 1.634a2.963 2.963 0 01-2.715.132zm73.854 42.643l-8.652-4.988c-.685-.398-.596-1.104.198-1.567l2.825-1.634a3.03 3.03 0 012.715 0l8.653 4.989c.684.397.596 1.103-.199 1.567l-2.825 1.633a3.019 3.019 0 01-2.715 0zm13.222 7.637l-8.652-4.988c-.685-.397-.596-1.103.198-1.567l2.847-1.633a2.977 2.977 0 012.693-.111l8.653 4.989c.684.397.596 1.103-.199 1.567l-2.715 1.633a3.021 3.021 0 01-2.825.11zm13.221 7.638l-8.63-4.989c-.707-.397-.618-1.103.198-1.567l2.826-1.633a3.033 3.033 0 011.344-.378c.471-.019.941.073 1.371.267l8.63 4.989c.706.419.618 1.103-.199 1.567l-2.825 1.633a3.022 3.022 0 01-2.715.111zm13.243 7.703l-8.653-4.989c-.684-.397-.596-1.103.199-1.567l2.825-1.633a3.022 3.022 0 012.715 0l8.653 4.988c.684.419.595 1.104-.199 1.567l-2.825 1.634a2.97 2.97 0 01-2.715 0zM245.22 520.463l-8.653-4.988c-.684-.397-.596-1.104.199-1.567l8.564-4.944a3.019 3.019 0 012.715 0l8.63 4.988c.707.397.618 1.104-.176 1.567l-8.564 4.944a3.022 3.022 0 01-2.715 0zm13.353 7.703l-8.652-4.988c-.685-.398-.596-1.104.198-1.567l8.564-4.945a3.034 3.034 0 012.715 0l8.63 4.989c.707.397.619 1.103-.176 1.567l-8.586 4.944a2.985 2.985 0 01-2.693 0zm13.355 7.704l-8.653-4.989c-.706-.397-.618-1.103.199-1.567l8.564-4.944a3.018 3.018 0 012.715-.11l8.63 4.988c.706.397.618 1.104-.199 1.567l-8.564 4.944a2.97 2.97 0 01-2.692.111zm13.331 7.725l-8.63-5.01c-.707-.398-.618-1.082.198-1.546l8.564-4.966a3.045 3.045 0 012.693-.11l8.653 5.01c.684.398.618 1.082-.199 1.545l-8.564 4.945a3.059 3.059 0 01-2.715.132zm13.354 7.703l-8.631-4.989c-.706-.419-.618-1.103.177-1.567l8.586-4.944a2.91 2.91 0 012.693-.11l8.652 4.988c.684.397.596 1.104-.198 1.567l-8.565 4.944a3.016 3.016 0 01-2.714.111zm13.354 7.704l-8.63-4.988c-.706-.398-.618-1.104.176-1.568l8.564-4.944a3.03 3.03 0 012.715 0l8.653 4.989c.684.397.596 1.103-.199 1.567l-8.564 4.944a3.018 3.018 0 01-2.715 0zm13.354 7.702l-8.653-4.988c-.684-.398-.596-1.104.199-1.568l8.564-4.944a3.018 3.018 0 012.715-.11l8.652 4.988c.684.398.596 1.104-.199 1.567l-8.564 4.945a3.015 3.015 0 01-2.714.11zm13.353 7.704l-8.653-5.055c-.684-.397-.595-1.103.199-1.567l8.564-4.944a3.019 3.019 0 012.781-.11l8.631 4.988c.706.419.618 1.104-.177 1.567l-8.564 4.944a2.955 2.955 0 01-2.781.177zm13.354 7.725l-8.652-5.01c-.684-.398-.596-1.082.199-1.545l8.564-4.945a3.051 3.051 0 012.715-.132l8.63 5.01c.706.398.618 1.082-.199 1.545l-8.476 4.945a3 3 0 01-2.781.132zm-183.134-60.721l-25.472-14.7c-.684-.397-.596-1.104.199-1.567l8.564-4.944a3.018 3.018 0 012.715 0l25.537 14.589c.707.398.618 1.104-.176 1.567l-8.653 4.945a3.018 3.018 0 01-2.714.11zm164.019 94.69l-25.472-14.7c-.684-.397-.596-1.104.199-1.567l8.564-4.944a3.019 3.019 0 012.715 0l25.449 14.7c.707.397.618 1.103-.198 1.567l-8.564 4.944a2.982 2.982 0 01-2.693 0zm-53.393-13.795l-8.586-4.988c-.684-.398-.596-1.104.198-1.567l10.198-5.894a3.03 3.03 0 012.715 0l8.652 4.989c.684.397.596 1.103-.199 1.567l-10.219 5.893a2.986 2.986 0 01-2.759 0zm-96.875-55.975l-13.905-7.88c-.707-.397-.618-1.103.198-1.545l10.198-5.893a2.954 2.954 0 012.715-.11l13.817 7.968c.706.397.618 1.103-.199 1.567l-10.197 5.893a3.02 3.02 0 01-2.627 0zm84.007 48.537l-13.817-7.858c-.706-.397-.618-1.103.177-1.567l10.219-5.893a2.976 2.976 0 012.693 0l13.839 7.99c.685.397.596 1.104-.198 1.567l-10.198 5.871a2.957 2.957 0 01-2.715-.11zm-64.826-37.413l-13.818-7.968c-.706-.397-.618-1.104.177-1.567l10.22-5.893a2.984 2.984 0 012.692-.111l13.84 7.99c.684.398.596 1.104-.199 1.567l-10.197 5.894a3.029 3.029 0 01-2.715.088z" fill="#5793CE"/><path d="M201.208 541.962l60.103 34.697a.814.814 0 010 1.568l-10.396 6.003a3.087 3.087 0 01-2.715 0l-60.103-34.742 13.111-7.526zm115.614 74.317l9.624 5.562c.574.331.507.905-.155 1.28l-4.171 2.406a2.451 2.451 0 01-2.208 0l-9.645-5.408c-.552-.331-.486-.904.176-1.302l4.172-2.406a2.456 2.456 0 012.207-.132zm-13.464-7.77l9.645 5.562c.552.332.486.905-.176 1.281l-4.172 2.406a2.457 2.457 0 01-2.207 0l-9.646-5.563c-.552-.309-.485-.883.177-1.28l4.171-2.406a2.463 2.463 0 012.208 0zm-13.354-7.702l9.646 5.562c.574.331.485.905-.155 1.28l-4.193 2.406a2.451 2.451 0 01-2.208 0l-9.623-5.385c-.574-.332-.508-.905.154-1.281l4.172-2.405a2.445 2.445 0 012.207-.177zm20.661 3.442l9.645 5.563c.552.331.486.905-.176 1.28l-4.106 2.406a2.456 2.456 0 01-2.207 0l-9.646-5.54c-.551-.331-.485-.905.177-1.281l4.172-2.428a2.446 2.446 0 012.141 0z" fill="#5793CE"/><path d="M351.807 423.676a2.71 2.71 0 01-1.678 1.495 2.705 2.705 0 01-2.229-.281 3.422 3.422 0 01-1.391-4.26 2.73 2.73 0 011.678-1.495 2.721 2.721 0 012.229.281 3.402 3.402 0 011.391 4.26z" fill="#017EFE"/><path d="M363.35 233.303l-3.686-2.207v-5.253a19.855 19.855 0 00-8.961-15.451l-28.01-16.09c-4.944-2.848-8.961-.53-8.961 5.187v5.297l-3.686-2.207v-5.276c0-8.056 5.672-11.323 12.647-7.305l28.01 16.068a28.03 28.03 0 0112.647 21.918v5.319z" fill="#D4ECFF"/><path d="M350.726 240.476l12.625-7.262-2.538-8.829-3.554-8.829s-6.07-6.798-6.622-6.93c-.551-.133-17.017-9.536-17.017-9.536l-13.773-9.932-6.622.221-12.074 6.952 8.829 3.642s4.967 2.472 6.114 2.759a45.661 45.661 0 016.136 5.011l6.004 2.428 1.28-.199 10.749 7.527 3.466 1.545 1.854 3.002 2.869 8.012 2.274 10.418z" fill="#D4ECFF"/><path d="M313.732 204.741l-12.625 7.284s-.817-8.144-.817-8.233c0-.088 2.759-3.973 2.759-3.973l6.865-1.324 5.43 4.105-1.722-.706-.728.442.838 1.324v1.081z" fill="#396CAA"/><path d="M350.726 240.477l-3.686-2.207v-5.298a19.868 19.868 0 00-8.961-15.45l-28.01-16.069c-4.944-2.847-8.961-.53-8.961 5.165v5.319l-3.686-2.207v-5.165c0-8.034 5.672-11.323 12.647-7.284l28.01 16.069a27.946 27.946 0 0112.647 21.896v5.231z" fill="#5793CE"/><path d="M490.178 233.236l-2.737-1.589c-1.148.772-2.318 1.545-3.487 2.207l6.224 3.576a19.862 19.862 0 018.829 15.45v5.32l3.708 2.207v-5.253a28.03 28.03 0 00-12.537-21.918z" fill="#D4ECFF"/><path d="M496.733 242.684s-6.092-6.777-6.622-6.909c-.53-.133-2.207-1.214-4.9-2.715-3.951 2.56-8.034 4.922-12.096 7.107l6.468 4.547 3.465 1.523 1.986 3.068 2.87 8.012 2.317 10.463 12.648-7.262-2.56-8.829-3.576-9.005z" fill="#D4ECFF"/><path d="M477.531 244.89a19.867 19.867 0 018.961 15.451v5.319l3.687 2.208v-5.32a27.989 27.989 0 00-12.648-22.072l-2.406-1.391-3.84 2.075 6.246 3.73z" fill="#5793CE"/></g></g><defs><filter id="filter0_d" x="48.413" y="52.859" width="646.623" height="650.211" filterUnits="userSpaceOnUse" color-interpolation-filters="sRGB"><feFlood flood-opacity="0" result="BackgroundImageFix"/><feColorMatrix in="SourceAlpha" values="0 0 0 0 0 0 0 0 0 0 0 0 0 0 0 0 0 0 127 0"/><feOffset dy="4"/><feGaussianBlur stdDeviation="2"/><feColorMatrix values="0 0 0 0 0 0 0 0 0 0 0 0 0 0 0 0 0 0 0.25 0"/><feBlend in2="BackgroundImageFix" result="effect1_dropShadow"/><feBlend in="SourceGraphic" in2="effect1_dropShadow" result="shape"/></filter><filter id="filter1_d" x="66.284" y="318.778" width="143.792" height="176.292" filterUnits="userSpaceOnUse" color-interpolation-filters="sRGB"><feFlood flood-opacity="0" result="BackgroundImageFix"/><feColorMatrix in="SourceAlpha" values="0 0 0 0 0 0 0 0 0 0 0 0 0 0 0 0 0 0 127 0"/><feOffset/><feGaussianBlur stdDeviation="1"/><feColorMatrix values="0 0 0 0 0.00392157 0 0 0 0 0.494118 0 0 0 0 0.996078 0 0 0 1 0"/><feBlend in2="BackgroundImageFix" result="effect1_dropShadow"/><feBlend in="SourceGraphic" in2="effect1_dropShadow" result="shape"/></filter><filter id="filter2_d" x=".413" y=".859" width="742.623" height="746.211" filterUnits="userSpaceOnUse" color-interpolation-filters="sRGB"><feFlood flood-opacity="0" result="BackgroundImageFix"/><feColorMatrix in="SourceAlpha" values="0 0 0 0 0 0 0 0 0 0 0 0 0 0 0 0 0 0 127 0"/><feOffset/><feGaussianBlur stdDeviation="26"/><feColorMatrix values="0 0 0 0 0 0 0 0 0 0.623529 0 0 0 0 0.913725 0 0 0 1 0"/><feBlend in2="BackgroundImageFix" result="effect1_dropShadow"/><feBlend in="SourceGraphic" in2="effect1_dropShadow" result="shape"/></filter></defs></svg>