<svg version="1.1" id="Слой_1" xmlns="http://www.w3.org/2000/svg" x="0" y="0" viewBox="0 0 23.8 20.9" xml:space="preserve"><style>.st0{fill:#2c9bd7}</style><path class="st0" d="M1.6 9.3c0-.6-.2-1.2-.7-1.6S.4 6.6.7 6.1s.9-.8 1.5-.7c.6.1.9.5 1.1 1.1.1.4.4.8.8 1.1.5.3 1.1.4 1.6.2C6.8 7.3 8 7.9 8.2 9c.3 1-.4 2-1.2 2.2-1 .3-2.2-.3-2.4-1.4-.1-.4-.2-.7-.4-1-.3-.4-.8-.7-1.4-.7-.2 0-.4.1-.4.3-.3.7-.3 1.4.1 2 .1.1.2.3.4.4.7.7.4 2-.5 2.3-.8.3-1.6-.2-1.8-.8-.2-.5-.1-1 .3-1.4.3-.3.5-.6.6-1 0-.2 0-.4.1-.6zm4.9 6.8c-.4 0-.7-.2-1-.3-.8-.2-1.7.3-2 1.1-.1.4-.2.7-.5 1-.5.5-1.4.5-1.9 0-.8-.6-.7-1.8.3-2.3.3-.1.6-.2.9-.1 1.2.3 2.1-.2 2.4-1.4.1-.3.1-.6.3-.8.4-.7 1.1-1 1.9-.9.7.1 1.2.5 1.5 1.3.3 1.1-.5 2.1-1.5 2.3-.2.1-.3.1-.4.1zM10.7.3c.6 0 1.1.3 1.3.9.2.5.1 1.1-.3 1.5-.3.3-.5.7-.6 1.2-.1.7.2 1.2.6 1.6.1.1.2.2.4.3.1.2.1.2-.1.3-.3.2-.5.4-.8.5-.5.4-.7.9-.8 1.4 0 .2-.1.4-.2.6 0 .1-.1.1-.2.1-.8-.2-1.4-1.1-1.2-2 .1-.5.4-.8.8-1.2.5-.4.8-1 .7-1.8-.1-.4-.3-.7-.5-1-.8-.8-.5-2 .6-2.4h.3zM6.8 3.7c.8 0 1.4.6 1.4 1.4 0 .8-.7 1.4-1.4 1.4s-1.5-.7-1.5-1.4c.1-.8.8-1.5 1.5-1.4zm0 16.3c-.7 0-1.4-.6-1.4-1.4 0-.8.6-1.4 1.4-1.4.8 0 1.4.7 1.4 1.5-.1.6-.7 1.4-1.4 1.3zm4.4-3c-.6.3-1.2.6-1.9.8-.8-.8-.7-2.4.6-2.9.2.9.9 1.4 1.3 2.1zm3.4-13.3c.5 0 1.1.4 1.3.8.1.2.1.3-.2.3-.6.1-1.2.2-1.9.4-.2 0-.4.1-.5.2-.1 0-.2 0-.2-.1 0-.9.7-1.7 1.5-1.6zm-5.6 9c-.5-.9-.2-2 .7-2.5-.2.9-.4 1.7-.7 2.5z"/><path class="st0" d="M18.4 13c-.4 1.6-1.9 2.7-3.5 2.7-2 0-3.7-1.6-3.7-3.7 0-2 1.6-3.6 3.7-3.6.7 0 1.3.2 1.9.5l3.5-3.5C18.8 4.2 17 3.5 15 3.5c-4.7 0-8.5 3.8-8.5 8.5s3.7 8.6 8.4 8.6c4.3 0 7.9-3.3 8.4-7.5l-4.9-.1z"/></svg>